<?xml version="1.0" encoding="UTF-8" standalone="no"?>
<svg
   width="460.8pt"
   height="345.6pt"
   viewBox="0 0 460.8 345.6"
   version="1.1"
   id="svg507"
   sodipodi:docname="q1.svg"
   inkscape:version="1.1.2 (0a00cf5339, 2022-02-04)"
   xmlns:inkscape="http://www.inkscape.org/namespaces/inkscape"
   xmlns:sodipodi="http://sodipodi.sourceforge.net/DTD/sodipodi-0.dtd"
   xmlns:xlink="http://www.w3.org/1999/xlink"
   xmlns="http://www.w3.org/2000/svg"
   xmlns:svg="http://www.w3.org/2000/svg"
   xmlns:rdf="http://www.w3.org/1999/02/22-rdf-syntax-ns#"
   xmlns:cc="http://creativecommons.org/ns#"
   xmlns:dc="http://purl.org/dc/elements/1.1/">
  <sodipodi:namedview
     id="namedview509"
     pagecolor="#ffffff"
     bordercolor="#666666"
     borderopacity="1.0"
     inkscape:pageshadow="2"
     inkscape:pageopacity="0.0"
     inkscape:pagecheckerboard="0"
     inkscape:document-units="pt"
     showgrid="false"
     inkscape:zoom="0.66981794"
     inkscape:cx="698.69733"
     inkscape:cy="492.67119"
     inkscape:window-width="1920"
     inkscape:window-height="1176"
     inkscape:window-x="0"
     inkscape:window-y="0"
     inkscape:window-maximized="1"
     inkscape:current-layer="matplotlib.axis_1" />
  <metadata
     id="metadata2">
    <rdf:RDF>
      <cc:Work>
        <dc:type
           rdf:resource="http://purl.org/dc/dcmitype/StillImage" />
        <dc:date>2022-04-06T17:13:46.278872</dc:date>
        <dc:format>image/svg+xml</dc:format>
        <dc:creator>
          <cc:Agent>
            <dc:title>Matplotlib v3.5.1, https://matplotlib.org/</dc:title>
          </cc:Agent>
        </dc:creator>
      </cc:Work>
    </rdf:RDF>
  </metadata>
  <defs
     id="defs6">
    <style
       type="text/css"
       id="style4">*{stroke-linejoin: round; stroke-linecap: butt}</style>
  </defs>
  <g
     id="figure_1">
    <g
       id="patch_1">
      <path
         d="M 0 345.6  L 460.8 345.6  L 460.8 0  L 0 0  z "
         style="fill: #ffffff"
         id="path8" />
    </g>
    <g
       id="axes_1">
      <g
         id="patch_2">
        <path
           d="M 44.203125 209.395312  L 450 209.395312  L 450 14.599219  L 44.203125 14.599219  z "
           style="fill: #ffffff"
           id="path11" />
      </g>
      <g
         id="patch_3">
        <path
           d="M 64.492969 209.395312  L 105.072656 209.395312  L 105.072656 44.602399  L 64.492969 44.602399  z "
           clip-path="url(#p6aaf6c7bca)"
           style="fill: #1f77b4"
           id="path14" />
      </g>
      <g
         id="patch_4">
        <path
           d="M 145.652344 209.395312  L 186.232031 209.395312  L 186.232031 134.546539  L 145.652344 134.546539  z "
           clip-path="url(#p6aaf6c7bca)"
           style="fill: #1f77b4"
           id="path17" />
      </g>
      <g
         id="patch_5">
        <path
           d="M 226.811719 209.395312  L 267.391406 209.395312  L 267.391406 92.472632  L 226.811719 92.472632  z "
           clip-path="url(#p6aaf6c7bca)"
           style="fill: #1f77b4"
           id="path20" />
      </g>
      <g
         id="patch_6">
        <path
           d="M 307.971094 209.395312  L 348.550781 209.395312  L 348.550781 139.444534  L 307.971094 139.444534  z "
           clip-path="url(#p6aaf6c7bca)"
           style="fill: #1f77b4"
           id="path23" />
      </g>
      <g
         id="patch_7">
        <path
           d="M 389.130469 209.395312  L 429.710156 209.395312  L 429.710156 184.535912  L 389.130469 184.535912  z "
           clip-path="url(#p6aaf6c7bca)"
           style="fill: #1f77b4"
           id="path26" />
      </g>
      <g
         id="matplotlib.axis_1">
        <g
           id="xtick_1">
          <g
             id="line2d_1">
            <defs
               id="defs30">
              <path
                 id="me7143beb56"
                 d="M 0 0  L 0 3.5  "
                 style="stroke: #000000; stroke-width: 0.8" />
            </defs>
            <g
               id="g34">
              <use
                 xlink:href="#me7143beb56"
                 x="84.782813"
                 y="209.395312"
                 style="stroke: #000000; stroke-width: 0.8"
                 id="use32" />
            </g>
          </g>
          <g
             id="text_1">
            <!-- (DYN_ASSIGN, 1D) -->
            <g
               transform="translate(87.397656 308.073438)rotate(-90)scale(0.1 -0.1)"
               id="g84">
              <defs
                 id="defs50">
                <path
                   id="DejaVuSans-28"
                   d="M 1984 4856  Q 1566 4138 1362 3434  Q 1159 2731 1159 2009  Q 1159 1288 1364 580  Q 1569 -128 1984 -844  L 1484 -844  Q 1016 -109 783 600  Q 550 1309 550 2009  Q 550 2706 781 3412  Q 1013 4119 1484 4856  L 1984 4856  z "
                   transform="scale(0.015625)" />
                <path
                   id="DejaVuSans-44"
                   d="M 1259 4147  L 1259 519  L 2022 519  Q 2988 519 3436 956  Q 3884 1394 3884 2338  Q 3884 3275 3436 3711  Q 2988 4147 2022 4147  L 1259 4147  z M 628 4666  L 1925 4666  Q 3281 4666 3915 4102  Q 4550 3538 4550 2338  Q 4550 1131 3912 565  Q 3275 0 1925 0  L 628 0  L 628 4666  z "
                   transform="scale(0.015625)" />
                <path
                   id="DejaVuSans-59"
                   d="M -13 4666  L 666 4666  L 1959 2747  L 3244 4666  L 3922 4666  L 2272 2222  L 2272 0  L 1638 0  L 1638 2222  L -13 4666  z "
                   transform="scale(0.015625)" />
                <path
                   id="DejaVuSans-4e"
                   d="M 628 4666  L 1478 4666  L 3547 763  L 3547 4666  L 4159 4666  L 4159 0  L 3309 0  L 1241 3903  L 1241 0  L 628 0  L 628 4666  z "
                   transform="scale(0.015625)" />
                <path
                   id="DejaVuSans-5f"
                   d="M 3263 -1063  L 3263 -1509  L -63 -1509  L -63 -1063  L 3263 -1063  z "
                   transform="scale(0.015625)" />
                <path
                   id="DejaVuSans-41"
                   d="M 2188 4044  L 1331 1722  L 3047 1722  L 2188 4044  z M 1831 4666  L 2547 4666  L 4325 0  L 3669 0  L 3244 1197  L 1141 1197  L 716 0  L 50 0  L 1831 4666  z "
                   transform="scale(0.015625)" />
                <path
                   id="DejaVuSans-53"
                   d="M 3425 4513  L 3425 3897  Q 3066 4069 2747 4153  Q 2428 4238 2131 4238  Q 1616 4238 1336 4038  Q 1056 3838 1056 3469  Q 1056 3159 1242 3001  Q 1428 2844 1947 2747  L 2328 2669  Q 3034 2534 3370 2195  Q 3706 1856 3706 1288  Q 3706 609 3251 259  Q 2797 -91 1919 -91  Q 1588 -91 1214 -16  Q 841 59 441 206  L 441 856  Q 825 641 1194 531  Q 1563 422 1919 422  Q 2459 422 2753 634  Q 3047 847 3047 1241  Q 3047 1584 2836 1778  Q 2625 1972 2144 2069  L 1759 2144  Q 1053 2284 737 2584  Q 422 2884 422 3419  Q 422 4038 858 4394  Q 1294 4750 2059 4750  Q 2388 4750 2728 4690  Q 3069 4631 3425 4513  z "
                   transform="scale(0.015625)" />
                <path
                   id="DejaVuSans-49"
                   d="M 628 4666  L 1259 4666  L 1259 0  L 628 0  L 628 4666  z "
                   transform="scale(0.015625)" />
                <path
                   id="DejaVuSans-47"
                   d="M 3809 666  L 3809 1919  L 2778 1919  L 2778 2438  L 4434 2438  L 4434 434  Q 4069 175 3628 42  Q 3188 -91 2688 -91  Q 1594 -91 976 548  Q 359 1188 359 2328  Q 359 3472 976 4111  Q 1594 4750 2688 4750  Q 3144 4750 3555 4637  Q 3966 4525 4313 4306  L 4313 3634  Q 3963 3931 3569 4081  Q 3175 4231 2741 4231  Q 1884 4231 1454 3753  Q 1025 3275 1025 2328  Q 1025 1384 1454 906  Q 1884 428 2741 428  Q 3075 428 3337 486  Q 3600 544 3809 666  z "
                   transform="scale(0.015625)" />
                <path
                   id="DejaVuSans-2c"
                   d="M 750 794  L 1409 794  L 1409 256  L 897 -744  L 494 -744  L 750 256  L 750 794  z "
                   transform="scale(0.015625)" />
                <path
                   id="DejaVuSans-20"
                   transform="scale(0.015625)" />
                <path
                   id="DejaVuSans-31"
                   d="M 794 531  L 1825 531  L 1825 4091  L 703 3866  L 703 4441  L 1819 4666  L 2450 4666  L 2450 531  L 3481 531  L 3481 0  L 794 0  L 794 531  z "
                   transform="scale(0.015625)" />
                <path
                   id="DejaVuSans-29"
                   d="M 513 4856  L 1013 4856  Q 1481 4119 1714 3412  Q 1947 2706 1947 2009  Q 1947 1309 1714 600  Q 1481 -109 1013 -844  L 513 -844  Q 928 -128 1133 580  Q 1338 1288 1338 2009  Q 1338 2731 1133 3434  Q 928 4138 513 4856  z "
                   transform="scale(0.015625)" />
              </defs>
              <use
                 xlink:href="#DejaVuSans-28"
                 id="use52" />
              <use
                 xlink:href="#DejaVuSans-44"
                 x="39.013672"
                 id="use54" />
              <use
                 xlink:href="#DejaVuSans-59"
                 x="110.515625"
                 id="use56" />
              <use
                 xlink:href="#DejaVuSans-4e"
                 x="171.599609"
                 id="use58" />
              <use
                 xlink:href="#DejaVuSans-5f"
                 x="246.404297"
                 id="use60" />
              <use
                 xlink:href="#DejaVuSans-41"
                 x="296.404297"
                 id="use62" />
              <use
                 xlink:href="#DejaVuSans-53"
                 x="364.8125"
                 id="use64" />
              <use
                 xlink:href="#DejaVuSans-53"
                 x="428.289062"
                 id="use66" />
              <use
                 xlink:href="#DejaVuSans-49"
                 x="491.765625"
                 id="use68" />
              <use
                 xlink:href="#DejaVuSans-47"
                 x="521.257812"
                 id="use70" />
              <use
                 xlink:href="#DejaVuSans-4e"
                 x="598.748047"
                 id="use72" />
              <use
                 xlink:href="#DejaVuSans-2c"
                 x="673.552734"
                 id="use74" />
              <use
                 xlink:href="#DejaVuSans-20"
                 x="705.339844"
                 id="use76" />
              <use
                 xlink:href="#DejaVuSans-31"
                 x="737.126953"
                 id="use78" />
              <use
                 xlink:href="#DejaVuSans-44"
                 x="800.75"
                 id="use80" />
              <use
                 xlink:href="#DejaVuSans-29"
                 x="877.751953"
                 id="use82" />
            </g>
          </g>
        </g>
        <g
           id="xtick_2">
          <g
             id="line2d_2">
            <g
               id="g90">
              <use
                 xlink:href="#me7143beb56"
                 x="165.942187"
                 y="209.395312"
                 style="stroke: #000000; stroke-width: 0.8"
                 id="use88" />
            </g>
          </g>
          <g
             id="text_2">
            <!-- (DYN_ASSIGN, 2D) -->
            <g
               transform="translate(168.557031 308.073438)rotate(-90)scale(0.1 -0.1)"
               id="g128">
              <defs
                 id="defs94">
                <path
                   id="DejaVuSans-32"
                   d="M 1228 531  L 3431 531  L 3431 0  L 469 0  L 469 531  Q 828 903 1448 1529  Q 2069 2156 2228 2338  Q 2531 2678 2651 2914  Q 2772 3150 2772 3378  Q 2772 3750 2511 3984  Q 2250 4219 1831 4219  Q 1534 4219 1204 4116  Q 875 4013 500 3803  L 500 4441  Q 881 4594 1212 4672  Q 1544 4750 1819 4750  Q 2544 4750 2975 4387  Q 3406 4025 3406 3419  Q 3406 3131 3298 2873  Q 3191 2616 2906 2266  Q 2828 2175 2409 1742  Q 1991 1309 1228 531  z "
                   transform="scale(0.015625)" />
              </defs>
              <use
                 xlink:href="#DejaVuSans-28"
                 id="use96" />
              <use
                 xlink:href="#DejaVuSans-44"
                 x="39.013672"
                 id="use98" />
              <use
                 xlink:href="#DejaVuSans-59"
                 x="110.515625"
                 id="use100" />
              <use
                 xlink:href="#DejaVuSans-4e"
                 x="171.599609"
                 id="use102" />
              <use
                 xlink:href="#DejaVuSans-5f"
                 x="246.404297"
                 id="use104" />
              <use
                 xlink:href="#DejaVuSans-41"
                 x="296.404297"
                 id="use106" />
              <use
                 xlink:href="#DejaVuSans-53"
                 x="364.8125"
                 id="use108" />
              <use
                 xlink:href="#DejaVuSans-53"
                 x="428.289062"
                 id="use110" />
              <use
                 xlink:href="#DejaVuSans-49"
                 x="491.765625"
                 id="use112" />
              <use
                 xlink:href="#DejaVuSans-47"
                 x="521.257812"
                 id="use114" />
              <use
                 xlink:href="#DejaVuSans-4e"
                 x="598.748047"
                 id="use116" />
              <use
                 xlink:href="#DejaVuSans-2c"
                 x="673.552734"
                 id="use118" />
              <use
                 xlink:href="#DejaVuSans-20"
                 x="705.339844"
                 id="use120" />
              <use
                 xlink:href="#DejaVuSans-32"
                 x="737.126953"
                 id="use122" />
              <use
                 xlink:href="#DejaVuSans-44"
                 x="800.75"
                 id="use124" />
              <use
                 xlink:href="#DejaVuSans-29"
                 x="877.751953"
                 id="use126" />
            </g>
          </g>
        </g>
        <g
           id="xtick_3">
          <g
             id="line2d_3">
            <g
               id="g134">
              <use
                 xlink:href="#me7143beb56"
                 x="247.101562"
                 y="209.395312"
                 style="stroke: #000000; stroke-width: 0.8"
                 id="use132" />
            </g>
          </g>
          <g
             id="text_3">
            <!-- (STATIC_ASSIGN, 1D) -->
            <g
               transform="translate(249.716406 321.121875)rotate(-90)scale(0.1 -0.1)"
               id="g179">
              <defs
                 id="defs139">
                <path
                   id="DejaVuSans-54"
                   d="M -19 4666  L 3928 4666  L 3928 4134  L 2272 4134  L 2272 0  L 1638 0  L 1638 4134  L -19 4134  L -19 4666  z "
                   transform="scale(0.015625)" />
                <path
                   id="DejaVuSans-43"
                   d="M 4122 4306  L 4122 3641  Q 3803 3938 3442 4084  Q 3081 4231 2675 4231  Q 1875 4231 1450 3742  Q 1025 3253 1025 2328  Q 1025 1406 1450 917  Q 1875 428 2675 428  Q 3081 428 3442 575  Q 3803 722 4122 1019  L 4122 359  Q 3791 134 3420 21  Q 3050 -91 2638 -91  Q 1578 -91 968 557  Q 359 1206 359 2328  Q 359 3453 968 4101  Q 1578 4750 2638 4750  Q 3056 4750 3426 4639  Q 3797 4528 4122 4306  z "
                   transform="scale(0.015625)" />
              </defs>
              <use
                 xlink:href="#DejaVuSans-28"
                 id="use141" />
              <use
                 xlink:href="#DejaVuSans-53"
                 x="39.013672"
                 id="use143" />
              <use
                 xlink:href="#DejaVuSans-54"
                 x="102.490234"
                 id="use145" />
              <use
                 xlink:href="#DejaVuSans-41"
                 x="155.824219"
                 id="use147" />
              <use
                 xlink:href="#DejaVuSans-54"
                 x="216.482422"
                 id="use149" />
              <use
                 xlink:href="#DejaVuSans-49"
                 x="277.566406"
                 id="use151" />
              <use
                 xlink:href="#DejaVuSans-43"
                 x="307.058594"
                 id="use153" />
              <use
                 xlink:href="#DejaVuSans-5f"
                 x="376.882812"
                 id="use155" />
              <use
                 xlink:href="#DejaVuSans-41"
                 x="426.882812"
                 id="use157" />
              <use
                 xlink:href="#DejaVuSans-53"
                 x="495.291016"
                 id="use159" />
              <use
                 xlink:href="#DejaVuSans-53"
                 x="558.767578"
                 id="use161" />
              <use
                 xlink:href="#DejaVuSans-49"
                 x="622.244141"
                 id="use163" />
              <use
                 xlink:href="#DejaVuSans-47"
                 x="651.736328"
                 id="use165" />
              <use
                 xlink:href="#DejaVuSans-4e"
                 x="729.226562"
                 id="use167" />
              <use
                 xlink:href="#DejaVuSans-2c"
                 x="804.03125"
                 id="use169" />
              <use
                 xlink:href="#DejaVuSans-20"
                 x="835.818359"
                 id="use171" />
              <use
                 xlink:href="#DejaVuSans-31"
                 x="867.605469"
                 id="use173" />
              <use
                 xlink:href="#DejaVuSans-44"
                 x="931.228516"
                 id="use175" />
              <use
                 xlink:href="#DejaVuSans-29"
                 x="1008.230469"
                 id="use177" />
            </g>
          </g>
        </g>
        <g
           id="xtick_4">
          <g
             id="line2d_4">
            <g
               id="g185">
              <use
                 xlink:href="#me7143beb56"
                 x="328.260937"
                 y="209.395312"
                 style="stroke: #000000; stroke-width: 0.8"
                 id="use183" />
            </g>
          </g>
          <g
             id="text_4">
            <!-- (STATIC_ASSIGN, 2D) -->
            <g
               transform="translate(330.875781 321.121875)rotate(-90)scale(0.1 -0.1)"
               id="g226">
              <use
                 xlink:href="#DejaVuSans-28"
                 id="use188" />
              <use
                 xlink:href="#DejaVuSans-53"
                 x="39.013672"
                 id="use190" />
              <use
                 xlink:href="#DejaVuSans-54"
                 x="102.490234"
                 id="use192" />
              <use
                 xlink:href="#DejaVuSans-41"
                 x="155.824219"
                 id="use194" />
              <use
                 xlink:href="#DejaVuSans-54"
                 x="216.482422"
                 id="use196" />
              <use
                 xlink:href="#DejaVuSans-49"
                 x="277.566406"
                 id="use198" />
              <use
                 xlink:href="#DejaVuSans-43"
                 x="307.058594"
                 id="use200" />
              <use
                 xlink:href="#DejaVuSans-5f"
                 x="376.882812"
                 id="use202" />
              <use
                 xlink:href="#DejaVuSans-41"
                 x="426.882812"
                 id="use204" />
              <use
                 xlink:href="#DejaVuSans-53"
                 x="495.291016"
                 id="use206" />
              <use
                 xlink:href="#DejaVuSans-53"
                 x="558.767578"
                 id="use208" />
              <use
                 xlink:href="#DejaVuSans-49"
                 x="622.244141"
                 id="use210" />
              <use
                 xlink:href="#DejaVuSans-47"
                 x="651.736328"
                 id="use212" />
              <use
                 xlink:href="#DejaVuSans-4e"
                 x="729.226562"
                 id="use214" />
              <use
                 xlink:href="#DejaVuSans-2c"
                 x="804.03125"
                 id="use216" />
              <use
                 xlink:href="#DejaVuSans-20"
                 x="835.818359"
                 id="use218" />
              <use
                 xlink:href="#DejaVuSans-32"
                 x="867.605469"
                 id="use220" />
              <use
                 xlink:href="#DejaVuSans-44"
                 x="931.228516"
                 id="use222" />
              <use
                 xlink:href="#DejaVuSans-29"
                 x="1008.230469"
                 id="use224" />
            </g>
          </g>
        </g>
        <g
           id="xtick_5">
          <g
             id="line2d_5">
            <g
               id="g232">
              <use
                 xlink:href="#me7143beb56"
                 x="409.420313"
                 y="209.395312"
                 style="stroke: #000000; stroke-width: 0.8"
                 id="use230" />
            </g>
          </g>
          <g
             id="text_5"
             transform="translate(0,-10.333625)">
            <!-- (serial, ) -->
            <g
               transform="matrix(0,-0.1,-0.1,0,412.17969,257.7125)"
               id="g263">
              <defs
                 id="defs241">
                <path
                   id="DejaVuSans-73"
                   d="m 2834,3397 v -544 q -243,125 -506,187 -262,63 -544,63 -428,0 -642,-131 -214,-131 -214,-394 0,-200 153,-314 153,-114 616,-217 l 197,-44 q 612,-131 870,-370 258,-239 258,-667 0,-488 -386,-773 Q 2250,-91 1575,-91 1294,-91 989,-36 684,19 347,128 v 594 q 319,-166 628,-249 309,-82 613,-82 406,0 624,139 219,139 219,392 0,234 -158,359 -157,125 -692,241 l -200,47 q -534,112 -772,345 -237,233 -237,639 0,494 350,762 350,269 994,269 318,0 599,-47 282,-46 519,-140 z"
                   transform="scale(0.015625)" />
                <path
                   id="DejaVuSans-65"
                   d="M 3597,1894 V 1613 H 953 q 38,-594 358,-905 320,-311 892,-311 331,0 642,81 311,81 618,244 V 178 Q 3153,47 2828,-22 2503,-91 2169,-91 1331,-91 842,396 353,884 353,1716 q 0,859 464,1363 464,505 1252,505 706,0 1117,-455 411,-454 411,-1235 z m -575,169 q -6,471 -264,752 -258,282 -683,282 -481,0 -770,-272 -289,-272 -333,-766 z"
                   transform="scale(0.015625)" />
                <path
                   id="DejaVuSans-72"
                   d="m 2631,2963 q -97,56 -211,82 -114,27 -251,27 -488,0 -749,-317 -261,-317 -261,-911 V 0 H 581 v 3500 h 578 v -544 q 182,319 472,473 291,155 707,155 59,0 131,-8 72,-7 159,-23 z"
                   transform="scale(0.015625)" />
                <path
                   id="DejaVuSans-69"
                   d="m 603,3500 h 575 V 0 H 603 Z m 0,1363 h 575 V 4134 H 603 Z"
                   transform="scale(0.015625)" />
                <path
                   id="DejaVuSans-61"
                   d="m 2194,1759 q -697,0 -966,-159 -269,-159 -269,-544 0,-306 202,-486 202,-179 548,-179 479,0 768,339 289,339 289,901 v 128 z m 1147,238 V 0 H 2766 V 531 Q 2569,213 2275,61 1981,-91 1556,-91 q -537,0 -855,302 -317,302 -317,808 0,590 395,890 396,300 1180,300 h 807 v 57 q 0,397 -261,614 -261,217 -733,217 -300,0 -585,-72 -284,-72 -546,-216 v 532 q 315,122 612,182 297,61 578,61 760,0 1135,-394 375,-393 375,-1193 z"
                   transform="scale(0.015625)" />
                <path
                   id="DejaVuSans-6c"
                   d="m 603,4863 h 575 V 0 H 603 Z"
                   transform="scale(0.015625)" />
              </defs>
              <use
                 xlink:href="#DejaVuSans-73"
                 x="39.013672"
                 id="use245"
                 y="0"
                 width="100%"
                 height="100%" />
              <use
                 xlink:href="#DejaVuSans-65"
                 x="91.113281"
                 id="use247"
                 y="0"
                 width="100%"
                 height="100%" />
              <use
                 xlink:href="#DejaVuSans-72"
                 x="152.63672"
                 id="use249"
                 y="0"
                 width="100%"
                 height="100%" />
              <use
                 xlink:href="#DejaVuSans-69"
                 x="193.75"
                 id="use251"
                 y="0"
                 width="100%"
                 height="100%" />
              <use
                 xlink:href="#DejaVuSans-61"
                 x="221.5332"
                 id="use253"
                 y="0"
                 width="100%"
                 height="100%" />
              <use
                 xlink:href="#DejaVuSans-6c"
                 x="282.8125"
                 id="use255"
                 y="0"
                 width="100%"
                 height="100%" />
              <use
                 xlink:href="#DejaVuSans-20"
                 x="342.38281"
                 id="use259"
                 y="0"
                 width="100%"
                 height="100%" />
            </g>
          </g>
        </g>
        <g
           id="text_6"
           transform="translate(0,6.0001255)">
          <!-- Configurazioni SpMM UpperBound -->
          <g
             transform="matrix(0.1,0,0,-0.1,161.84375,332.72031)"
             id="g340">
            <defs
               id="defs278">
              <path
                 id="DejaVuSans-6f"
                 d="m 1959,3097 q -462,0 -731,-361 -269,-361 -269,-989 0,-628 267,-989 268,-361 733,-361 460,0 728,362 269,363 269,988 0,622 -269,986 -268,364 -728,364 z m 0,487 q 750,0 1178,-488 429,-487 429,-1349 Q 3566,888 3137,398 2709,-91 1959,-91 1206,-91 779,398 353,888 353,1747 q 0,862 426,1349 427,488 1180,488 z"
                 transform="scale(0.015625)" />
              <path
                 id="DejaVuSans-6e"
                 d="M 3513,2113 V 0 h -575 v 2094 q 0,497 -194,743 -194,247 -581,247 -466,0 -735,-297 -269,-296 -269,-809 V 0 H 581 v 3500 h 578 v -544 q 207,316 486,472 280,156 646,156 603,0 912,-373 310,-373 310,-1098 z"
                 transform="scale(0.015625)" />
              <path
                 id="DejaVuSans-66"
                 d="m 2375,4863 v -479 h -550 q -309,0 -430,-125 -120,-125 -120,-450 v -309 h 947 V 3053 H 1275 V 0 H 697 V 3053 H 147 v 447 h 550 v 244 q 0,584 272,851 272,268 862,268 z"
                 transform="scale(0.015625)" />
              <path
                 id="DejaVuSans-67"
                 d="m 2906,1791 q 0,625 -258,968 -257,344 -723,344 -462,0 -720,-344 -258,-343 -258,-968 0,-622 258,-966 258,-344 720,-344 466,0 723,344 258,344 258,966 z M 3481,434 q 0,-893 -397,-1329 -396,-436 -1215,-436 -303,0 -572,45 -269,45 -522,139 v 559 q 253,-137 500,-202 247,-66 503,-66 566,0 847,295 281,295 281,892 V 616 Q 2728,306 2450,153 2172,0 1784,0 1141,0 747,490 353,981 353,1791 q 0,812 394,1302 394,491 1037,491 388,0 666,-153 278,-153 456,-462 v 531 h 575 z"
                 transform="scale(0.015625)" />
              <path
                 id="DejaVuSans-75"
                 d="m 544,1381 v 2119 h 575 V 1403 q 0,-497 193,-746 194,-248 582,-248 465,0 735,297 271,297 271,810 v 1984 h 575 V 0 H 2900 V 538 Q 2691,219 2414,64 2138,-91 1772,-91 1169,-91 856,284 544,659 544,1381 Z m 1447,2203 z"
                 transform="scale(0.015625)" />
              <path
                 id="DejaVuSans-7a"
                 d="M 353,3500 H 3084 V 2975 L 922,459 H 3084 V 0 H 275 V 525 L 2438,3041 H 353 Z"
                 transform="scale(0.015625)" />
              <path
                 id="DejaVuSans-70"
                 d="M 1159,525 V -1331 H 581 v 4831 h 578 v -531 q 182,312 458,463 277,152 661,152 638,0 1036,-506 399,-506 399,-1331 0,-825 -399,-1332 -398,-506 -1036,-506 -384,0 -661,152 -276,152 -458,464 z m 1957,1222 q 0,634 -261,995 -261,361 -717,361 -457,0 -718,-361 -261,-361 -261,-995 0,-634 261,-995 261,-361 718,-361 456,0 717,361 261,361 261,995 z"
                 transform="scale(0.015625)" />
              <path
                 id="DejaVuSans-4d"
                 d="m 628,4666 h 941 L 2759,1491 3956,4666 h 941 V 0 H 4281 V 4097 L 3078,897 H 2444 L 1241,4097 V 0 H 628 Z"
                 transform="scale(0.015625)" />
              <path
                 id="DejaVuSans-55"
                 d="m 556,4666 h 635 V 1831 q 0,-750 271,-1080 272,-329 882,-329 606,0 878,329 272,330 272,1080 v 2835 h 634 V 1753 Q 4128,841 3676,375 3225,-91 2344,-91 1459,-91 1007,375 556,841 556,1753 Z"
                 transform="scale(0.015625)" />
              <path
                 id="DejaVuSans-42"
                 d="M 1259,2228 V 519 h 1013 q 509,0 754,211 246,211 246,645 0,438 -246,645 -245,208 -754,208 z m 0,1919 V 2741 h 935 q 462,0 688,173 227,174 227,530 0,353 -227,528 -226,175 -688,175 z m -631,519 h 1613 q 722,0 1112,-300 391,-300 391,-853 0,-429 -200,-682 -200,-253 -588,-315 466,-100 724,-418 258,-317 258,-792 0,-625 -425,-966 Q 3088,0 2303,0 H 628 Z"
                 transform="scale(0.015625)" />
              <path
                 id="DejaVuSans-64"
                 d="m 2906,2969 v 1894 h 575 V 0 H 2906 V 525 Q 2725,213 2448,61 2172,-91 1784,-91 1150,-91 751,415 353,922 353,1747 q 0,825 398,1331 399,506 1033,506 388,0 664,-152 277,-151 458,-463 z M 947,1747 q 0,-634 261,-995 261,-361 717,-361 456,0 718,361 263,361 263,995 0,634 -263,995 -262,361 -718,361 -456,0 -717,-361 -261,-361 -261,-995 z"
                 transform="scale(0.015625)" />
            </defs>
            <use
               xlink:href="#DejaVuSans-43"
               id="use280"
               x="0"
               y="0"
               width="100%"
               height="100%" />
            <use
               xlink:href="#DejaVuSans-6f"
               x="69.824219"
               id="use282"
               y="0"
               width="100%"
               height="100%" />
            <use
               xlink:href="#DejaVuSans-6e"
               x="131.00586"
               id="use284"
               y="0"
               width="100%"
               height="100%" />
            <use
               xlink:href="#DejaVuSans-66"
               x="194.38477"
               id="use286"
               y="0"
               width="100%"
               height="100%" />
            <use
               xlink:href="#DejaVuSans-69"
               x="229.58984"
               id="use288"
               y="0"
               width="100%"
               height="100%" />
            <use
               xlink:href="#DejaVuSans-67"
               x="257.37305"
               id="use290"
               y="0"
               width="100%"
               height="100%" />
            <use
               xlink:href="#DejaVuSans-75"
               x="320.84961"
               id="use292"
               y="0"
               width="100%"
               height="100%" />
            <use
               xlink:href="#DejaVuSans-72"
               x="384.22852"
               id="use294"
               y="0"
               width="100%"
               height="100%" />
            <use
               xlink:href="#DejaVuSans-61"
               x="425.3418"
               id="use296"
               y="0"
               width="100%"
               height="100%" />
            <use
               xlink:href="#DejaVuSans-7a"
               x="486.62109"
               id="use298"
               y="0"
               width="100%"
               height="100%" />
            <use
               xlink:href="#DejaVuSans-69"
               x="539.11133"
               id="use300"
               y="0"
               width="100%"
               height="100%" />
            <use
               xlink:href="#DejaVuSans-6f"
               x="566.89453"
               id="use302"
               y="0"
               width="100%"
               height="100%" />
            <use
               xlink:href="#DejaVuSans-6e"
               x="628.07617"
               id="use304"
               y="0"
               width="100%"
               height="100%" />
            <use
               xlink:href="#DejaVuSans-69"
               x="691.45508"
               id="use306"
               y="0"
               width="100%"
               height="100%" />
            <use
               xlink:href="#DejaVuSans-20"
               x="719.23828"
               id="use308"
               y="0"
               width="100%"
               height="100%" />
            <use
               xlink:href="#DejaVuSans-53"
               x="751.02539"
               id="use310"
               y="0"
               width="100%"
               height="100%" />
            <use
               xlink:href="#DejaVuSans-70"
               x="814.50195"
               id="use312"
               y="0"
               width="100%"
               height="100%" />
            <use
               xlink:href="#DejaVuSans-4d"
               x="877.97852"
               id="use314"
               y="0"
               width="100%"
               height="100%" />
            <use
               xlink:href="#DejaVuSans-4d"
               x="964.25781"
               id="use316"
               y="0"
               width="100%"
               height="100%" />
            <use
               xlink:href="#DejaVuSans-20"
               x="1050.5371"
               id="use318"
               y="0"
               width="100%"
               height="100%" />
            <use
               xlink:href="#DejaVuSans-55"
               x="1082.3242"
               id="use320"
               y="0"
               width="100%"
               height="100%" />
            <use
               xlink:href="#DejaVuSans-70"
               x="1155.5176"
               id="use322"
               y="0"
               width="100%"
               height="100%" />
            <use
               xlink:href="#DejaVuSans-70"
               x="1218.9941"
               id="use324"
               y="0"
               width="100%"
               height="100%" />
            <use
               xlink:href="#DejaVuSans-65"
               x="1282.4707"
               id="use326"
               y="0"
               width="100%"
               height="100%" />
            <use
               xlink:href="#DejaVuSans-72"
               x="1343.9941"
               id="use328"
               y="0"
               width="100%"
               height="100%" />
            <use
               xlink:href="#DejaVuSans-42"
               x="1385.1074"
               id="use330"
               y="0"
               width="100%"
               height="100%" />
            <use
               xlink:href="#DejaVuSans-6f"
               x="1453.7109"
               id="use332"
               y="0"
               width="100%"
               height="100%" />
            <use
               xlink:href="#DejaVuSans-75"
               x="1514.8926"
               id="use334"
               y="0"
               width="100%"
               height="100%" />
            <use
               xlink:href="#DejaVuSans-6e"
               x="1578.2715"
               id="use336"
               y="0"
               width="100%"
               height="100%" />
            <use
               xlink:href="#DejaVuSans-64"
               x="1641.6504"
               id="use338"
               y="0"
               width="100%"
               height="100%" />
          </g>
        </g>
      </g>
      <g
         id="matplotlib.axis_2">
        <g
           id="ytick_1">
          <g
             id="line2d_6">
            <defs
               id="defs345">
              <path
                 id="m9b23cf9eda"
                 d="M 0 0  L -3.5 0  "
                 style="stroke: #000000; stroke-width: 0.8" />
            </defs>
            <g
               id="g349">
              <use
                 xlink:href="#m9b23cf9eda"
                 x="44.203125"
                 y="209.395312"
                 style="stroke: #000000; stroke-width: 0.8"
                 id="use347" />
            </g>
          </g>
          <g
             id="text_7">
            <!-- 0 -->
            <g
               transform="translate(30.840625 213.194531)scale(0.1 -0.1)"
               id="g357">
              <defs
                 id="defs353">
                <path
                   id="DejaVuSans-30"
                   d="M 2034 4250  Q 1547 4250 1301 3770  Q 1056 3291 1056 2328  Q 1056 1369 1301 889  Q 1547 409 2034 409  Q 2525 409 2770 889  Q 3016 1369 3016 2328  Q 3016 3291 2770 3770  Q 2525 4250 2034 4250  z M 2034 4750  Q 2819 4750 3233 4129  Q 3647 3509 3647 2328  Q 3647 1150 3233 529  Q 2819 -91 2034 -91  Q 1250 -91 836 529  Q 422 1150 422 2328  Q 422 3509 836 4129  Q 1250 4750 2034 4750  z "
                   transform="scale(0.015625)" />
              </defs>
              <use
                 xlink:href="#DejaVuSans-30"
                 id="use355" />
            </g>
          </g>
        </g>
        <g
           id="ytick_2">
          <g
             id="line2d_7">
            <g
               id="g363">
              <use
                 xlink:href="#m9b23cf9eda"
                 x="44.203125"
                 y="181.567299"
                 style="stroke: #000000; stroke-width: 0.8"
                 id="use361" />
            </g>
          </g>
          <g
             id="text_8">
            <!-- 2 -->
            <g
               transform="translate(30.840625 185.366518)scale(0.1 -0.1)"
               id="g368">
              <use
                 xlink:href="#DejaVuSans-32"
                 id="use366" />
            </g>
          </g>
        </g>
        <g
           id="ytick_3">
          <g
             id="line2d_8">
            <g
               id="g374">
              <use
                 xlink:href="#m9b23cf9eda"
                 x="44.203125"
                 y="153.739286"
                 style="stroke: #000000; stroke-width: 0.8"
                 id="use372" />
            </g>
          </g>
          <g
             id="text_9">
            <!-- 4 -->
            <g
               transform="translate(30.840625 157.538504)scale(0.1 -0.1)"
               id="g382">
              <defs
                 id="defs378">
                <path
                   id="DejaVuSans-34"
                   d="M 2419 4116  L 825 1625  L 2419 1625  L 2419 4116  z M 2253 4666  L 3047 4666  L 3047 1625  L 3713 1625  L 3713 1100  L 3047 1100  L 3047 0  L 2419 0  L 2419 1100  L 313 1100  L 313 1709  L 2253 4666  z "
                   transform="scale(0.015625)" />
              </defs>
              <use
                 xlink:href="#DejaVuSans-34"
                 id="use380" />
            </g>
          </g>
        </g>
        <g
           id="ytick_4">
          <g
             id="line2d_9">
            <g
               id="g388">
              <use
                 xlink:href="#m9b23cf9eda"
                 x="44.203125"
                 y="125.911272"
                 style="stroke: #000000; stroke-width: 0.8"
                 id="use386" />
            </g>
          </g>
          <g
             id="text_10">
            <!-- 6 -->
            <g
               transform="translate(30.840625 129.710491)scale(0.1 -0.1)"
               id="g396">
              <defs
                 id="defs392">
                <path
                   id="DejaVuSans-36"
                   d="M 2113 2584  Q 1688 2584 1439 2293  Q 1191 2003 1191 1497  Q 1191 994 1439 701  Q 1688 409 2113 409  Q 2538 409 2786 701  Q 3034 994 3034 1497  Q 3034 2003 2786 2293  Q 2538 2584 2113 2584  z M 3366 4563  L 3366 3988  Q 3128 4100 2886 4159  Q 2644 4219 2406 4219  Q 1781 4219 1451 3797  Q 1122 3375 1075 2522  Q 1259 2794 1537 2939  Q 1816 3084 2150 3084  Q 2853 3084 3261 2657  Q 3669 2231 3669 1497  Q 3669 778 3244 343  Q 2819 -91 2113 -91  Q 1303 -91 875 529  Q 447 1150 447 2328  Q 447 3434 972 4092  Q 1497 4750 2381 4750  Q 2619 4750 2861 4703  Q 3103 4656 3366 4563  z "
                   transform="scale(0.015625)" />
              </defs>
              <use
                 xlink:href="#DejaVuSans-36"
                 id="use394" />
            </g>
          </g>
        </g>
        <g
           id="ytick_5">
          <g
             id="line2d_10">
            <g
               id="g402">
              <use
                 xlink:href="#m9b23cf9eda"
                 x="44.203125"
                 y="98.083259"
                 style="stroke: #000000; stroke-width: 0.8"
                 id="use400" />
            </g>
          </g>
          <g
             id="text_11">
            <!-- 8 -->
            <g
               transform="translate(30.840625 101.882478)scale(0.1 -0.1)"
               id="g410">
              <defs
                 id="defs406">
                <path
                   id="DejaVuSans-38"
                   d="M 2034 2216  Q 1584 2216 1326 1975  Q 1069 1734 1069 1313  Q 1069 891 1326 650  Q 1584 409 2034 409  Q 2484 409 2743 651  Q 3003 894 3003 1313  Q 3003 1734 2745 1975  Q 2488 2216 2034 2216  z M 1403 2484  Q 997 2584 770 2862  Q 544 3141 544 3541  Q 544 4100 942 4425  Q 1341 4750 2034 4750  Q 2731 4750 3128 4425  Q 3525 4100 3525 3541  Q 3525 3141 3298 2862  Q 3072 2584 2669 2484  Q 3125 2378 3379 2068  Q 3634 1759 3634 1313  Q 3634 634 3220 271  Q 2806 -91 2034 -91  Q 1263 -91 848 271  Q 434 634 434 1313  Q 434 1759 690 2068  Q 947 2378 1403 2484  z M 1172 3481  Q 1172 3119 1398 2916  Q 1625 2713 2034 2713  Q 2441 2713 2670 2916  Q 2900 3119 2900 3481  Q 2900 3844 2670 4047  Q 2441 4250 2034 4250  Q 1625 4250 1398 4047  Q 1172 3844 1172 3481  z "
                   transform="scale(0.015625)" />
              </defs>
              <use
                 xlink:href="#DejaVuSans-38"
                 id="use408" />
            </g>
          </g>
        </g>
        <g
           id="ytick_6">
          <g
             id="line2d_11">
            <g
               id="g416">
              <use
                 xlink:href="#m9b23cf9eda"
                 x="44.203125"
                 y="70.255246"
                 style="stroke: #000000; stroke-width: 0.8"
                 id="use414" />
            </g>
          </g>
          <g
             id="text_12">
            <!-- 10 -->
            <g
               transform="translate(24.478125 74.054464)scale(0.1 -0.1)"
               id="g423">
              <use
                 xlink:href="#DejaVuSans-31"
                 id="use419" />
              <use
                 xlink:href="#DejaVuSans-30"
                 x="63.623047"
                 id="use421" />
            </g>
          </g>
        </g>
        <g
           id="ytick_7">
          <g
             id="line2d_12">
            <g
               id="g429">
              <use
                 xlink:href="#m9b23cf9eda"
                 x="44.203125"
                 y="42.427232"
                 style="stroke: #000000; stroke-width: 0.8"
                 id="use427" />
            </g>
          </g>
          <g
             id="text_13">
            <!-- 12 -->
            <g
               transform="translate(24.478125 46.226451)scale(0.1 -0.1)"
               id="g436">
              <use
                 xlink:href="#DejaVuSans-31"
                 id="use432" />
              <use
                 xlink:href="#DejaVuSans-32"
                 x="63.623047"
                 id="use434" />
            </g>
          </g>
        </g>
        <g
           id="ytick_8">
          <g
             id="line2d_13">
            <g
               id="g442">
              <use
                 xlink:href="#m9b23cf9eda"
                 x="44.203125"
                 y="14.599219"
                 style="stroke: #000000; stroke-width: 0.8"
                 id="use440" />
            </g>
          </g>
          <g
             id="text_14">
            <!-- 14 -->
            <g
               transform="translate(24.478125 18.398438)scale(0.1 -0.1)"
               id="g449">
              <use
                 xlink:href="#DejaVuSans-31"
                 id="use445" />
              <use
                 xlink:href="#DejaVuSans-34"
                 x="63.623047"
                 id="use447" />
            </g>
          </g>
        </g>
        <g
           id="text_15">
          <!-- E[ GFlop/s ] -->
          <g
             transform="translate(18.398437 140.898047)rotate(-90)scale(0.1 -0.1)"
             id="g484">
            <defs
               id="defs458">
              <path
                 id="DejaVuSans-45"
                 d="M 628 4666  L 3578 4666  L 3578 4134  L 1259 4134  L 1259 2753  L 3481 2753  L 3481 2222  L 1259 2222  L 1259 531  L 3634 531  L 3634 0  L 628 0  L 628 4666  z "
                 transform="scale(0.015625)" />
              <path
                 id="DejaVuSans-5b"
                 d="M 550 4863  L 1875 4863  L 1875 4416  L 1125 4416  L 1125 -397  L 1875 -397  L 1875 -844  L 550 -844  L 550 4863  z "
                 transform="scale(0.015625)" />
              <path
                 id="DejaVuSans-46"
                 d="M 628 4666  L 3309 4666  L 3309 4134  L 1259 4134  L 1259 2759  L 3109 2759  L 3109 2228  L 1259 2228  L 1259 0  L 628 0  L 628 4666  z "
                 transform="scale(0.015625)" />
              <path
                 id="DejaVuSans-2f"
                 d="M 1625 4666  L 2156 4666  L 531 -594  L 0 -594  L 1625 4666  z "
                 transform="scale(0.015625)" />
              <path
                 id="DejaVuSans-5d"
                 d="M 1947 4863  L 1947 -844  L 622 -844  L 622 -397  L 1369 -397  L 1369 4416  L 622 4416  L 622 4863  L 1947 4863  z "
                 transform="scale(0.015625)" />
            </defs>
            <use
               xlink:href="#DejaVuSans-45"
               id="use460" />
            <use
               xlink:href="#DejaVuSans-5b"
               x="63.183594"
               id="use462" />
            <use
               xlink:href="#DejaVuSans-20"
               x="102.197266"
               id="use464" />
            <use
               xlink:href="#DejaVuSans-47"
               x="133.984375"
               id="use466" />
            <use
               xlink:href="#DejaVuSans-46"
               x="211.474609"
               id="use468" />
            <use
               xlink:href="#DejaVuSans-6c"
               x="268.994141"
               id="use470" />
            <use
               xlink:href="#DejaVuSans-6f"
               x="296.777344"
               id="use472" />
            <use
               xlink:href="#DejaVuSans-70"
               x="357.958984"
               id="use474" />
            <use
               xlink:href="#DejaVuSans-2f"
               x="421.435547"
               id="use476" />
            <use
               xlink:href="#DejaVuSans-73"
               x="455.126953"
               id="use478" />
            <use
               xlink:href="#DejaVuSans-20"
               x="507.226562"
               id="use480" />
            <use
               xlink:href="#DejaVuSans-5d"
               x="539.013672"
               id="use482" />
          </g>
        </g>
      </g>
      <g
         id="patch_8">
        <path
           d="M 44.203125 209.395312  L 44.203125 14.599219  "
           style="fill: none; stroke: #000000; stroke-width: 0.8; stroke-linejoin: miter; stroke-linecap: square"
           id="path488" />
      </g>
      <g
         id="patch_9">
        <path
           d="M 450 209.395312  L 450 14.599219  "
           style="fill: none; stroke: #000000; stroke-width: 0.8; stroke-linejoin: miter; stroke-linecap: square"
           id="path491" />
      </g>
      <g
         id="patch_10">
        <path
           d="M 44.203125 209.395312  L 450 209.395312  "
           style="fill: none; stroke: #000000; stroke-width: 0.8; stroke-linejoin: miter; stroke-linecap: square"
           id="path494" />
      </g>
      <g
         id="patch_11">
        <path
           d="M 44.203125 14.599219  L 450 14.599219  "
           style="fill: none; stroke: #000000; stroke-width: 0.8; stroke-linejoin: miter; stroke-linecap: square"
           id="path497" />
      </g>
    </g>
  </g>
  <defs
     id="defs505">
    <clipPath
       id="p6aaf6c7bca">
      <rect
         x="44.203125"
         y="14.599219"
         width="405.796875"
         height="194.796094"
         id="rect502" />
    </clipPath>
  </defs>
</svg>
