<?xml version="1.0" encoding="UTF-8" standalone="no"?>
<svg
   width="460.8pt"
   height="345.6pt"
   viewBox="0 0 460.8 345.6"
   version="1.1"
   id="svg1675"
   sodipodi:docname="q2.svg"
   inkscape:version="1.1.2 (0a00cf5339, 2022-02-04)"
   xmlns:inkscape="http://www.inkscape.org/namespaces/inkscape"
   xmlns:sodipodi="http://sodipodi.sourceforge.net/DTD/sodipodi-0.dtd"
   xmlns:xlink="http://www.w3.org/1999/xlink"
   xmlns="http://www.w3.org/2000/svg"
   xmlns:svg="http://www.w3.org/2000/svg"
   xmlns:rdf="http://www.w3.org/1999/02/22-rdf-syntax-ns#"
   xmlns:cc="http://creativecommons.org/ns#"
   xmlns:dc="http://purl.org/dc/elements/1.1/">
  <sodipodi:namedview
     id="namedview1677"
     pagecolor="#ffffff"
     bordercolor="#666666"
     borderopacity="1.0"
     inkscape:pageshadow="2"
     inkscape:pageopacity="0.0"
     inkscape:pagecheckerboard="0"
     inkscape:document-units="pt"
     showgrid="false"
     inkscape:zoom="0.94726561"
     inkscape:cx="162.5732"
     inkscape:cy="273.41856"
     inkscape:window-width="1920"
     inkscape:window-height="1176"
     inkscape:window-x="0"
     inkscape:window-y="0"
     inkscape:window-maximized="1"
     inkscape:current-layer="matplotlib.axis_1" />
  <metadata
     id="metadata1326">
    <rdf:RDF>
      <cc:Work>
        <dc:type
           rdf:resource="http://purl.org/dc/dcmitype/StillImage" />
        <dc:date>2022-04-06T17:13:46.844649</dc:date>
        <dc:format>image/svg+xml</dc:format>
        <dc:creator>
          <cc:Agent>
            <dc:title>Matplotlib v3.5.1, https://matplotlib.org/</dc:title>
          </cc:Agent>
        </dc:creator>
      </cc:Work>
    </rdf:RDF>
  </metadata>
  <defs
     id="defs1330">
    <style
       type="text/css"
       id="style1328">*{stroke-linejoin: round; stroke-linecap: butt}</style>
  </defs>
  <g
     id="figure_1">
    <g
       id="patch_1">
      <path
         d="M 0 345.6  L 460.8 345.6  L 460.8 0  L 0 0  z "
         style="fill: #ffffff"
         id="path1332" />
    </g>
    <g
       id="axes_1">
      <g
         id="patch_2">
        <path
           d="M 44.203125 281.9875  L 450 281.9875  L 450 14.599219  L 44.203125 14.599219  z "
           style="fill: #ffffff"
           id="path1335" />
      </g>
      <g
         id="patch_3">
        <path
           d="M 78.019531 281.9875  L 145.652344 281.9875  L 145.652344 40.634412  L 78.019531 40.634412  z "
           clip-path="url(#pd7992f23dd)"
           style="fill: #1f77b4"
           id="path1338" />
      </g>
      <g
         id="patch_4">
        <path
           d="M 213.285156 281.9875  L 280.917969 281.9875  L 280.917969 90.801461  L 213.285156 90.801461  z "
           clip-path="url(#pd7992f23dd)"
           style="fill: #1f77b4"
           id="path1341" />
      </g>
      <g
         id="patch_5">
        <path
           d="M 348.550781 281.9875  L 416.183594 281.9875  L 416.183594 252.129492  L 348.550781 252.129492  z "
           clip-path="url(#pd7992f23dd)"
           style="fill: #1f77b4"
           id="path1344" />
      </g>
      <g
         id="matplotlib.axis_1">
        <g
           id="xtick_1">
          <g
             id="line2d_1">
            <defs
               id="defs1348">
              <path
                 id="m99fd3b1dde"
                 d="M 0 0  L 0 3.5  "
                 style="stroke: #000000; stroke-width: 0.8" />
            </defs>
            <g
               id="g1352">
              <use
                 xlink:href="#m99fd3b1dde"
                 x="111.835937"
                 y="281.9875"
                 style="stroke: #000000; stroke-width: 0.8"
                 id="use1350" />
            </g>
          </g>
          <g
             id="text_1">
            <!-- 64bit -->
            <g
               transform="translate(114.595312 314.759375)rotate(-90)scale(0.1 -0.1)"
               id="g1372">
              <defs
                 id="defs1360">
                <path
                   id="DejaVuSans-36"
                   d="M 2113 2584  Q 1688 2584 1439 2293  Q 1191 2003 1191 1497  Q 1191 994 1439 701  Q 1688 409 2113 409  Q 2538 409 2786 701  Q 3034 994 3034 1497  Q 3034 2003 2786 2293  Q 2538 2584 2113 2584  z M 3366 4563  L 3366 3988  Q 3128 4100 2886 4159  Q 2644 4219 2406 4219  Q 1781 4219 1451 3797  Q 1122 3375 1075 2522  Q 1259 2794 1537 2939  Q 1816 3084 2150 3084  Q 2853 3084 3261 2657  Q 3669 2231 3669 1497  Q 3669 778 3244 343  Q 2819 -91 2113 -91  Q 1303 -91 875 529  Q 447 1150 447 2328  Q 447 3434 972 4092  Q 1497 4750 2381 4750  Q 2619 4750 2861 4703  Q 3103 4656 3366 4563  z "
                   transform="scale(0.015625)" />
                <path
                   id="DejaVuSans-34"
                   d="M 2419 4116  L 825 1625  L 2419 1625  L 2419 4116  z M 2253 4666  L 3047 4666  L 3047 1625  L 3713 1625  L 3713 1100  L 3047 1100  L 3047 0  L 2419 0  L 2419 1100  L 313 1100  L 313 1709  L 2253 4666  z "
                   transform="scale(0.015625)" />
                <path
                   id="DejaVuSans-62"
                   d="M 3116 1747  Q 3116 2381 2855 2742  Q 2594 3103 2138 3103  Q 1681 3103 1420 2742  Q 1159 2381 1159 1747  Q 1159 1113 1420 752  Q 1681 391 2138 391  Q 2594 391 2855 752  Q 3116 1113 3116 1747  z M 1159 2969  Q 1341 3281 1617 3432  Q 1894 3584 2278 3584  Q 2916 3584 3314 3078  Q 3713 2572 3713 1747  Q 3713 922 3314 415  Q 2916 -91 2278 -91  Q 1894 -91 1617 61  Q 1341 213 1159 525  L 1159 0  L 581 0  L 581 4863  L 1159 4863  L 1159 2969  z "
                   transform="scale(0.015625)" />
                <path
                   id="DejaVuSans-69"
                   d="M 603 3500  L 1178 3500  L 1178 0  L 603 0  L 603 3500  z M 603 4863  L 1178 4863  L 1178 4134  L 603 4134  L 603 4863  z "
                   transform="scale(0.015625)" />
                <path
                   id="DejaVuSans-74"
                   d="M 1172 4494  L 1172 3500  L 2356 3500  L 2356 3053  L 1172 3053  L 1172 1153  Q 1172 725 1289 603  Q 1406 481 1766 481  L 2356 481  L 2356 0  L 1766 0  Q 1100 0 847 248  Q 594 497 594 1153  L 594 3053  L 172 3053  L 172 3500  L 594 3500  L 594 4494  L 1172 4494  z "
                   transform="scale(0.015625)" />
              </defs>
              <use
                 xlink:href="#DejaVuSans-36"
                 id="use1362" />
              <use
                 xlink:href="#DejaVuSans-34"
                 x="63.623047"
                 id="use1364" />
              <use
                 xlink:href="#DejaVuSans-62"
                 x="127.246094"
                 id="use1366" />
              <use
                 xlink:href="#DejaVuSans-69"
                 x="190.722656"
                 id="use1368" />
              <use
                 xlink:href="#DejaVuSans-74"
                 x="218.505859"
                 id="use1370" />
            </g>
          </g>
        </g>
        <g
           id="xtick_2">
          <g
             id="line2d_2">
            <g
               id="g1378">
              <use
                 xlink:href="#m99fd3b1dde"
                 x="247.101562"
                 y="281.9875"
                 style="stroke: #000000; stroke-width: 0.8"
                 id="use1376" />
            </g>
          </g>
          <g
             id="text_2">
            <!-- 128bit -->
            <g
               transform="translate(249.860937 321.121875)rotate(-90)scale(0.1 -0.1)"
               id="g1398">
              <defs
                 id="defs1384">
                <path
                   id="DejaVuSans-31"
                   d="M 794 531  L 1825 531  L 1825 4091  L 703 3866  L 703 4441  L 1819 4666  L 2450 4666  L 2450 531  L 3481 531  L 3481 0  L 794 0  L 794 531  z "
                   transform="scale(0.015625)" />
                <path
                   id="DejaVuSans-32"
                   d="M 1228 531  L 3431 531  L 3431 0  L 469 0  L 469 531  Q 828 903 1448 1529  Q 2069 2156 2228 2338  Q 2531 2678 2651 2914  Q 2772 3150 2772 3378  Q 2772 3750 2511 3984  Q 2250 4219 1831 4219  Q 1534 4219 1204 4116  Q 875 4013 500 3803  L 500 4441  Q 881 4594 1212 4672  Q 1544 4750 1819 4750  Q 2544 4750 2975 4387  Q 3406 4025 3406 3419  Q 3406 3131 3298 2873  Q 3191 2616 2906 2266  Q 2828 2175 2409 1742  Q 1991 1309 1228 531  z "
                   transform="scale(0.015625)" />
                <path
                   id="DejaVuSans-38"
                   d="M 2034 2216  Q 1584 2216 1326 1975  Q 1069 1734 1069 1313  Q 1069 891 1326 650  Q 1584 409 2034 409  Q 2484 409 2743 651  Q 3003 894 3003 1313  Q 3003 1734 2745 1975  Q 2488 2216 2034 2216  z M 1403 2484  Q 997 2584 770 2862  Q 544 3141 544 3541  Q 544 4100 942 4425  Q 1341 4750 2034 4750  Q 2731 4750 3128 4425  Q 3525 4100 3525 3541  Q 3525 3141 3298 2862  Q 3072 2584 2669 2484  Q 3125 2378 3379 2068  Q 3634 1759 3634 1313  Q 3634 634 3220 271  Q 2806 -91 2034 -91  Q 1263 -91 848 271  Q 434 634 434 1313  Q 434 1759 690 2068  Q 947 2378 1403 2484  z M 1172 3481  Q 1172 3119 1398 2916  Q 1625 2713 2034 2713  Q 2441 2713 2670 2916  Q 2900 3119 2900 3481  Q 2900 3844 2670 4047  Q 2441 4250 2034 4250  Q 1625 4250 1398 4047  Q 1172 3844 1172 3481  z "
                   transform="scale(0.015625)" />
              </defs>
              <use
                 xlink:href="#DejaVuSans-31"
                 id="use1386" />
              <use
                 xlink:href="#DejaVuSans-32"
                 x="63.623047"
                 id="use1388" />
              <use
                 xlink:href="#DejaVuSans-38"
                 x="127.246094"
                 id="use1390" />
              <use
                 xlink:href="#DejaVuSans-62"
                 x="190.869141"
                 id="use1392" />
              <use
                 xlink:href="#DejaVuSans-69"
                 x="254.345703"
                 id="use1394" />
              <use
                 xlink:href="#DejaVuSans-74"
                 x="282.128906"
                 id="use1396" />
            </g>
          </g>
        </g>
        <g
           id="xtick_3">
          <g
             id="line2d_3">
            <g
               id="g1404">
              <use
                 xlink:href="#m99fd3b1dde"
                 x="382.367187"
                 y="281.9875"
                 style="stroke: #000000; stroke-width: 0.8"
                 id="use1402" />
            </g>
          </g>
          <g
             id="text_3">
            <!-- serial -->
            <g
               transform="translate(385.126562 316.145312)rotate(-90)scale(0.1 -0.1)"
               id="g1426">
              <defs
                 id="defs1412">
                <path
                   id="DejaVuSans-73"
                   d="M 2834 3397  L 2834 2853  Q 2591 2978 2328 3040  Q 2066 3103 1784 3103  Q 1356 3103 1142 2972  Q 928 2841 928 2578  Q 928 2378 1081 2264  Q 1234 2150 1697 2047  L 1894 2003  Q 2506 1872 2764 1633  Q 3022 1394 3022 966  Q 3022 478 2636 193  Q 2250 -91 1575 -91  Q 1294 -91 989 -36  Q 684 19 347 128  L 347 722  Q 666 556 975 473  Q 1284 391 1588 391  Q 1994 391 2212 530  Q 2431 669 2431 922  Q 2431 1156 2273 1281  Q 2116 1406 1581 1522  L 1381 1569  Q 847 1681 609 1914  Q 372 2147 372 2553  Q 372 3047 722 3315  Q 1072 3584 1716 3584  Q 2034 3584 2315 3537  Q 2597 3491 2834 3397  z "
                   transform="scale(0.015625)" />
                <path
                   id="DejaVuSans-65"
                   d="M 3597 1894  L 3597 1613  L 953 1613  Q 991 1019 1311 708  Q 1631 397 2203 397  Q 2534 397 2845 478  Q 3156 559 3463 722  L 3463 178  Q 3153 47 2828 -22  Q 2503 -91 2169 -91  Q 1331 -91 842 396  Q 353 884 353 1716  Q 353 2575 817 3079  Q 1281 3584 2069 3584  Q 2775 3584 3186 3129  Q 3597 2675 3597 1894  z M 3022 2063  Q 3016 2534 2758 2815  Q 2500 3097 2075 3097  Q 1594 3097 1305 2825  Q 1016 2553 972 2059  L 3022 2063  z "
                   transform="scale(0.015625)" />
                <path
                   id="DejaVuSans-72"
                   d="M 2631 2963  Q 2534 3019 2420 3045  Q 2306 3072 2169 3072  Q 1681 3072 1420 2755  Q 1159 2438 1159 1844  L 1159 0  L 581 0  L 581 3500  L 1159 3500  L 1159 2956  Q 1341 3275 1631 3429  Q 1922 3584 2338 3584  Q 2397 3584 2469 3576  Q 2541 3569 2628 3553  L 2631 2963  z "
                   transform="scale(0.015625)" />
                <path
                   id="DejaVuSans-61"
                   d="M 2194 1759  Q 1497 1759 1228 1600  Q 959 1441 959 1056  Q 959 750 1161 570  Q 1363 391 1709 391  Q 2188 391 2477 730  Q 2766 1069 2766 1631  L 2766 1759  L 2194 1759  z M 3341 1997  L 3341 0  L 2766 0  L 2766 531  Q 2569 213 2275 61  Q 1981 -91 1556 -91  Q 1019 -91 701 211  Q 384 513 384 1019  Q 384 1609 779 1909  Q 1175 2209 1959 2209  L 2766 2209  L 2766 2266  Q 2766 2663 2505 2880  Q 2244 3097 1772 3097  Q 1472 3097 1187 3025  Q 903 2953 641 2809  L 641 3341  Q 956 3463 1253 3523  Q 1550 3584 1831 3584  Q 2591 3584 2966 3190  Q 3341 2797 3341 1997  z "
                   transform="scale(0.015625)" />
                <path
                   id="DejaVuSans-6c"
                   d="M 603 4863  L 1178 4863  L 1178 0  L 603 0  L 603 4863  z "
                   transform="scale(0.015625)" />
              </defs>
              <use
                 xlink:href="#DejaVuSans-73"
                 id="use1414" />
              <use
                 xlink:href="#DejaVuSans-65"
                 x="52.099609"
                 id="use1416" />
              <use
                 xlink:href="#DejaVuSans-72"
                 x="113.623047"
                 id="use1418" />
              <use
                 xlink:href="#DejaVuSans-69"
                 x="154.736328"
                 id="use1420" />
              <use
                 xlink:href="#DejaVuSans-61"
                 x="182.519531"
                 id="use1422" />
              <use
                 xlink:href="#DejaVuSans-6c"
                 x="243.798828"
                 id="use1424" />
            </g>
          </g>
        </g>
        <g
           id="text_4"
           transform="translate(0,6.0001255)">
          <!-- Configurazioni dimensioni limb -->
          <g
             transform="matrix(0.1,0,0,-0.1,169.84922,332.72031)"
             id="g1502">
            <defs
               id="defs1440">
              <path
                 id="DejaVuSans-43"
                 d="m 4122,4306 v -665 q -319,297 -680,443 -361,147 -767,147 -800,0 -1225,-489 -425,-489 -425,-1414 0,-922 425,-1411 425,-489 1225,-489 406,0 767,147 361,147 680,444 V 359 Q 3791,134 3420,21 3050,-91 2638,-91 1578,-91 968,557 359,1206 359,2328 q 0,1125 609,1773 610,649 1670,649 418,0 788,-111 371,-111 696,-333 z"
                 transform="scale(0.015625)" />
              <path
                 id="DejaVuSans-6f"
                 d="m 1959,3097 q -462,0 -731,-361 -269,-361 -269,-989 0,-628 267,-989 268,-361 733,-361 460,0 728,362 269,363 269,988 0,622 -269,986 -268,364 -728,364 z m 0,487 q 750,0 1178,-488 429,-487 429,-1349 Q 3566,888 3137,398 2709,-91 1959,-91 1206,-91 779,398 353,888 353,1747 q 0,862 426,1349 427,488 1180,488 z"
                 transform="scale(0.015625)" />
              <path
                 id="DejaVuSans-6e"
                 d="M 3513,2113 V 0 h -575 v 2094 q 0,497 -194,743 -194,247 -581,247 -466,0 -735,-297 -269,-296 -269,-809 V 0 H 581 v 3500 h 578 v -544 q 207,316 486,472 280,156 646,156 603,0 912,-373 310,-373 310,-1098 z"
                 transform="scale(0.015625)" />
              <path
                 id="DejaVuSans-66"
                 d="m 2375,4863 v -479 h -550 q -309,0 -430,-125 -120,-125 -120,-450 v -309 h 947 V 3053 H 1275 V 0 H 697 V 3053 H 147 v 447 h 550 v 244 q 0,584 272,851 272,268 862,268 z"
                 transform="scale(0.015625)" />
              <path
                 id="DejaVuSans-67"
                 d="m 2906,1791 q 0,625 -258,968 -257,344 -723,344 -462,0 -720,-344 -258,-343 -258,-968 0,-622 258,-966 258,-344 720,-344 466,0 723,344 258,344 258,966 z M 3481,434 q 0,-893 -397,-1329 -396,-436 -1215,-436 -303,0 -572,45 -269,45 -522,139 v 559 q 253,-137 500,-202 247,-66 503,-66 566,0 847,295 281,295 281,892 V 616 Q 2728,306 2450,153 2172,0 1784,0 1141,0 747,490 353,981 353,1791 q 0,812 394,1302 394,491 1037,491 388,0 666,-153 278,-153 456,-462 v 531 h 575 z"
                 transform="scale(0.015625)" />
              <path
                 id="DejaVuSans-75"
                 d="m 544,1381 v 2119 h 575 V 1403 q 0,-497 193,-746 194,-248 582,-248 465,0 735,297 271,297 271,810 v 1984 h 575 V 0 H 2900 V 538 Q 2691,219 2414,64 2138,-91 1772,-91 1169,-91 856,284 544,659 544,1381 Z m 1447,2203 z"
                 transform="scale(0.015625)" />
              <path
                 id="DejaVuSans-7a"
                 d="M 353,3500 H 3084 V 2975 L 922,459 H 3084 V 0 H 275 V 525 L 2438,3041 H 353 Z"
                 transform="scale(0.015625)" />
              <path
                 id="DejaVuSans-20"
                 transform="scale(0.015625)"
                 d="" />
              <path
                 id="DejaVuSans-64"
                 d="m 2906,2969 v 1894 h 575 V 0 H 2906 V 525 Q 2725,213 2448,61 2172,-91 1784,-91 1150,-91 751,415 353,922 353,1747 q 0,825 398,1331 399,506 1033,506 388,0 664,-152 277,-151 458,-463 z M 947,1747 q 0,-634 261,-995 261,-361 717,-361 456,0 718,361 263,361 263,995 0,634 -263,995 -262,361 -718,361 -456,0 -717,-361 -261,-361 -261,-995 z"
                 transform="scale(0.015625)" />
              <path
                 id="DejaVuSans-6d"
                 d="m 3328,2828 q 216,388 516,572 300,184 706,184 547,0 844,-383 297,-382 297,-1088 V 0 h -578 v 2094 q 0,503 -179,746 -178,244 -543,244 -447,0 -707,-297 -259,-296 -259,-809 V 0 h -578 v 2094 q 0,506 -178,748 -178,242 -550,242 -441,0 -701,-298 -259,-298 -259,-808 V 0 H 581 v 3500 h 578 v -544 q 197,322 472,475 275,153 653,153 382,0 649,-194 267,-193 395,-562 z"
                 transform="scale(0.015625)" />
            </defs>
            <use
               xlink:href="#DejaVuSans-43"
               id="use1442"
               x="0"
               y="0"
               width="100%"
               height="100%" />
            <use
               xlink:href="#DejaVuSans-6f"
               x="69.824219"
               id="use1444"
               y="0"
               width="100%"
               height="100%" />
            <use
               xlink:href="#DejaVuSans-6e"
               x="131.00586"
               id="use1446"
               y="0"
               width="100%"
               height="100%" />
            <use
               xlink:href="#DejaVuSans-66"
               x="194.38477"
               id="use1448"
               y="0"
               width="100%"
               height="100%" />
            <use
               xlink:href="#DejaVuSans-69"
               x="229.58984"
               id="use1450"
               y="0"
               width="100%"
               height="100%" />
            <use
               xlink:href="#DejaVuSans-67"
               x="257.37305"
               id="use1452"
               y="0"
               width="100%"
               height="100%" />
            <use
               xlink:href="#DejaVuSans-75"
               x="320.84961"
               id="use1454"
               y="0"
               width="100%"
               height="100%" />
            <use
               xlink:href="#DejaVuSans-72"
               x="384.22852"
               id="use1456"
               y="0"
               width="100%"
               height="100%" />
            <use
               xlink:href="#DejaVuSans-61"
               x="425.3418"
               id="use1458"
               y="0"
               width="100%"
               height="100%" />
            <use
               xlink:href="#DejaVuSans-7a"
               x="486.62109"
               id="use1460"
               y="0"
               width="100%"
               height="100%" />
            <use
               xlink:href="#DejaVuSans-69"
               x="539.11133"
               id="use1462"
               y="0"
               width="100%"
               height="100%" />
            <use
               xlink:href="#DejaVuSans-6f"
               x="566.89453"
               id="use1464"
               y="0"
               width="100%"
               height="100%" />
            <use
               xlink:href="#DejaVuSans-6e"
               x="628.07617"
               id="use1466"
               y="0"
               width="100%"
               height="100%" />
            <use
               xlink:href="#DejaVuSans-69"
               x="691.45508"
               id="use1468"
               y="0"
               width="100%"
               height="100%" />
            <use
               xlink:href="#DejaVuSans-20"
               x="719.23828"
               id="use1470"
               y="0"
               width="100%"
               height="100%" />
            <use
               xlink:href="#DejaVuSans-64"
               x="751.02539"
               id="use1472"
               y="0"
               width="100%"
               height="100%" />
            <use
               xlink:href="#DejaVuSans-69"
               x="814.50195"
               id="use1474"
               y="0"
               width="100%"
               height="100%" />
            <use
               xlink:href="#DejaVuSans-6d"
               x="842.28516"
               id="use1476"
               y="0"
               width="100%"
               height="100%" />
            <use
               xlink:href="#DejaVuSans-65"
               x="939.69727"
               id="use1478"
               y="0"
               width="100%"
               height="100%" />
            <use
               xlink:href="#DejaVuSans-6e"
               x="1001.2207"
               id="use1480"
               y="0"
               width="100%"
               height="100%" />
            <use
               xlink:href="#DejaVuSans-73"
               x="1064.5996"
               id="use1482"
               y="0"
               width="100%"
               height="100%" />
            <use
               xlink:href="#DejaVuSans-69"
               x="1116.6992"
               id="use1484"
               y="0"
               width="100%"
               height="100%" />
            <use
               xlink:href="#DejaVuSans-6f"
               x="1144.4824"
               id="use1486"
               y="0"
               width="100%"
               height="100%" />
            <use
               xlink:href="#DejaVuSans-6e"
               x="1205.6641"
               id="use1488"
               y="0"
               width="100%"
               height="100%" />
            <use
               xlink:href="#DejaVuSans-69"
               x="1269.043"
               id="use1490"
               y="0"
               width="100%"
               height="100%" />
            <use
               xlink:href="#DejaVuSans-20"
               x="1296.8262"
               id="use1492"
               y="0"
               width="100%"
               height="100%" />
            <use
               xlink:href="#DejaVuSans-6c"
               x="1328.6133"
               id="use1494"
               y="0"
               width="100%"
               height="100%" />
            <use
               xlink:href="#DejaVuSans-69"
               x="1356.3965"
               id="use1496"
               y="0"
               width="100%"
               height="100%" />
            <use
               xlink:href="#DejaVuSans-6d"
               x="1384.1797"
               id="use1498"
               y="0"
               width="100%"
               height="100%" />
            <use
               xlink:href="#DejaVuSans-62"
               x="1481.5918"
               id="use1500"
               y="0"
               width="100%"
               height="100%" />
          </g>
        </g>
      </g>
      <g
         id="matplotlib.axis_2">
        <g
           id="ytick_1">
          <g
             id="line2d_4">
            <defs
               id="defs1507">
              <path
                 id="m58726bd346"
                 d="M 0 0  L -3.5 0  "
                 style="stroke: #000000; stroke-width: 0.8" />
            </defs>
            <g
               id="g1511">
              <use
                 xlink:href="#m58726bd346"
                 x="44.203125"
                 y="281.9875"
                 style="stroke: #000000; stroke-width: 0.8"
                 id="use1509" />
            </g>
          </g>
          <g
             id="text_5">
            <!-- 0 -->
            <g
               transform="translate(30.840625 285.786719)scale(0.1 -0.1)"
               id="g1519">
              <defs
                 id="defs1515">
                <path
                   id="DejaVuSans-30"
                   d="M 2034 4250  Q 1547 4250 1301 3770  Q 1056 3291 1056 2328  Q 1056 1369 1301 889  Q 1547 409 2034 409  Q 2525 409 2770 889  Q 3016 1369 3016 2328  Q 3016 3291 2770 3770  Q 2525 4250 2034 4250  z M 2034 4750  Q 2819 4750 3233 4129  Q 3647 3509 3647 2328  Q 3647 1150 3233 529  Q 2819 -91 2034 -91  Q 1250 -91 836 529  Q 422 1150 422 2328  Q 422 3509 836 4129  Q 1250 4750 2034 4750  z "
                   transform="scale(0.015625)" />
              </defs>
              <use
                 xlink:href="#DejaVuSans-30"
                 id="use1517" />
            </g>
          </g>
        </g>
        <g
           id="ytick_2">
          <g
             id="line2d_5">
            <g
               id="g1525">
              <use
                 xlink:href="#m58726bd346"
                 x="44.203125"
                 y="248.563965"
                 style="stroke: #000000; stroke-width: 0.8"
                 id="use1523" />
            </g>
          </g>
          <g
             id="text_6">
            <!-- 2 -->
            <g
               transform="translate(30.840625 252.363184)scale(0.1 -0.1)"
               id="g1530">
              <use
                 xlink:href="#DejaVuSans-32"
                 id="use1528" />
            </g>
          </g>
        </g>
        <g
           id="ytick_3">
          <g
             id="line2d_6">
            <g
               id="g1536">
              <use
                 xlink:href="#m58726bd346"
                 x="44.203125"
                 y="215.14043"
                 style="stroke: #000000; stroke-width: 0.8"
                 id="use1534" />
            </g>
          </g>
          <g
             id="text_7">
            <!-- 4 -->
            <g
               transform="translate(30.840625 218.939648)scale(0.1 -0.1)"
               id="g1541">
              <use
                 xlink:href="#DejaVuSans-34"
                 id="use1539" />
            </g>
          </g>
        </g>
        <g
           id="ytick_4">
          <g
             id="line2d_7">
            <g
               id="g1547">
              <use
                 xlink:href="#m58726bd346"
                 x="44.203125"
                 y="181.716895"
                 style="stroke: #000000; stroke-width: 0.8"
                 id="use1545" />
            </g>
          </g>
          <g
             id="text_8">
            <!-- 6 -->
            <g
               transform="translate(30.840625 185.516113)scale(0.1 -0.1)"
               id="g1552">
              <use
                 xlink:href="#DejaVuSans-36"
                 id="use1550" />
            </g>
          </g>
        </g>
        <g
           id="ytick_5">
          <g
             id="line2d_8">
            <g
               id="g1558">
              <use
                 xlink:href="#m58726bd346"
                 x="44.203125"
                 y="148.293359"
                 style="stroke: #000000; stroke-width: 0.8"
                 id="use1556" />
            </g>
          </g>
          <g
             id="text_9">
            <!-- 8 -->
            <g
               transform="translate(30.840625 152.092578)scale(0.1 -0.1)"
               id="g1563">
              <use
                 xlink:href="#DejaVuSans-38"
                 id="use1561" />
            </g>
          </g>
        </g>
        <g
           id="ytick_6">
          <g
             id="line2d_9">
            <g
               id="g1569">
              <use
                 xlink:href="#m58726bd346"
                 x="44.203125"
                 y="114.869824"
                 style="stroke: #000000; stroke-width: 0.8"
                 id="use1567" />
            </g>
          </g>
          <g
             id="text_10">
            <!-- 10 -->
            <g
               transform="translate(24.478125 118.669043)scale(0.1 -0.1)"
               id="g1576">
              <use
                 xlink:href="#DejaVuSans-31"
                 id="use1572" />
              <use
                 xlink:href="#DejaVuSans-30"
                 x="63.623047"
                 id="use1574" />
            </g>
          </g>
        </g>
        <g
           id="ytick_7">
          <g
             id="line2d_10">
            <g
               id="g1582">
              <use
                 xlink:href="#m58726bd346"
                 x="44.203125"
                 y="81.446289"
                 style="stroke: #000000; stroke-width: 0.8"
                 id="use1580" />
            </g>
          </g>
          <g
             id="text_11">
            <!-- 12 -->
            <g
               transform="translate(24.478125 85.245508)scale(0.1 -0.1)"
               id="g1589">
              <use
                 xlink:href="#DejaVuSans-31"
                 id="use1585" />
              <use
                 xlink:href="#DejaVuSans-32"
                 x="63.623047"
                 id="use1587" />
            </g>
          </g>
        </g>
        <g
           id="ytick_8">
          <g
             id="line2d_11">
            <g
               id="g1595">
              <use
                 xlink:href="#m58726bd346"
                 x="44.203125"
                 y="48.022754"
                 style="stroke: #000000; stroke-width: 0.8"
                 id="use1593" />
            </g>
          </g>
          <g
             id="text_12">
            <!-- 14 -->
            <g
               transform="translate(24.478125 51.821973)scale(0.1 -0.1)"
               id="g1602">
              <use
                 xlink:href="#DejaVuSans-31"
                 id="use1598" />
              <use
                 xlink:href="#DejaVuSans-34"
                 x="63.623047"
                 id="use1600" />
            </g>
          </g>
        </g>
        <g
           id="ytick_9">
          <g
             id="line2d_12">
            <g
               id="g1608">
              <use
                 xlink:href="#m58726bd346"
                 x="44.203125"
                 y="14.599219"
                 style="stroke: #000000; stroke-width: 0.8"
                 id="use1606" />
            </g>
          </g>
          <g
             id="text_13">
            <!-- 16 -->
            <g
               transform="translate(24.478125 18.398438)scale(0.1 -0.1)"
               id="g1615">
              <use
                 xlink:href="#DejaVuSans-31"
                 id="use1611" />
              <use
                 xlink:href="#DejaVuSans-36"
                 x="63.623047"
                 id="use1613" />
            </g>
          </g>
        </g>
        <g
           id="text_14">
          <!-- E[ GFlop/s ] -->
          <g
             transform="translate(18.398437 177.194141)rotate(-90)scale(0.1 -0.1)"
             id="g1652">
            <defs
               id="defs1626">
              <path
                 id="DejaVuSans-45"
                 d="M 628 4666  L 3578 4666  L 3578 4134  L 1259 4134  L 1259 2753  L 3481 2753  L 3481 2222  L 1259 2222  L 1259 531  L 3634 531  L 3634 0  L 628 0  L 628 4666  z "
                 transform="scale(0.015625)" />
              <path
                 id="DejaVuSans-5b"
                 d="M 550 4863  L 1875 4863  L 1875 4416  L 1125 4416  L 1125 -397  L 1875 -397  L 1875 -844  L 550 -844  L 550 4863  z "
                 transform="scale(0.015625)" />
              <path
                 id="DejaVuSans-47"
                 d="M 3809 666  L 3809 1919  L 2778 1919  L 2778 2438  L 4434 2438  L 4434 434  Q 4069 175 3628 42  Q 3188 -91 2688 -91  Q 1594 -91 976 548  Q 359 1188 359 2328  Q 359 3472 976 4111  Q 1594 4750 2688 4750  Q 3144 4750 3555 4637  Q 3966 4525 4313 4306  L 4313 3634  Q 3963 3931 3569 4081  Q 3175 4231 2741 4231  Q 1884 4231 1454 3753  Q 1025 3275 1025 2328  Q 1025 1384 1454 906  Q 1884 428 2741 428  Q 3075 428 3337 486  Q 3600 544 3809 666  z "
                 transform="scale(0.015625)" />
              <path
                 id="DejaVuSans-46"
                 d="M 628 4666  L 3309 4666  L 3309 4134  L 1259 4134  L 1259 2759  L 3109 2759  L 3109 2228  L 1259 2228  L 1259 0  L 628 0  L 628 4666  z "
                 transform="scale(0.015625)" />
              <path
                 id="DejaVuSans-70"
                 d="M 1159 525  L 1159 -1331  L 581 -1331  L 581 3500  L 1159 3500  L 1159 2969  Q 1341 3281 1617 3432  Q 1894 3584 2278 3584  Q 2916 3584 3314 3078  Q 3713 2572 3713 1747  Q 3713 922 3314 415  Q 2916 -91 2278 -91  Q 1894 -91 1617 61  Q 1341 213 1159 525  z M 3116 1747  Q 3116 2381 2855 2742  Q 2594 3103 2138 3103  Q 1681 3103 1420 2742  Q 1159 2381 1159 1747  Q 1159 1113 1420 752  Q 1681 391 2138 391  Q 2594 391 2855 752  Q 3116 1113 3116 1747  z "
                 transform="scale(0.015625)" />
              <path
                 id="DejaVuSans-2f"
                 d="M 1625 4666  L 2156 4666  L 531 -594  L 0 -594  L 1625 4666  z "
                 transform="scale(0.015625)" />
              <path
                 id="DejaVuSans-5d"
                 d="M 1947 4863  L 1947 -844  L 622 -844  L 622 -397  L 1369 -397  L 1369 4416  L 622 4416  L 622 4863  L 1947 4863  z "
                 transform="scale(0.015625)" />
            </defs>
            <use
               xlink:href="#DejaVuSans-45"
               id="use1628" />
            <use
               xlink:href="#DejaVuSans-5b"
               x="63.183594"
               id="use1630" />
            <use
               xlink:href="#DejaVuSans-20"
               x="102.197266"
               id="use1632" />
            <use
               xlink:href="#DejaVuSans-47"
               x="133.984375"
               id="use1634" />
            <use
               xlink:href="#DejaVuSans-46"
               x="211.474609"
               id="use1636" />
            <use
               xlink:href="#DejaVuSans-6c"
               x="268.994141"
               id="use1638" />
            <use
               xlink:href="#DejaVuSans-6f"
               x="296.777344"
               id="use1640" />
            <use
               xlink:href="#DejaVuSans-70"
               x="357.958984"
               id="use1642" />
            <use
               xlink:href="#DejaVuSans-2f"
               x="421.435547"
               id="use1644" />
            <use
               xlink:href="#DejaVuSans-73"
               x="455.126953"
               id="use1646" />
            <use
               xlink:href="#DejaVuSans-20"
               x="507.226562"
               id="use1648" />
            <use
               xlink:href="#DejaVuSans-5d"
               x="539.013672"
               id="use1650" />
          </g>
        </g>
      </g>
      <g
         id="patch_6">
        <path
           d="M 44.203125 281.9875  L 44.203125 14.599219  "
           style="fill: none; stroke: #000000; stroke-width: 0.8; stroke-linejoin: miter; stroke-linecap: square"
           id="path1656" />
      </g>
      <g
         id="patch_7">
        <path
           d="M 450 281.9875  L 450 14.599219  "
           style="fill: none; stroke: #000000; stroke-width: 0.8; stroke-linejoin: miter; stroke-linecap: square"
           id="path1659" />
      </g>
      <g
         id="patch_8">
        <path
           d="M 44.203125 281.9875  L 450 281.9875  "
           style="fill: none; stroke: #000000; stroke-width: 0.8; stroke-linejoin: miter; stroke-linecap: square"
           id="path1662" />
      </g>
      <g
         id="patch_9">
        <path
           d="M 44.203125 14.599219  L 450 14.599219  "
           style="fill: none; stroke: #000000; stroke-width: 0.8; stroke-linejoin: miter; stroke-linecap: square"
           id="path1665" />
      </g>
    </g>
  </g>
  <defs
     id="defs1673">
    <clipPath
       id="pd7992f23dd">
      <rect
         x="44.203125"
         y="14.599219"
         width="405.796875"
         height="267.388281"
         id="rect1670" />
    </clipPath>
  </defs>
</svg>
