<?xml version="1.0" encoding="utf-8" standalone="no"?>
<!DOCTYPE svg PUBLIC "-//W3C//DTD SVG 1.1//EN"
  "http://www.w3.org/Graphics/SVG/1.1/DTD/svg11.dtd">
<svg xmlns:xlink="http://www.w3.org/1999/xlink" width="460.8pt" height="345.6pt" viewBox="0 0 460.8 345.6" xmlns="http://www.w3.org/2000/svg" version="1.1">
 <metadata>
  <rdf:RDF xmlns:dc="http://purl.org/dc/elements/1.1/" xmlns:cc="http://creativecommons.org/ns#" xmlns:rdf="http://www.w3.org/1999/02/22-rdf-syntax-ns#">
   <cc:Work>
    <dc:type rdf:resource="http://purl.org/dc/dcmitype/StillImage"/>
    <dc:date>2022-04-05T23:32:47.765581</dc:date>
    <dc:format>image/svg+xml</dc:format>
    <dc:creator>
     <cc:Agent>
      <dc:title>Matplotlib v3.5.1, https://matplotlib.org/</dc:title>
     </cc:Agent>
    </dc:creator>
   </cc:Work>
  </rdf:RDF>
 </metadata>
 <defs>
  <style type="text/css">*{stroke-linejoin: round; stroke-linecap: butt}</style>
 </defs>
 <g id="figure_1">
  <g id="patch_1">
   <path d="M 0 345.6 
L 460.8 345.6 
L 460.8 0 
L 0 0 
z
" style="fill: #ffffff"/>
  </g>
  <g id="axes_1">
   <g id="patch_2">
    <path d="M 47.38125 241.533437 
L 427.789688 241.533437 
L 427.789688 14.599219 
L 47.38125 14.599219 
z
" style="fill: #ffffff"/>
   </g>
   <g id="patch_3">
    <path d="M 49.700814 241.533437 
L 54.339941 241.533437 
L 54.339941 193.845752 
L 49.700814 193.845752 
z
" clip-path="url(#pdda6642a90)" style="fill: #1f77b4"/>
   </g>
   <g id="patch_4">
    <path d="M 58.979068 241.533437 
L 63.618196 241.533437 
L 63.618196 189.586639 
L 58.979068 189.586639 
z
" clip-path="url(#pdda6642a90)" style="fill: #1f77b4"/>
   </g>
   <g id="patch_5">
    <path d="M 68.257323 241.533437 
L 72.89645 241.533437 
L 72.89645 186.137941 
L 68.257323 186.137941 
z
" clip-path="url(#pdda6642a90)" style="fill: #1f77b4"/>
   </g>
   <g id="patch_6">
    <path d="M 77.535577 241.533437 
L 82.174705 241.533437 
L 82.174705 181.99585 
L 77.535577 181.99585 
z
" clip-path="url(#pdda6642a90)" style="fill: #1f77b4"/>
   </g>
   <g id="patch_7">
    <path d="M 86.813832 241.533437 
L 91.452959 241.533437 
L 91.452959 174.746016 
L 86.813832 174.746016 
z
" clip-path="url(#pdda6642a90)" style="fill: #1f77b4"/>
   </g>
   <g id="patch_8">
    <path d="M 96.092087 241.533437 
L 100.731214 241.533437 
L 100.731214 170.793305 
L 96.092087 170.793305 
z
" clip-path="url(#pdda6642a90)" style="fill: #1f77b4"/>
   </g>
   <g id="patch_9">
    <path d="M 105.370341 241.533437 
L 110.009468 241.533437 
L 110.009468 168.245215 
L 105.370341 168.245215 
z
" clip-path="url(#pdda6642a90)" style="fill: #1f77b4"/>
   </g>
   <g id="patch_10">
    <path d="M 114.648596 241.533437 
L 119.287723 241.533437 
L 119.287723 166.470284 
L 114.648596 166.470284 
z
" clip-path="url(#pdda6642a90)" style="fill: #1f77b4"/>
   </g>
   <g id="patch_11">
    <path d="M 123.92685 241.533437 
L 128.565978 241.533437 
L 128.565978 162.818905 
L 123.92685 162.818905 
z
" clip-path="url(#pdda6642a90)" style="fill: #1f77b4"/>
   </g>
   <g id="patch_12">
    <path d="M 133.205105 241.533437 
L 137.844232 241.533437 
L 137.844232 160.224062 
L 133.205105 160.224062 
z
" clip-path="url(#pdda6642a90)" style="fill: #1f77b4"/>
   </g>
   <g id="patch_13">
    <path d="M 142.483359 241.533437 
L 147.122487 241.533437 
L 147.122487 156.264587 
L 142.483359 156.264587 
z
" clip-path="url(#pdda6642a90)" style="fill: #1f77b4"/>
   </g>
   <g id="patch_14">
    <path d="M 151.761614 241.533437 
L 156.400741 241.533437 
L 156.400741 152.916394 
L 151.761614 152.916394 
z
" clip-path="url(#pdda6642a90)" style="fill: #1f77b4"/>
   </g>
   <g id="patch_15">
    <path d="M 161.039869 241.533437 
L 165.678996 241.533437 
L 165.678996 151.25174 
L 161.039869 151.25174 
z
" clip-path="url(#pdda6642a90)" style="fill: #1f77b4"/>
   </g>
   <g id="patch_16">
    <path d="M 170.318123 241.533437 
L 174.95725 241.533437 
L 174.95725 148.527733 
L 170.318123 148.527733 
z
" clip-path="url(#pdda6642a90)" style="fill: #1f77b4"/>
   </g>
   <g id="patch_17">
    <path d="M 179.596378 241.533437 
L 184.235505 241.533437 
L 184.235505 147.145428 
L 179.596378 147.145428 
z
" clip-path="url(#pdda6642a90)" style="fill: #1f77b4"/>
   </g>
   <g id="patch_18">
    <path d="M 188.874632 241.533437 
L 193.51376 241.533437 
L 193.51376 145.627911 
L 188.874632 145.627911 
z
" clip-path="url(#pdda6642a90)" style="fill: #1f77b4"/>
   </g>
   <g id="patch_19">
    <path d="M 198.152887 241.533437 
L 202.792014 241.533437 
L 202.792014 144.673137 
L 198.152887 144.673137 
z
" clip-path="url(#pdda6642a90)" style="fill: #1f77b4"/>
   </g>
   <g id="patch_20">
    <path d="M 207.431141 241.533437 
L 212.070269 241.533437 
L 212.070269 143.196553 
L 207.431141 143.196553 
z
" clip-path="url(#pdda6642a90)" style="fill: #1f77b4"/>
   </g>
   <g id="patch_21">
    <path d="M 216.709396 241.533437 
L 221.348523 241.533437 
L 221.348523 142.374277 
L 216.709396 142.374277 
z
" clip-path="url(#pdda6642a90)" style="fill: #1f77b4"/>
   </g>
   <g id="patch_22">
    <path d="M 225.987651 241.533437 
L 230.626778 241.533437 
L 230.626778 140.809712 
L 225.987651 140.809712 
z
" clip-path="url(#pdda6642a90)" style="fill: #1f77b4"/>
   </g>
   <g id="patch_23">
    <path d="M 235.265905 241.533437 
L 239.905032 241.533437 
L 239.905032 141.128515 
L 235.265905 141.128515 
z
" clip-path="url(#pdda6642a90)" style="fill: #1f77b4"/>
   </g>
   <g id="patch_24">
    <path d="M 244.54416 241.533437 
L 249.183287 241.533437 
L 249.183287 134.166366 
L 244.54416 134.166366 
z
" clip-path="url(#pdda6642a90)" style="fill: #1f77b4"/>
   </g>
   <g id="patch_25">
    <path d="M 253.822414 241.533437 
L 258.461542 241.533437 
L 258.461542 113.252803 
L 253.822414 113.252803 
z
" clip-path="url(#pdda6642a90)" style="fill: #1f77b4"/>
   </g>
   <g id="patch_26">
    <path d="M 263.100669 241.533437 
L 267.739796 241.533437 
L 267.739796 93.727679 
L 263.100669 93.727679 
z
" clip-path="url(#pdda6642a90)" style="fill: #1f77b4"/>
   </g>
   <g id="patch_27">
    <path d="M 272.378923 241.533437 
L 277.018051 241.533437 
L 277.018051 76.92129 
L 272.378923 76.92129 
z
" clip-path="url(#pdda6642a90)" style="fill: #1f77b4"/>
   </g>
   <g id="patch_28">
    <path d="M 281.657178 241.533437 
L 286.296305 241.533437 
L 286.296305 62.947492 
L 281.657178 62.947492 
z
" clip-path="url(#pdda6642a90)" style="fill: #1f77b4"/>
   </g>
   <g id="patch_29">
    <path d="M 290.935433 241.533437 
L 295.57456 241.533437 
L 295.57456 46.073464 
L 290.935433 46.073464 
z
" clip-path="url(#pdda6642a90)" style="fill: #1f77b4"/>
   </g>
   <g id="patch_30">
    <path d="M 300.213687 241.533437 
L 304.852814 241.533437 
L 304.852814 36.879768 
L 300.213687 36.879768 
z
" clip-path="url(#pdda6642a90)" style="fill: #1f77b4"/>
   </g>
   <g id="patch_31">
    <path d="M 309.491942 241.533437 
L 314.131069 241.533437 
L 314.131069 37.454323 
L 309.491942 37.454323 
z
" clip-path="url(#pdda6642a90)" style="fill: #1f77b4"/>
   </g>
   <g id="patch_32">
    <path d="M 318.770196 241.533437 
L 323.409324 241.533437 
L 323.409324 41.186019 
L 318.770196 41.186019 
z
" clip-path="url(#pdda6642a90)" style="fill: #1f77b4"/>
   </g>
   <g id="patch_33">
    <path d="M 328.048451 241.533437 
L 332.687578 241.533437 
L 332.687578 45.796658 
L 328.048451 45.796658 
z
" clip-path="url(#pdda6642a90)" style="fill: #1f77b4"/>
   </g>
   <g id="patch_34">
    <path d="M 337.326705 241.533437 
L 341.965833 241.533437 
L 341.965833 53.842613 
L 337.326705 53.842613 
z
" clip-path="url(#pdda6642a90)" style="fill: #1f77b4"/>
   </g>
   <g id="patch_35">
    <path d="M 346.60496 241.533437 
L 351.244087 241.533437 
L 351.244087 65.24956 
L 346.60496 65.24956 
z
" clip-path="url(#pdda6642a90)" style="fill: #1f77b4"/>
   </g>
   <g id="patch_36">
    <path d="M 355.883215 241.533437 
L 360.522342 241.533437 
L 360.522342 80.462872 
L 355.883215 80.462872 
z
" clip-path="url(#pdda6642a90)" style="fill: #1f77b4"/>
   </g>
   <g id="patch_37">
    <path d="M 365.161469 241.533437 
L 369.800596 241.533437 
L 369.800596 95.818109 
L 365.161469 95.818109 
z
" clip-path="url(#pdda6642a90)" style="fill: #1f77b4"/>
   </g>
   <g id="patch_38">
    <path d="M 374.439724 241.533437 
L 379.078851 241.533437 
L 379.078851 115.047917 
L 374.439724 115.047917 
z
" clip-path="url(#pdda6642a90)" style="fill: #1f77b4"/>
   </g>
   <g id="patch_39">
    <path d="M 383.717978 241.533437 
L 388.357106 241.533437 
L 388.357106 136.818039 
L 383.717978 136.818039 
z
" clip-path="url(#pdda6642a90)" style="fill: #1f77b4"/>
   </g>
   <g id="patch_40">
    <path d="M 392.996233 241.533437 
L 397.63536 241.533437 
L 397.63536 158.375859 
L 392.996233 158.375859 
z
" clip-path="url(#pdda6642a90)" style="fill: #1f77b4"/>
   </g>
   <g id="patch_41">
    <path d="M 402.274487 241.533437 
L 406.913615 241.533437 
L 406.913615 182.533835 
L 402.274487 182.533835 
z
" clip-path="url(#pdda6642a90)" style="fill: #1f77b4"/>
   </g>
   <g id="patch_42">
    <path d="M 411.552742 241.533437 
L 416.191869 241.533437 
L 416.191869 210.226346 
L 411.552742 210.226346 
z
" clip-path="url(#pdda6642a90)" style="fill: #1f77b4"/>
   </g>
   <g id="patch_43">
    <path d="M 420.830997 241.533437 
L 425.470124 241.533437 
L 425.470124 185.977716 
L 420.830997 185.977716 
z
" clip-path="url(#pdda6642a90)" style="fill: #1f77b4"/>
   </g>
   <g id="matplotlib.axis_1">
    <g id="xtick_1">
     <g id="line2d_1">
      <defs>
       <path id="mdfe82b2f7e" d="M 0 0 
L 0 3.5 
" style="stroke: #000000; stroke-width: 0.8"/>
      </defs>
      <g>
       <use xlink:href="#mdfe82b2f7e" x="52.020377" y="241.533437" style="stroke: #000000; stroke-width: 0.8"/>
      </g>
     </g>
     <g id="text_1">
      <!-- 40 -->
      <g transform="translate(54.779752 261.258438)rotate(-90)scale(0.1 -0.1)">
       <defs>
        <path id="DejaVuSans-34" d="M 2419 4116 
L 825 1625 
L 2419 1625 
L 2419 4116 
z
M 2253 4666 
L 3047 4666 
L 3047 1625 
L 3713 1625 
L 3713 1100 
L 3047 1100 
L 3047 0 
L 2419 0 
L 2419 1100 
L 313 1100 
L 313 1709 
L 2253 4666 
z
" transform="scale(0.015625)"/>
        <path id="DejaVuSans-30" d="M 2034 4250 
Q 1547 4250 1301 3770 
Q 1056 3291 1056 2328 
Q 1056 1369 1301 889 
Q 1547 409 2034 409 
Q 2525 409 2770 889 
Q 3016 1369 3016 2328 
Q 3016 3291 2770 3770 
Q 2525 4250 2034 4250 
z
M 2034 4750 
Q 2819 4750 3233 4129 
Q 3647 3509 3647 2328 
Q 3647 1150 3233 529 
Q 2819 -91 2034 -91 
Q 1250 -91 836 529 
Q 422 1150 422 2328 
Q 422 3509 836 4129 
Q 1250 4750 2034 4750 
z
" transform="scale(0.015625)"/>
       </defs>
       <use xlink:href="#DejaVuSans-34"/>
       <use xlink:href="#DejaVuSans-30" x="63.623047"/>
      </g>
     </g>
    </g>
    <g id="xtick_2">
     <g id="line2d_2">
      <g>
       <use xlink:href="#mdfe82b2f7e" x="61.298632" y="241.533437" style="stroke: #000000; stroke-width: 0.8"/>
      </g>
     </g>
     <g id="text_2">
      <!-- 39 -->
      <g transform="translate(64.058007 261.258438)rotate(-90)scale(0.1 -0.1)">
       <defs>
        <path id="DejaVuSans-33" d="M 2597 2516 
Q 3050 2419 3304 2112 
Q 3559 1806 3559 1356 
Q 3559 666 3084 287 
Q 2609 -91 1734 -91 
Q 1441 -91 1130 -33 
Q 819 25 488 141 
L 488 750 
Q 750 597 1062 519 
Q 1375 441 1716 441 
Q 2309 441 2620 675 
Q 2931 909 2931 1356 
Q 2931 1769 2642 2001 
Q 2353 2234 1838 2234 
L 1294 2234 
L 1294 2753 
L 1863 2753 
Q 2328 2753 2575 2939 
Q 2822 3125 2822 3475 
Q 2822 3834 2567 4026 
Q 2313 4219 1838 4219 
Q 1578 4219 1281 4162 
Q 984 4106 628 3988 
L 628 4550 
Q 988 4650 1302 4700 
Q 1616 4750 1894 4750 
Q 2613 4750 3031 4423 
Q 3450 4097 3450 3541 
Q 3450 3153 3228 2886 
Q 3006 2619 2597 2516 
z
" transform="scale(0.015625)"/>
        <path id="DejaVuSans-39" d="M 703 97 
L 703 672 
Q 941 559 1184 500 
Q 1428 441 1663 441 
Q 2288 441 2617 861 
Q 2947 1281 2994 2138 
Q 2813 1869 2534 1725 
Q 2256 1581 1919 1581 
Q 1219 1581 811 2004 
Q 403 2428 403 3163 
Q 403 3881 828 4315 
Q 1253 4750 1959 4750 
Q 2769 4750 3195 4129 
Q 3622 3509 3622 2328 
Q 3622 1225 3098 567 
Q 2575 -91 1691 -91 
Q 1453 -91 1209 -44 
Q 966 3 703 97 
z
M 1959 2075 
Q 2384 2075 2632 2365 
Q 2881 2656 2881 3163 
Q 2881 3666 2632 3958 
Q 2384 4250 1959 4250 
Q 1534 4250 1286 3958 
Q 1038 3666 1038 3163 
Q 1038 2656 1286 2365 
Q 1534 2075 1959 2075 
z
" transform="scale(0.015625)"/>
       </defs>
       <use xlink:href="#DejaVuSans-33"/>
       <use xlink:href="#DejaVuSans-39" x="63.623047"/>
      </g>
     </g>
    </g>
    <g id="xtick_3">
     <g id="line2d_3">
      <g>
       <use xlink:href="#mdfe82b2f7e" x="70.576886" y="241.533437" style="stroke: #000000; stroke-width: 0.8"/>
      </g>
     </g>
     <g id="text_3">
      <!-- 38 -->
      <g transform="translate(73.336261 261.258438)rotate(-90)scale(0.1 -0.1)">
       <defs>
        <path id="DejaVuSans-38" d="M 2034 2216 
Q 1584 2216 1326 1975 
Q 1069 1734 1069 1313 
Q 1069 891 1326 650 
Q 1584 409 2034 409 
Q 2484 409 2743 651 
Q 3003 894 3003 1313 
Q 3003 1734 2745 1975 
Q 2488 2216 2034 2216 
z
M 1403 2484 
Q 997 2584 770 2862 
Q 544 3141 544 3541 
Q 544 4100 942 4425 
Q 1341 4750 2034 4750 
Q 2731 4750 3128 4425 
Q 3525 4100 3525 3541 
Q 3525 3141 3298 2862 
Q 3072 2584 2669 2484 
Q 3125 2378 3379 2068 
Q 3634 1759 3634 1313 
Q 3634 634 3220 271 
Q 2806 -91 2034 -91 
Q 1263 -91 848 271 
Q 434 634 434 1313 
Q 434 1759 690 2068 
Q 947 2378 1403 2484 
z
M 1172 3481 
Q 1172 3119 1398 2916 
Q 1625 2713 2034 2713 
Q 2441 2713 2670 2916 
Q 2900 3119 2900 3481 
Q 2900 3844 2670 4047 
Q 2441 4250 2034 4250 
Q 1625 4250 1398 4047 
Q 1172 3844 1172 3481 
z
" transform="scale(0.015625)"/>
       </defs>
       <use xlink:href="#DejaVuSans-33"/>
       <use xlink:href="#DejaVuSans-38" x="63.623047"/>
      </g>
     </g>
    </g>
    <g id="xtick_4">
     <g id="line2d_4">
      <g>
       <use xlink:href="#mdfe82b2f7e" x="79.855141" y="241.533437" style="stroke: #000000; stroke-width: 0.8"/>
      </g>
     </g>
     <g id="text_4">
      <!-- 37 -->
      <g transform="translate(82.614516 261.258438)rotate(-90)scale(0.1 -0.1)">
       <defs>
        <path id="DejaVuSans-37" d="M 525 4666 
L 3525 4666 
L 3525 4397 
L 1831 0 
L 1172 0 
L 2766 4134 
L 525 4134 
L 525 4666 
z
" transform="scale(0.015625)"/>
       </defs>
       <use xlink:href="#DejaVuSans-33"/>
       <use xlink:href="#DejaVuSans-37" x="63.623047"/>
      </g>
     </g>
    </g>
    <g id="xtick_5">
     <g id="line2d_5">
      <g>
       <use xlink:href="#mdfe82b2f7e" x="89.133396" y="241.533437" style="stroke: #000000; stroke-width: 0.8"/>
      </g>
     </g>
     <g id="text_5">
      <!-- 36 -->
      <g transform="translate(91.892771 261.258438)rotate(-90)scale(0.1 -0.1)">
       <defs>
        <path id="DejaVuSans-36" d="M 2113 2584 
Q 1688 2584 1439 2293 
Q 1191 2003 1191 1497 
Q 1191 994 1439 701 
Q 1688 409 2113 409 
Q 2538 409 2786 701 
Q 3034 994 3034 1497 
Q 3034 2003 2786 2293 
Q 2538 2584 2113 2584 
z
M 3366 4563 
L 3366 3988 
Q 3128 4100 2886 4159 
Q 2644 4219 2406 4219 
Q 1781 4219 1451 3797 
Q 1122 3375 1075 2522 
Q 1259 2794 1537 2939 
Q 1816 3084 2150 3084 
Q 2853 3084 3261 2657 
Q 3669 2231 3669 1497 
Q 3669 778 3244 343 
Q 2819 -91 2113 -91 
Q 1303 -91 875 529 
Q 447 1150 447 2328 
Q 447 3434 972 4092 
Q 1497 4750 2381 4750 
Q 2619 4750 2861 4703 
Q 3103 4656 3366 4563 
z
" transform="scale(0.015625)"/>
       </defs>
       <use xlink:href="#DejaVuSans-33"/>
       <use xlink:href="#DejaVuSans-36" x="63.623047"/>
      </g>
     </g>
    </g>
    <g id="xtick_6">
     <g id="line2d_6">
      <g>
       <use xlink:href="#mdfe82b2f7e" x="98.41165" y="241.533437" style="stroke: #000000; stroke-width: 0.8"/>
      </g>
     </g>
     <g id="text_6">
      <!-- 35 -->
      <g transform="translate(101.171025 261.258438)rotate(-90)scale(0.1 -0.1)">
       <defs>
        <path id="DejaVuSans-35" d="M 691 4666 
L 3169 4666 
L 3169 4134 
L 1269 4134 
L 1269 2991 
Q 1406 3038 1543 3061 
Q 1681 3084 1819 3084 
Q 2600 3084 3056 2656 
Q 3513 2228 3513 1497 
Q 3513 744 3044 326 
Q 2575 -91 1722 -91 
Q 1428 -91 1123 -41 
Q 819 9 494 109 
L 494 744 
Q 775 591 1075 516 
Q 1375 441 1709 441 
Q 2250 441 2565 725 
Q 2881 1009 2881 1497 
Q 2881 1984 2565 2268 
Q 2250 2553 1709 2553 
Q 1456 2553 1204 2497 
Q 953 2441 691 2322 
L 691 4666 
z
" transform="scale(0.015625)"/>
       </defs>
       <use xlink:href="#DejaVuSans-33"/>
       <use xlink:href="#DejaVuSans-35" x="63.623047"/>
      </g>
     </g>
    </g>
    <g id="xtick_7">
     <g id="line2d_7">
      <g>
       <use xlink:href="#mdfe82b2f7e" x="107.689905" y="241.533437" style="stroke: #000000; stroke-width: 0.8"/>
      </g>
     </g>
     <g id="text_7">
      <!-- 34 -->
      <g transform="translate(110.44928 261.258438)rotate(-90)scale(0.1 -0.1)">
       <use xlink:href="#DejaVuSans-33"/>
       <use xlink:href="#DejaVuSans-34" x="63.623047"/>
      </g>
     </g>
    </g>
    <g id="xtick_8">
     <g id="line2d_8">
      <g>
       <use xlink:href="#mdfe82b2f7e" x="116.968159" y="241.533437" style="stroke: #000000; stroke-width: 0.8"/>
      </g>
     </g>
     <g id="text_8">
      <!-- 33 -->
      <g transform="translate(119.727534 261.258438)rotate(-90)scale(0.1 -0.1)">
       <use xlink:href="#DejaVuSans-33"/>
       <use xlink:href="#DejaVuSans-33" x="63.623047"/>
      </g>
     </g>
    </g>
    <g id="xtick_9">
     <g id="line2d_9">
      <g>
       <use xlink:href="#mdfe82b2f7e" x="126.246414" y="241.533437" style="stroke: #000000; stroke-width: 0.8"/>
      </g>
     </g>
     <g id="text_9">
      <!-- 32 -->
      <g transform="translate(129.005789 261.258438)rotate(-90)scale(0.1 -0.1)">
       <defs>
        <path id="DejaVuSans-32" d="M 1228 531 
L 3431 531 
L 3431 0 
L 469 0 
L 469 531 
Q 828 903 1448 1529 
Q 2069 2156 2228 2338 
Q 2531 2678 2651 2914 
Q 2772 3150 2772 3378 
Q 2772 3750 2511 3984 
Q 2250 4219 1831 4219 
Q 1534 4219 1204 4116 
Q 875 4013 500 3803 
L 500 4441 
Q 881 4594 1212 4672 
Q 1544 4750 1819 4750 
Q 2544 4750 2975 4387 
Q 3406 4025 3406 3419 
Q 3406 3131 3298 2873 
Q 3191 2616 2906 2266 
Q 2828 2175 2409 1742 
Q 1991 1309 1228 531 
z
" transform="scale(0.015625)"/>
       </defs>
       <use xlink:href="#DejaVuSans-33"/>
       <use xlink:href="#DejaVuSans-32" x="63.623047"/>
      </g>
     </g>
    </g>
    <g id="xtick_10">
     <g id="line2d_10">
      <g>
       <use xlink:href="#mdfe82b2f7e" x="135.524668" y="241.533437" style="stroke: #000000; stroke-width: 0.8"/>
      </g>
     </g>
     <g id="text_10">
      <!-- 31 -->
      <g transform="translate(138.284043 261.258438)rotate(-90)scale(0.1 -0.1)">
       <defs>
        <path id="DejaVuSans-31" d="M 794 531 
L 1825 531 
L 1825 4091 
L 703 3866 
L 703 4441 
L 1819 4666 
L 2450 4666 
L 2450 531 
L 3481 531 
L 3481 0 
L 794 0 
L 794 531 
z
" transform="scale(0.015625)"/>
       </defs>
       <use xlink:href="#DejaVuSans-33"/>
       <use xlink:href="#DejaVuSans-31" x="63.623047"/>
      </g>
     </g>
    </g>
    <g id="xtick_11">
     <g id="line2d_11">
      <g>
       <use xlink:href="#mdfe82b2f7e" x="144.802923" y="241.533437" style="stroke: #000000; stroke-width: 0.8"/>
      </g>
     </g>
     <g id="text_11">
      <!-- 30 -->
      <g transform="translate(147.562298 261.258438)rotate(-90)scale(0.1 -0.1)">
       <use xlink:href="#DejaVuSans-33"/>
       <use xlink:href="#DejaVuSans-30" x="63.623047"/>
      </g>
     </g>
    </g>
    <g id="xtick_12">
     <g id="line2d_12">
      <g>
       <use xlink:href="#mdfe82b2f7e" x="154.081178" y="241.533437" style="stroke: #000000; stroke-width: 0.8"/>
      </g>
     </g>
     <g id="text_12">
      <!-- 29 -->
      <g transform="translate(156.840553 261.258438)rotate(-90)scale(0.1 -0.1)">
       <use xlink:href="#DejaVuSans-32"/>
       <use xlink:href="#DejaVuSans-39" x="63.623047"/>
      </g>
     </g>
    </g>
    <g id="xtick_13">
     <g id="line2d_13">
      <g>
       <use xlink:href="#mdfe82b2f7e" x="163.359432" y="241.533437" style="stroke: #000000; stroke-width: 0.8"/>
      </g>
     </g>
     <g id="text_13">
      <!-- 28 -->
      <g transform="translate(166.118807 261.258438)rotate(-90)scale(0.1 -0.1)">
       <use xlink:href="#DejaVuSans-32"/>
       <use xlink:href="#DejaVuSans-38" x="63.623047"/>
      </g>
     </g>
    </g>
    <g id="xtick_14">
     <g id="line2d_14">
      <g>
       <use xlink:href="#mdfe82b2f7e" x="172.637687" y="241.533437" style="stroke: #000000; stroke-width: 0.8"/>
      </g>
     </g>
     <g id="text_14">
      <!-- 27 -->
      <g transform="translate(175.397062 261.258438)rotate(-90)scale(0.1 -0.1)">
       <use xlink:href="#DejaVuSans-32"/>
       <use xlink:href="#DejaVuSans-37" x="63.623047"/>
      </g>
     </g>
    </g>
    <g id="xtick_15">
     <g id="line2d_15">
      <g>
       <use xlink:href="#mdfe82b2f7e" x="181.915941" y="241.533437" style="stroke: #000000; stroke-width: 0.8"/>
      </g>
     </g>
     <g id="text_15">
      <!-- 26 -->
      <g transform="translate(184.675316 261.258438)rotate(-90)scale(0.1 -0.1)">
       <use xlink:href="#DejaVuSans-32"/>
       <use xlink:href="#DejaVuSans-36" x="63.623047"/>
      </g>
     </g>
    </g>
    <g id="xtick_16">
     <g id="line2d_16">
      <g>
       <use xlink:href="#mdfe82b2f7e" x="191.194196" y="241.533437" style="stroke: #000000; stroke-width: 0.8"/>
      </g>
     </g>
     <g id="text_16">
      <!-- 25 -->
      <g transform="translate(193.953571 261.258438)rotate(-90)scale(0.1 -0.1)">
       <use xlink:href="#DejaVuSans-32"/>
       <use xlink:href="#DejaVuSans-35" x="63.623047"/>
      </g>
     </g>
    </g>
    <g id="xtick_17">
     <g id="line2d_17">
      <g>
       <use xlink:href="#mdfe82b2f7e" x="200.47245" y="241.533437" style="stroke: #000000; stroke-width: 0.8"/>
      </g>
     </g>
     <g id="text_17">
      <!-- 24 -->
      <g transform="translate(203.231825 261.258438)rotate(-90)scale(0.1 -0.1)">
       <use xlink:href="#DejaVuSans-32"/>
       <use xlink:href="#DejaVuSans-34" x="63.623047"/>
      </g>
     </g>
    </g>
    <g id="xtick_18">
     <g id="line2d_18">
      <g>
       <use xlink:href="#mdfe82b2f7e" x="209.750705" y="241.533437" style="stroke: #000000; stroke-width: 0.8"/>
      </g>
     </g>
     <g id="text_18">
      <!-- 23 -->
      <g transform="translate(212.51008 261.258438)rotate(-90)scale(0.1 -0.1)">
       <use xlink:href="#DejaVuSans-32"/>
       <use xlink:href="#DejaVuSans-33" x="63.623047"/>
      </g>
     </g>
    </g>
    <g id="xtick_19">
     <g id="line2d_19">
      <g>
       <use xlink:href="#mdfe82b2f7e" x="219.02896" y="241.533437" style="stroke: #000000; stroke-width: 0.8"/>
      </g>
     </g>
     <g id="text_19">
      <!-- 22 -->
      <g transform="translate(221.788335 261.258438)rotate(-90)scale(0.1 -0.1)">
       <use xlink:href="#DejaVuSans-32"/>
       <use xlink:href="#DejaVuSans-32" x="63.623047"/>
      </g>
     </g>
    </g>
    <g id="xtick_20">
     <g id="line2d_20">
      <g>
       <use xlink:href="#mdfe82b2f7e" x="228.307214" y="241.533437" style="stroke: #000000; stroke-width: 0.8"/>
      </g>
     </g>
     <g id="text_20">
      <!-- 21 -->
      <g transform="translate(231.066589 261.258438)rotate(-90)scale(0.1 -0.1)">
       <use xlink:href="#DejaVuSans-32"/>
       <use xlink:href="#DejaVuSans-31" x="63.623047"/>
      </g>
     </g>
    </g>
    <g id="xtick_21">
     <g id="line2d_21">
      <g>
       <use xlink:href="#mdfe82b2f7e" x="237.585469" y="241.533437" style="stroke: #000000; stroke-width: 0.8"/>
      </g>
     </g>
     <g id="text_21">
      <!-- 20 -->
      <g transform="translate(240.344844 261.258438)rotate(-90)scale(0.1 -0.1)">
       <use xlink:href="#DejaVuSans-32"/>
       <use xlink:href="#DejaVuSans-30" x="63.623047"/>
      </g>
     </g>
    </g>
    <g id="xtick_22">
     <g id="line2d_22">
      <g>
       <use xlink:href="#mdfe82b2f7e" x="246.863723" y="241.533437" style="stroke: #000000; stroke-width: 0.8"/>
      </g>
     </g>
     <g id="text_22">
      <!-- 19 -->
      <g transform="translate(249.623098 261.258438)rotate(-90)scale(0.1 -0.1)">
       <use xlink:href="#DejaVuSans-31"/>
       <use xlink:href="#DejaVuSans-39" x="63.623047"/>
      </g>
     </g>
    </g>
    <g id="xtick_23">
     <g id="line2d_23">
      <g>
       <use xlink:href="#mdfe82b2f7e" x="256.141978" y="241.533437" style="stroke: #000000; stroke-width: 0.8"/>
      </g>
     </g>
     <g id="text_23">
      <!-- 18 -->
      <g transform="translate(258.901353 261.258438)rotate(-90)scale(0.1 -0.1)">
       <use xlink:href="#DejaVuSans-31"/>
       <use xlink:href="#DejaVuSans-38" x="63.623047"/>
      </g>
     </g>
    </g>
    <g id="xtick_24">
     <g id="line2d_24">
      <g>
       <use xlink:href="#mdfe82b2f7e" x="265.420232" y="241.533437" style="stroke: #000000; stroke-width: 0.8"/>
      </g>
     </g>
     <g id="text_24">
      <!-- 17 -->
      <g transform="translate(268.179607 261.258438)rotate(-90)scale(0.1 -0.1)">
       <use xlink:href="#DejaVuSans-31"/>
       <use xlink:href="#DejaVuSans-37" x="63.623047"/>
      </g>
     </g>
    </g>
    <g id="xtick_25">
     <g id="line2d_25">
      <g>
       <use xlink:href="#mdfe82b2f7e" x="274.698487" y="241.533437" style="stroke: #000000; stroke-width: 0.8"/>
      </g>
     </g>
     <g id="text_25">
      <!-- 16 -->
      <g transform="translate(277.457862 261.258438)rotate(-90)scale(0.1 -0.1)">
       <use xlink:href="#DejaVuSans-31"/>
       <use xlink:href="#DejaVuSans-36" x="63.623047"/>
      </g>
     </g>
    </g>
    <g id="xtick_26">
     <g id="line2d_26">
      <g>
       <use xlink:href="#mdfe82b2f7e" x="283.976742" y="241.533437" style="stroke: #000000; stroke-width: 0.8"/>
      </g>
     </g>
     <g id="text_26">
      <!-- 15 -->
      <g transform="translate(286.736117 261.258438)rotate(-90)scale(0.1 -0.1)">
       <use xlink:href="#DejaVuSans-31"/>
       <use xlink:href="#DejaVuSans-35" x="63.623047"/>
      </g>
     </g>
    </g>
    <g id="xtick_27">
     <g id="line2d_27">
      <g>
       <use xlink:href="#mdfe82b2f7e" x="293.254996" y="241.533437" style="stroke: #000000; stroke-width: 0.8"/>
      </g>
     </g>
     <g id="text_27">
      <!-- 14 -->
      <g transform="translate(296.014371 261.258438)rotate(-90)scale(0.1 -0.1)">
       <use xlink:href="#DejaVuSans-31"/>
       <use xlink:href="#DejaVuSans-34" x="63.623047"/>
      </g>
     </g>
    </g>
    <g id="xtick_28">
     <g id="line2d_28">
      <g>
       <use xlink:href="#mdfe82b2f7e" x="302.533251" y="241.533437" style="stroke: #000000; stroke-width: 0.8"/>
      </g>
     </g>
     <g id="text_28">
      <!-- 13 -->
      <g transform="translate(305.292626 261.258438)rotate(-90)scale(0.1 -0.1)">
       <use xlink:href="#DejaVuSans-31"/>
       <use xlink:href="#DejaVuSans-33" x="63.623047"/>
      </g>
     </g>
    </g>
    <g id="xtick_29">
     <g id="line2d_29">
      <g>
       <use xlink:href="#mdfe82b2f7e" x="311.811505" y="241.533437" style="stroke: #000000; stroke-width: 0.8"/>
      </g>
     </g>
     <g id="text_29">
      <!-- 12 -->
      <g transform="translate(314.57088 261.258438)rotate(-90)scale(0.1 -0.1)">
       <use xlink:href="#DejaVuSans-31"/>
       <use xlink:href="#DejaVuSans-32" x="63.623047"/>
      </g>
     </g>
    </g>
    <g id="xtick_30">
     <g id="line2d_30">
      <g>
       <use xlink:href="#mdfe82b2f7e" x="321.08976" y="241.533437" style="stroke: #000000; stroke-width: 0.8"/>
      </g>
     </g>
     <g id="text_30">
      <!-- 11 -->
      <g transform="translate(323.849135 261.258438)rotate(-90)scale(0.1 -0.1)">
       <use xlink:href="#DejaVuSans-31"/>
       <use xlink:href="#DejaVuSans-31" x="63.623047"/>
      </g>
     </g>
    </g>
    <g id="xtick_31">
     <g id="line2d_31">
      <g>
       <use xlink:href="#mdfe82b2f7e" x="330.368014" y="241.533437" style="stroke: #000000; stroke-width: 0.8"/>
      </g>
     </g>
     <g id="text_31">
      <!-- 10 -->
      <g transform="translate(333.127389 261.258438)rotate(-90)scale(0.1 -0.1)">
       <use xlink:href="#DejaVuSans-31"/>
       <use xlink:href="#DejaVuSans-30" x="63.623047"/>
      </g>
     </g>
    </g>
    <g id="xtick_32">
     <g id="line2d_32">
      <g>
       <use xlink:href="#mdfe82b2f7e" x="339.646269" y="241.533437" style="stroke: #000000; stroke-width: 0.8"/>
      </g>
     </g>
     <g id="text_32">
      <!-- 9 -->
      <g transform="translate(342.405644 254.895938)rotate(-90)scale(0.1 -0.1)">
       <use xlink:href="#DejaVuSans-39"/>
      </g>
     </g>
    </g>
    <g id="xtick_33">
     <g id="line2d_33">
      <g>
       <use xlink:href="#mdfe82b2f7e" x="348.924524" y="241.533437" style="stroke: #000000; stroke-width: 0.8"/>
      </g>
     </g>
     <g id="text_33">
      <!-- 8 -->
      <g transform="translate(351.683899 254.895938)rotate(-90)scale(0.1 -0.1)">
       <use xlink:href="#DejaVuSans-38"/>
      </g>
     </g>
    </g>
    <g id="xtick_34">
     <g id="line2d_34">
      <g>
       <use xlink:href="#mdfe82b2f7e" x="358.202778" y="241.533437" style="stroke: #000000; stroke-width: 0.8"/>
      </g>
     </g>
     <g id="text_34">
      <!-- 7 -->
      <g transform="translate(360.962153 254.895938)rotate(-90)scale(0.1 -0.1)">
       <use xlink:href="#DejaVuSans-37"/>
      </g>
     </g>
    </g>
    <g id="xtick_35">
     <g id="line2d_35">
      <g>
       <use xlink:href="#mdfe82b2f7e" x="367.481033" y="241.533437" style="stroke: #000000; stroke-width: 0.8"/>
      </g>
     </g>
     <g id="text_35">
      <!-- 6 -->
      <g transform="translate(370.240408 254.895938)rotate(-90)scale(0.1 -0.1)">
       <use xlink:href="#DejaVuSans-36"/>
      </g>
     </g>
    </g>
    <g id="xtick_36">
     <g id="line2d_36">
      <g>
       <use xlink:href="#mdfe82b2f7e" x="376.759287" y="241.533437" style="stroke: #000000; stroke-width: 0.8"/>
      </g>
     </g>
     <g id="text_36">
      <!-- 5 -->
      <g transform="translate(379.518662 254.895938)rotate(-90)scale(0.1 -0.1)">
       <use xlink:href="#DejaVuSans-35"/>
      </g>
     </g>
    </g>
    <g id="xtick_37">
     <g id="line2d_37">
      <g>
       <use xlink:href="#mdfe82b2f7e" x="386.037542" y="241.533437" style="stroke: #000000; stroke-width: 0.8"/>
      </g>
     </g>
     <g id="text_37">
      <!-- 4 -->
      <g transform="translate(388.796917 254.895938)rotate(-90)scale(0.1 -0.1)">
       <use xlink:href="#DejaVuSans-34"/>
      </g>
     </g>
    </g>
    <g id="xtick_38">
     <g id="line2d_38">
      <g>
       <use xlink:href="#mdfe82b2f7e" x="395.315796" y="241.533437" style="stroke: #000000; stroke-width: 0.8"/>
      </g>
     </g>
     <g id="text_38">
      <!-- 3 -->
      <g transform="translate(398.075171 254.895938)rotate(-90)scale(0.1 -0.1)">
       <use xlink:href="#DejaVuSans-33"/>
      </g>
     </g>
    </g>
    <g id="xtick_39">
     <g id="line2d_39">
      <g>
       <use xlink:href="#mdfe82b2f7e" x="404.594051" y="241.533437" style="stroke: #000000; stroke-width: 0.8"/>
      </g>
     </g>
     <g id="text_39">
      <!-- 2 -->
      <g transform="translate(407.353426 254.895938)rotate(-90)scale(0.1 -0.1)">
       <use xlink:href="#DejaVuSans-32"/>
      </g>
     </g>
    </g>
    <g id="xtick_40">
     <g id="line2d_40">
      <g>
       <use xlink:href="#mdfe82b2f7e" x="413.872306" y="241.533437" style="stroke: #000000; stroke-width: 0.8"/>
      </g>
     </g>
     <g id="text_40">
      <!-- 1 -->
      <g transform="translate(416.631681 254.895938)rotate(-90)scale(0.1 -0.1)">
       <use xlink:href="#DejaVuSans-31"/>
      </g>
     </g>
    </g>
    <g id="xtick_41">
     <g id="line2d_41">
      <g>
       <use xlink:href="#mdfe82b2f7e" x="423.15056" y="241.533437" style="stroke: #000000; stroke-width: 0.8"/>
      </g>
     </g>
     <g id="text_41">
      <!-- serialGFlops -->
      <g transform="translate(425.909935 309.645938)rotate(-90)scale(0.1 -0.1)">
       <defs>
        <path id="DejaVuSans-73" d="M 2834 3397 
L 2834 2853 
Q 2591 2978 2328 3040 
Q 2066 3103 1784 3103 
Q 1356 3103 1142 2972 
Q 928 2841 928 2578 
Q 928 2378 1081 2264 
Q 1234 2150 1697 2047 
L 1894 2003 
Q 2506 1872 2764 1633 
Q 3022 1394 3022 966 
Q 3022 478 2636 193 
Q 2250 -91 1575 -91 
Q 1294 -91 989 -36 
Q 684 19 347 128 
L 347 722 
Q 666 556 975 473 
Q 1284 391 1588 391 
Q 1994 391 2212 530 
Q 2431 669 2431 922 
Q 2431 1156 2273 1281 
Q 2116 1406 1581 1522 
L 1381 1569 
Q 847 1681 609 1914 
Q 372 2147 372 2553 
Q 372 3047 722 3315 
Q 1072 3584 1716 3584 
Q 2034 3584 2315 3537 
Q 2597 3491 2834 3397 
z
" transform="scale(0.015625)"/>
        <path id="DejaVuSans-65" d="M 3597 1894 
L 3597 1613 
L 953 1613 
Q 991 1019 1311 708 
Q 1631 397 2203 397 
Q 2534 397 2845 478 
Q 3156 559 3463 722 
L 3463 178 
Q 3153 47 2828 -22 
Q 2503 -91 2169 -91 
Q 1331 -91 842 396 
Q 353 884 353 1716 
Q 353 2575 817 3079 
Q 1281 3584 2069 3584 
Q 2775 3584 3186 3129 
Q 3597 2675 3597 1894 
z
M 3022 2063 
Q 3016 2534 2758 2815 
Q 2500 3097 2075 3097 
Q 1594 3097 1305 2825 
Q 1016 2553 972 2059 
L 3022 2063 
z
" transform="scale(0.015625)"/>
        <path id="DejaVuSans-72" d="M 2631 2963 
Q 2534 3019 2420 3045 
Q 2306 3072 2169 3072 
Q 1681 3072 1420 2755 
Q 1159 2438 1159 1844 
L 1159 0 
L 581 0 
L 581 3500 
L 1159 3500 
L 1159 2956 
Q 1341 3275 1631 3429 
Q 1922 3584 2338 3584 
Q 2397 3584 2469 3576 
Q 2541 3569 2628 3553 
L 2631 2963 
z
" transform="scale(0.015625)"/>
        <path id="DejaVuSans-69" d="M 603 3500 
L 1178 3500 
L 1178 0 
L 603 0 
L 603 3500 
z
M 603 4863 
L 1178 4863 
L 1178 4134 
L 603 4134 
L 603 4863 
z
" transform="scale(0.015625)"/>
        <path id="DejaVuSans-61" d="M 2194 1759 
Q 1497 1759 1228 1600 
Q 959 1441 959 1056 
Q 959 750 1161 570 
Q 1363 391 1709 391 
Q 2188 391 2477 730 
Q 2766 1069 2766 1631 
L 2766 1759 
L 2194 1759 
z
M 3341 1997 
L 3341 0 
L 2766 0 
L 2766 531 
Q 2569 213 2275 61 
Q 1981 -91 1556 -91 
Q 1019 -91 701 211 
Q 384 513 384 1019 
Q 384 1609 779 1909 
Q 1175 2209 1959 2209 
L 2766 2209 
L 2766 2266 
Q 2766 2663 2505 2880 
Q 2244 3097 1772 3097 
Q 1472 3097 1187 3025 
Q 903 2953 641 2809 
L 641 3341 
Q 956 3463 1253 3523 
Q 1550 3584 1831 3584 
Q 2591 3584 2966 3190 
Q 3341 2797 3341 1997 
z
" transform="scale(0.015625)"/>
        <path id="DejaVuSans-6c" d="M 603 4863 
L 1178 4863 
L 1178 0 
L 603 0 
L 603 4863 
z
" transform="scale(0.015625)"/>
        <path id="DejaVuSans-47" d="M 3809 666 
L 3809 1919 
L 2778 1919 
L 2778 2438 
L 4434 2438 
L 4434 434 
Q 4069 175 3628 42 
Q 3188 -91 2688 -91 
Q 1594 -91 976 548 
Q 359 1188 359 2328 
Q 359 3472 976 4111 
Q 1594 4750 2688 4750 
Q 3144 4750 3555 4637 
Q 3966 4525 4313 4306 
L 4313 3634 
Q 3963 3931 3569 4081 
Q 3175 4231 2741 4231 
Q 1884 4231 1454 3753 
Q 1025 3275 1025 2328 
Q 1025 1384 1454 906 
Q 1884 428 2741 428 
Q 3075 428 3337 486 
Q 3600 544 3809 666 
z
" transform="scale(0.015625)"/>
        <path id="DejaVuSans-46" d="M 628 4666 
L 3309 4666 
L 3309 4134 
L 1259 4134 
L 1259 2759 
L 3109 2759 
L 3109 2228 
L 1259 2228 
L 1259 0 
L 628 0 
L 628 4666 
z
" transform="scale(0.015625)"/>
        <path id="DejaVuSans-6f" d="M 1959 3097 
Q 1497 3097 1228 2736 
Q 959 2375 959 1747 
Q 959 1119 1226 758 
Q 1494 397 1959 397 
Q 2419 397 2687 759 
Q 2956 1122 2956 1747 
Q 2956 2369 2687 2733 
Q 2419 3097 1959 3097 
z
M 1959 3584 
Q 2709 3584 3137 3096 
Q 3566 2609 3566 1747 
Q 3566 888 3137 398 
Q 2709 -91 1959 -91 
Q 1206 -91 779 398 
Q 353 888 353 1747 
Q 353 2609 779 3096 
Q 1206 3584 1959 3584 
z
" transform="scale(0.015625)"/>
        <path id="DejaVuSans-70" d="M 1159 525 
L 1159 -1331 
L 581 -1331 
L 581 3500 
L 1159 3500 
L 1159 2969 
Q 1341 3281 1617 3432 
Q 1894 3584 2278 3584 
Q 2916 3584 3314 3078 
Q 3713 2572 3713 1747 
Q 3713 922 3314 415 
Q 2916 -91 2278 -91 
Q 1894 -91 1617 61 
Q 1341 213 1159 525 
z
M 3116 1747 
Q 3116 2381 2855 2742 
Q 2594 3103 2138 3103 
Q 1681 3103 1420 2742 
Q 1159 2381 1159 1747 
Q 1159 1113 1420 752 
Q 1681 391 2138 391 
Q 2594 391 2855 752 
Q 3116 1113 3116 1747 
z
" transform="scale(0.015625)"/>
       </defs>
       <use xlink:href="#DejaVuSans-73"/>
       <use xlink:href="#DejaVuSans-65" x="52.099609"/>
       <use xlink:href="#DejaVuSans-72" x="113.623047"/>
       <use xlink:href="#DejaVuSans-69" x="154.736328"/>
       <use xlink:href="#DejaVuSans-61" x="182.519531"/>
       <use xlink:href="#DejaVuSans-6c" x="243.798828"/>
       <use xlink:href="#DejaVuSans-47" x="271.582031"/>
       <use xlink:href="#DejaVuSans-46" x="349.072266"/>
       <use xlink:href="#DejaVuSans-6c" x="406.591797"/>
       <use xlink:href="#DejaVuSans-6f" x="434.375"/>
       <use xlink:href="#DejaVuSans-70" x="495.556641"/>
       <use xlink:href="#DejaVuSans-73" x="559.033203"/>
      </g>
     </g>
    </g>
    <g id="text_42">
     <!-- Performance con thread variabili per -->
     <g transform="translate(146.003437 321.244375)scale(0.1 -0.1)">
      <defs>
       <path id="DejaVuSans-50" d="M 1259 4147 
L 1259 2394 
L 2053 2394 
Q 2494 2394 2734 2622 
Q 2975 2850 2975 3272 
Q 2975 3691 2734 3919 
Q 2494 4147 2053 4147 
L 1259 4147 
z
M 628 4666 
L 2053 4666 
Q 2838 4666 3239 4311 
Q 3641 3956 3641 3272 
Q 3641 2581 3239 2228 
Q 2838 1875 2053 1875 
L 1259 1875 
L 1259 0 
L 628 0 
L 628 4666 
z
" transform="scale(0.015625)"/>
       <path id="DejaVuSans-66" d="M 2375 4863 
L 2375 4384 
L 1825 4384 
Q 1516 4384 1395 4259 
Q 1275 4134 1275 3809 
L 1275 3500 
L 2222 3500 
L 2222 3053 
L 1275 3053 
L 1275 0 
L 697 0 
L 697 3053 
L 147 3053 
L 147 3500 
L 697 3500 
L 697 3744 
Q 697 4328 969 4595 
Q 1241 4863 1831 4863 
L 2375 4863 
z
" transform="scale(0.015625)"/>
       <path id="DejaVuSans-6d" d="M 3328 2828 
Q 3544 3216 3844 3400 
Q 4144 3584 4550 3584 
Q 5097 3584 5394 3201 
Q 5691 2819 5691 2113 
L 5691 0 
L 5113 0 
L 5113 2094 
Q 5113 2597 4934 2840 
Q 4756 3084 4391 3084 
Q 3944 3084 3684 2787 
Q 3425 2491 3425 1978 
L 3425 0 
L 2847 0 
L 2847 2094 
Q 2847 2600 2669 2842 
Q 2491 3084 2119 3084 
Q 1678 3084 1418 2786 
Q 1159 2488 1159 1978 
L 1159 0 
L 581 0 
L 581 3500 
L 1159 3500 
L 1159 2956 
Q 1356 3278 1631 3431 
Q 1906 3584 2284 3584 
Q 2666 3584 2933 3390 
Q 3200 3197 3328 2828 
z
" transform="scale(0.015625)"/>
       <path id="DejaVuSans-6e" d="M 3513 2113 
L 3513 0 
L 2938 0 
L 2938 2094 
Q 2938 2591 2744 2837 
Q 2550 3084 2163 3084 
Q 1697 3084 1428 2787 
Q 1159 2491 1159 1978 
L 1159 0 
L 581 0 
L 581 3500 
L 1159 3500 
L 1159 2956 
Q 1366 3272 1645 3428 
Q 1925 3584 2291 3584 
Q 2894 3584 3203 3211 
Q 3513 2838 3513 2113 
z
" transform="scale(0.015625)"/>
       <path id="DejaVuSans-63" d="M 3122 3366 
L 3122 2828 
Q 2878 2963 2633 3030 
Q 2388 3097 2138 3097 
Q 1578 3097 1268 2742 
Q 959 2388 959 1747 
Q 959 1106 1268 751 
Q 1578 397 2138 397 
Q 2388 397 2633 464 
Q 2878 531 3122 666 
L 3122 134 
Q 2881 22 2623 -34 
Q 2366 -91 2075 -91 
Q 1284 -91 818 406 
Q 353 903 353 1747 
Q 353 2603 823 3093 
Q 1294 3584 2113 3584 
Q 2378 3584 2631 3529 
Q 2884 3475 3122 3366 
z
" transform="scale(0.015625)"/>
       <path id="DejaVuSans-20" transform="scale(0.015625)"/>
       <path id="DejaVuSans-74" d="M 1172 4494 
L 1172 3500 
L 2356 3500 
L 2356 3053 
L 1172 3053 
L 1172 1153 
Q 1172 725 1289 603 
Q 1406 481 1766 481 
L 2356 481 
L 2356 0 
L 1766 0 
Q 1100 0 847 248 
Q 594 497 594 1153 
L 594 3053 
L 172 3053 
L 172 3500 
L 594 3500 
L 594 4494 
L 1172 4494 
z
" transform="scale(0.015625)"/>
       <path id="DejaVuSans-68" d="M 3513 2113 
L 3513 0 
L 2938 0 
L 2938 2094 
Q 2938 2591 2744 2837 
Q 2550 3084 2163 3084 
Q 1697 3084 1428 2787 
Q 1159 2491 1159 1978 
L 1159 0 
L 581 0 
L 581 4863 
L 1159 4863 
L 1159 2956 
Q 1366 3272 1645 3428 
Q 1925 3584 2291 3584 
Q 2894 3584 3203 3211 
Q 3513 2838 3513 2113 
z
" transform="scale(0.015625)"/>
       <path id="DejaVuSans-64" d="M 2906 2969 
L 2906 4863 
L 3481 4863 
L 3481 0 
L 2906 0 
L 2906 525 
Q 2725 213 2448 61 
Q 2172 -91 1784 -91 
Q 1150 -91 751 415 
Q 353 922 353 1747 
Q 353 2572 751 3078 
Q 1150 3584 1784 3584 
Q 2172 3584 2448 3432 
Q 2725 3281 2906 2969 
z
M 947 1747 
Q 947 1113 1208 752 
Q 1469 391 1925 391 
Q 2381 391 2643 752 
Q 2906 1113 2906 1747 
Q 2906 2381 2643 2742 
Q 2381 3103 1925 3103 
Q 1469 3103 1208 2742 
Q 947 2381 947 1747 
z
" transform="scale(0.015625)"/>
       <path id="DejaVuSans-76" d="M 191 3500 
L 800 3500 
L 1894 563 
L 2988 3500 
L 3597 3500 
L 2284 0 
L 1503 0 
L 191 3500 
z
" transform="scale(0.015625)"/>
       <path id="DejaVuSans-62" d="M 3116 1747 
Q 3116 2381 2855 2742 
Q 2594 3103 2138 3103 
Q 1681 3103 1420 2742 
Q 1159 2381 1159 1747 
Q 1159 1113 1420 752 
Q 1681 391 2138 391 
Q 2594 391 2855 752 
Q 3116 1113 3116 1747 
z
M 1159 2969 
Q 1341 3281 1617 3432 
Q 1894 3584 2278 3584 
Q 2916 3584 3314 3078 
Q 3713 2572 3713 1747 
Q 3713 922 3314 415 
Q 2916 -91 2278 -91 
Q 1894 -91 1617 61 
Q 1341 213 1159 525 
L 1159 0 
L 581 0 
L 581 4863 
L 1159 4863 
L 1159 2969 
z
" transform="scale(0.015625)"/>
      </defs>
      <use xlink:href="#DejaVuSans-50"/>
      <use xlink:href="#DejaVuSans-65" x="56.677734"/>
      <use xlink:href="#DejaVuSans-72" x="118.201172"/>
      <use xlink:href="#DejaVuSans-66" x="159.314453"/>
      <use xlink:href="#DejaVuSans-6f" x="194.519531"/>
      <use xlink:href="#DejaVuSans-72" x="255.701172"/>
      <use xlink:href="#DejaVuSans-6d" x="295.064453"/>
      <use xlink:href="#DejaVuSans-61" x="392.476562"/>
      <use xlink:href="#DejaVuSans-6e" x="453.755859"/>
      <use xlink:href="#DejaVuSans-63" x="517.134766"/>
      <use xlink:href="#DejaVuSans-65" x="572.115234"/>
      <use xlink:href="#DejaVuSans-20" x="633.638672"/>
      <use xlink:href="#DejaVuSans-63" x="665.425781"/>
      <use xlink:href="#DejaVuSans-6f" x="720.40625"/>
      <use xlink:href="#DejaVuSans-6e" x="781.587891"/>
      <use xlink:href="#DejaVuSans-20" x="844.966797"/>
      <use xlink:href="#DejaVuSans-74" x="876.753906"/>
      <use xlink:href="#DejaVuSans-68" x="915.962891"/>
      <use xlink:href="#DejaVuSans-72" x="979.341797"/>
      <use xlink:href="#DejaVuSans-65" x="1018.205078"/>
      <use xlink:href="#DejaVuSans-61" x="1079.728516"/>
      <use xlink:href="#DejaVuSans-64" x="1141.007812"/>
      <use xlink:href="#DejaVuSans-20" x="1204.484375"/>
      <use xlink:href="#DejaVuSans-76" x="1236.271484"/>
      <use xlink:href="#DejaVuSans-61" x="1295.451172"/>
      <use xlink:href="#DejaVuSans-72" x="1356.730469"/>
      <use xlink:href="#DejaVuSans-69" x="1397.84375"/>
      <use xlink:href="#DejaVuSans-61" x="1425.626953"/>
      <use xlink:href="#DejaVuSans-62" x="1486.90625"/>
      <use xlink:href="#DejaVuSans-69" x="1550.382812"/>
      <use xlink:href="#DejaVuSans-6c" x="1578.166016"/>
      <use xlink:href="#DejaVuSans-69" x="1605.949219"/>
      <use xlink:href="#DejaVuSans-20" x="1633.732422"/>
      <use xlink:href="#DejaVuSans-70" x="1665.519531"/>
      <use xlink:href="#DejaVuSans-65" x="1728.996094"/>
      <use xlink:href="#DejaVuSans-72" x="1790.519531"/>
     </g>
     <!--  VanekBrezina Large Unsmoothed 2 e l'implementazione UpperBound_direct_1D -->
     <g transform="translate(36.815156 332.442187)scale(0.1 -0.1)">
      <defs>
       <path id="DejaVuSans-56" d="M 1831 0 
L 50 4666 
L 709 4666 
L 2188 738 
L 3669 4666 
L 4325 4666 
L 2547 0 
L 1831 0 
z
" transform="scale(0.015625)"/>
       <path id="DejaVuSans-6b" d="M 581 4863 
L 1159 4863 
L 1159 1991 
L 2875 3500 
L 3609 3500 
L 1753 1863 
L 3688 0 
L 2938 0 
L 1159 1709 
L 1159 0 
L 581 0 
L 581 4863 
z
" transform="scale(0.015625)"/>
       <path id="DejaVuSans-42" d="M 1259 2228 
L 1259 519 
L 2272 519 
Q 2781 519 3026 730 
Q 3272 941 3272 1375 
Q 3272 1813 3026 2020 
Q 2781 2228 2272 2228 
L 1259 2228 
z
M 1259 4147 
L 1259 2741 
L 2194 2741 
Q 2656 2741 2882 2914 
Q 3109 3088 3109 3444 
Q 3109 3797 2882 3972 
Q 2656 4147 2194 4147 
L 1259 4147 
z
M 628 4666 
L 2241 4666 
Q 2963 4666 3353 4366 
Q 3744 4066 3744 3513 
Q 3744 3084 3544 2831 
Q 3344 2578 2956 2516 
Q 3422 2416 3680 2098 
Q 3938 1781 3938 1306 
Q 3938 681 3513 340 
Q 3088 0 2303 0 
L 628 0 
L 628 4666 
z
" transform="scale(0.015625)"/>
       <path id="DejaVuSans-7a" d="M 353 3500 
L 3084 3500 
L 3084 2975 
L 922 459 
L 3084 459 
L 3084 0 
L 275 0 
L 275 525 
L 2438 3041 
L 353 3041 
L 353 3500 
z
" transform="scale(0.015625)"/>
       <path id="DejaVuSans-4c" d="M 628 4666 
L 1259 4666 
L 1259 531 
L 3531 531 
L 3531 0 
L 628 0 
L 628 4666 
z
" transform="scale(0.015625)"/>
       <path id="DejaVuSans-67" d="M 2906 1791 
Q 2906 2416 2648 2759 
Q 2391 3103 1925 3103 
Q 1463 3103 1205 2759 
Q 947 2416 947 1791 
Q 947 1169 1205 825 
Q 1463 481 1925 481 
Q 2391 481 2648 825 
Q 2906 1169 2906 1791 
z
M 3481 434 
Q 3481 -459 3084 -895 
Q 2688 -1331 1869 -1331 
Q 1566 -1331 1297 -1286 
Q 1028 -1241 775 -1147 
L 775 -588 
Q 1028 -725 1275 -790 
Q 1522 -856 1778 -856 
Q 2344 -856 2625 -561 
Q 2906 -266 2906 331 
L 2906 616 
Q 2728 306 2450 153 
Q 2172 0 1784 0 
Q 1141 0 747 490 
Q 353 981 353 1791 
Q 353 2603 747 3093 
Q 1141 3584 1784 3584 
Q 2172 3584 2450 3431 
Q 2728 3278 2906 2969 
L 2906 3500 
L 3481 3500 
L 3481 434 
z
" transform="scale(0.015625)"/>
       <path id="DejaVuSans-55" d="M 556 4666 
L 1191 4666 
L 1191 1831 
Q 1191 1081 1462 751 
Q 1734 422 2344 422 
Q 2950 422 3222 751 
Q 3494 1081 3494 1831 
L 3494 4666 
L 4128 4666 
L 4128 1753 
Q 4128 841 3676 375 
Q 3225 -91 2344 -91 
Q 1459 -91 1007 375 
Q 556 841 556 1753 
L 556 4666 
z
" transform="scale(0.015625)"/>
       <path id="DejaVuSans-27" d="M 1147 4666 
L 1147 2931 
L 616 2931 
L 616 4666 
L 1147 4666 
z
" transform="scale(0.015625)"/>
       <path id="DejaVuSans-75" d="M 544 1381 
L 544 3500 
L 1119 3500 
L 1119 1403 
Q 1119 906 1312 657 
Q 1506 409 1894 409 
Q 2359 409 2629 706 
Q 2900 1003 2900 1516 
L 2900 3500 
L 3475 3500 
L 3475 0 
L 2900 0 
L 2900 538 
Q 2691 219 2414 64 
Q 2138 -91 1772 -91 
Q 1169 -91 856 284 
Q 544 659 544 1381 
z
M 1991 3584 
L 1991 3584 
z
" transform="scale(0.015625)"/>
       <path id="DejaVuSans-5f" d="M 3263 -1063 
L 3263 -1509 
L -63 -1509 
L -63 -1063 
L 3263 -1063 
z
" transform="scale(0.015625)"/>
       <path id="DejaVuSans-44" d="M 1259 4147 
L 1259 519 
L 2022 519 
Q 2988 519 3436 956 
Q 3884 1394 3884 2338 
Q 3884 3275 3436 3711 
Q 2988 4147 2022 4147 
L 1259 4147 
z
M 628 4666 
L 1925 4666 
Q 3281 4666 3915 4102 
Q 4550 3538 4550 2338 
Q 4550 1131 3912 565 
Q 3275 0 1925 0 
L 628 0 
L 628 4666 
z
" transform="scale(0.015625)"/>
      </defs>
      <use xlink:href="#DejaVuSans-20"/>
      <use xlink:href="#DejaVuSans-56" x="31.787109"/>
      <use xlink:href="#DejaVuSans-61" x="92.445312"/>
      <use xlink:href="#DejaVuSans-6e" x="153.724609"/>
      <use xlink:href="#DejaVuSans-65" x="217.103516"/>
      <use xlink:href="#DejaVuSans-6b" x="278.626953"/>
      <use xlink:href="#DejaVuSans-42" x="336.537109"/>
      <use xlink:href="#DejaVuSans-72" x="405.140625"/>
      <use xlink:href="#DejaVuSans-65" x="444.003906"/>
      <use xlink:href="#DejaVuSans-7a" x="505.527344"/>
      <use xlink:href="#DejaVuSans-69" x="558.017578"/>
      <use xlink:href="#DejaVuSans-6e" x="585.800781"/>
      <use xlink:href="#DejaVuSans-61" x="649.179688"/>
      <use xlink:href="#DejaVuSans-20" x="710.458984"/>
      <use xlink:href="#DejaVuSans-4c" x="742.246094"/>
      <use xlink:href="#DejaVuSans-61" x="797.958984"/>
      <use xlink:href="#DejaVuSans-72" x="859.238281"/>
      <use xlink:href="#DejaVuSans-67" x="898.601562"/>
      <use xlink:href="#DejaVuSans-65" x="962.078125"/>
      <use xlink:href="#DejaVuSans-20" x="1023.601562"/>
      <use xlink:href="#DejaVuSans-55" x="1055.388672"/>
      <use xlink:href="#DejaVuSans-6e" x="1128.582031"/>
      <use xlink:href="#DejaVuSans-73" x="1191.960938"/>
      <use xlink:href="#DejaVuSans-6d" x="1244.060547"/>
      <use xlink:href="#DejaVuSans-6f" x="1341.472656"/>
      <use xlink:href="#DejaVuSans-6f" x="1402.654297"/>
      <use xlink:href="#DejaVuSans-74" x="1463.835938"/>
      <use xlink:href="#DejaVuSans-68" x="1503.044922"/>
      <use xlink:href="#DejaVuSans-65" x="1566.423828"/>
      <use xlink:href="#DejaVuSans-64" x="1627.947266"/>
      <use xlink:href="#DejaVuSans-20" x="1691.423828"/>
      <use xlink:href="#DejaVuSans-32" x="1723.210938"/>
      <use xlink:href="#DejaVuSans-20" x="1786.833984"/>
      <use xlink:href="#DejaVuSans-65" x="1818.621094"/>
      <use xlink:href="#DejaVuSans-20" x="1880.144531"/>
      <use xlink:href="#DejaVuSans-6c" x="1911.931641"/>
      <use xlink:href="#DejaVuSans-27" x="1939.714844"/>
      <use xlink:href="#DejaVuSans-69" x="1967.205078"/>
      <use xlink:href="#DejaVuSans-6d" x="1994.988281"/>
      <use xlink:href="#DejaVuSans-70" x="2092.400391"/>
      <use xlink:href="#DejaVuSans-6c" x="2155.876953"/>
      <use xlink:href="#DejaVuSans-65" x="2183.660156"/>
      <use xlink:href="#DejaVuSans-6d" x="2245.183594"/>
      <use xlink:href="#DejaVuSans-65" x="2342.595703"/>
      <use xlink:href="#DejaVuSans-6e" x="2404.119141"/>
      <use xlink:href="#DejaVuSans-74" x="2467.498047"/>
      <use xlink:href="#DejaVuSans-61" x="2506.707031"/>
      <use xlink:href="#DejaVuSans-7a" x="2567.986328"/>
      <use xlink:href="#DejaVuSans-69" x="2620.476562"/>
      <use xlink:href="#DejaVuSans-6f" x="2648.259766"/>
      <use xlink:href="#DejaVuSans-6e" x="2709.441406"/>
      <use xlink:href="#DejaVuSans-65" x="2772.820312"/>
      <use xlink:href="#DejaVuSans-20" x="2834.34375"/>
      <use xlink:href="#DejaVuSans-55" x="2866.130859"/>
      <use xlink:href="#DejaVuSans-70" x="2939.324219"/>
      <use xlink:href="#DejaVuSans-70" x="3002.800781"/>
      <use xlink:href="#DejaVuSans-65" x="3066.277344"/>
      <use xlink:href="#DejaVuSans-72" x="3127.800781"/>
      <use xlink:href="#DejaVuSans-42" x="3168.914062"/>
      <use xlink:href="#DejaVuSans-6f" x="3237.517578"/>
      <use xlink:href="#DejaVuSans-75" x="3298.699219"/>
      <use xlink:href="#DejaVuSans-6e" x="3362.078125"/>
      <use xlink:href="#DejaVuSans-64" x="3425.457031"/>
      <use xlink:href="#DejaVuSans-5f" x="3488.933594"/>
      <use xlink:href="#DejaVuSans-64" x="3538.933594"/>
      <use xlink:href="#DejaVuSans-69" x="3602.410156"/>
      <use xlink:href="#DejaVuSans-72" x="3630.193359"/>
      <use xlink:href="#DejaVuSans-65" x="3669.056641"/>
      <use xlink:href="#DejaVuSans-63" x="3730.580078"/>
      <use xlink:href="#DejaVuSans-74" x="3785.560547"/>
      <use xlink:href="#DejaVuSans-5f" x="3824.769531"/>
      <use xlink:href="#DejaVuSans-31" x="3874.769531"/>
      <use xlink:href="#DejaVuSans-44" x="3938.392578"/>
     </g>
    </g>
   </g>
   <g id="matplotlib.axis_2">
    <g id="ytick_1">
     <g id="line2d_42">
      <defs>
       <path id="m15e5e0764f" d="M 0 0 
L -3.5 0 
" style="stroke: #000000; stroke-width: 0.8"/>
      </defs>
      <g>
       <use xlink:href="#m15e5e0764f" x="47.38125" y="241.533437" style="stroke: #000000; stroke-width: 0.8"/>
      </g>
     </g>
     <g id="text_43">
      <!-- 0.0 -->
      <g transform="translate(24.478125 245.332656)scale(0.1 -0.1)">
       <defs>
        <path id="DejaVuSans-2e" d="M 684 794 
L 1344 794 
L 1344 0 
L 684 0 
L 684 794 
z
" transform="scale(0.015625)"/>
       </defs>
       <use xlink:href="#DejaVuSans-30"/>
       <use xlink:href="#DejaVuSans-2e" x="63.623047"/>
       <use xlink:href="#DejaVuSans-30" x="95.410156"/>
      </g>
     </g>
    </g>
    <g id="ytick_2">
     <g id="line2d_43">
      <g>
       <use xlink:href="#m15e5e0764f" x="47.38125" y="216.318524" style="stroke: #000000; stroke-width: 0.8"/>
      </g>
     </g>
     <g id="text_44">
      <!-- 0.1 -->
      <g transform="translate(24.478125 220.117743)scale(0.1 -0.1)">
       <use xlink:href="#DejaVuSans-30"/>
       <use xlink:href="#DejaVuSans-2e" x="63.623047"/>
       <use xlink:href="#DejaVuSans-31" x="95.410156"/>
      </g>
     </g>
    </g>
    <g id="ytick_3">
     <g id="line2d_44">
      <g>
       <use xlink:href="#m15e5e0764f" x="47.38125" y="191.103611" style="stroke: #000000; stroke-width: 0.8"/>
      </g>
     </g>
     <g id="text_45">
      <!-- 0.2 -->
      <g transform="translate(24.478125 194.90283)scale(0.1 -0.1)">
       <use xlink:href="#DejaVuSans-30"/>
       <use xlink:href="#DejaVuSans-2e" x="63.623047"/>
       <use xlink:href="#DejaVuSans-32" x="95.410156"/>
      </g>
     </g>
    </g>
    <g id="ytick_4">
     <g id="line2d_45">
      <g>
       <use xlink:href="#m15e5e0764f" x="47.38125" y="165.888698" style="stroke: #000000; stroke-width: 0.8"/>
      </g>
     </g>
     <g id="text_46">
      <!-- 0.3 -->
      <g transform="translate(24.478125 169.687917)scale(0.1 -0.1)">
       <use xlink:href="#DejaVuSans-30"/>
       <use xlink:href="#DejaVuSans-2e" x="63.623047"/>
       <use xlink:href="#DejaVuSans-33" x="95.410156"/>
      </g>
     </g>
    </g>
    <g id="ytick_5">
     <g id="line2d_46">
      <g>
       <use xlink:href="#m15e5e0764f" x="47.38125" y="140.673785" style="stroke: #000000; stroke-width: 0.8"/>
      </g>
     </g>
     <g id="text_47">
      <!-- 0.4 -->
      <g transform="translate(24.478125 144.473003)scale(0.1 -0.1)">
       <use xlink:href="#DejaVuSans-30"/>
       <use xlink:href="#DejaVuSans-2e" x="63.623047"/>
       <use xlink:href="#DejaVuSans-34" x="95.410156"/>
      </g>
     </g>
    </g>
    <g id="ytick_6">
     <g id="line2d_47">
      <g>
       <use xlink:href="#m15e5e0764f" x="47.38125" y="115.458872" style="stroke: #000000; stroke-width: 0.8"/>
      </g>
     </g>
     <g id="text_48">
      <!-- 0.5 -->
      <g transform="translate(24.478125 119.25809)scale(0.1 -0.1)">
       <use xlink:href="#DejaVuSans-30"/>
       <use xlink:href="#DejaVuSans-2e" x="63.623047"/>
       <use xlink:href="#DejaVuSans-35" x="95.410156"/>
      </g>
     </g>
    </g>
    <g id="ytick_7">
     <g id="line2d_48">
      <g>
       <use xlink:href="#m15e5e0764f" x="47.38125" y="90.243958" style="stroke: #000000; stroke-width: 0.8"/>
      </g>
     </g>
     <g id="text_49">
      <!-- 0.6 -->
      <g transform="translate(24.478125 94.043177)scale(0.1 -0.1)">
       <use xlink:href="#DejaVuSans-30"/>
       <use xlink:href="#DejaVuSans-2e" x="63.623047"/>
       <use xlink:href="#DejaVuSans-36" x="95.410156"/>
      </g>
     </g>
    </g>
    <g id="ytick_8">
     <g id="line2d_49">
      <g>
       <use xlink:href="#m15e5e0764f" x="47.38125" y="65.029045" style="stroke: #000000; stroke-width: 0.8"/>
      </g>
     </g>
     <g id="text_50">
      <!-- 0.7 -->
      <g transform="translate(24.478125 68.828264)scale(0.1 -0.1)">
       <use xlink:href="#DejaVuSans-30"/>
       <use xlink:href="#DejaVuSans-2e" x="63.623047"/>
       <use xlink:href="#DejaVuSans-37" x="95.410156"/>
      </g>
     </g>
    </g>
    <g id="ytick_9">
     <g id="line2d_50">
      <g>
       <use xlink:href="#m15e5e0764f" x="47.38125" y="39.814132" style="stroke: #000000; stroke-width: 0.8"/>
      </g>
     </g>
     <g id="text_51">
      <!-- 0.8 -->
      <g transform="translate(24.478125 43.613351)scale(0.1 -0.1)">
       <use xlink:href="#DejaVuSans-30"/>
       <use xlink:href="#DejaVuSans-2e" x="63.623047"/>
       <use xlink:href="#DejaVuSans-38" x="95.410156"/>
      </g>
     </g>
    </g>
    <g id="ytick_10">
     <g id="line2d_51">
      <g>
       <use xlink:href="#m15e5e0764f" x="47.38125" y="14.599219" style="stroke: #000000; stroke-width: 0.8"/>
      </g>
     </g>
     <g id="text_52">
      <!-- 0.9 -->
      <g transform="translate(24.478125 18.398438)scale(0.1 -0.1)">
       <use xlink:href="#DejaVuSans-30"/>
       <use xlink:href="#DejaVuSans-2e" x="63.623047"/>
       <use xlink:href="#DejaVuSans-39" x="95.410156"/>
      </g>
     </g>
    </g>
    <g id="text_53">
     <!-- E[ GFlop/s ] -->
     <g transform="translate(18.398437 156.967109)rotate(-90)scale(0.1 -0.1)">
      <defs>
       <path id="DejaVuSans-45" d="M 628 4666 
L 3578 4666 
L 3578 4134 
L 1259 4134 
L 1259 2753 
L 3481 2753 
L 3481 2222 
L 1259 2222 
L 1259 531 
L 3634 531 
L 3634 0 
L 628 0 
L 628 4666 
z
" transform="scale(0.015625)"/>
       <path id="DejaVuSans-5b" d="M 550 4863 
L 1875 4863 
L 1875 4416 
L 1125 4416 
L 1125 -397 
L 1875 -397 
L 1875 -844 
L 550 -844 
L 550 4863 
z
" transform="scale(0.015625)"/>
       <path id="DejaVuSans-2f" d="M 1625 4666 
L 2156 4666 
L 531 -594 
L 0 -594 
L 1625 4666 
z
" transform="scale(0.015625)"/>
       <path id="DejaVuSans-5d" d="M 1947 4863 
L 1947 -844 
L 622 -844 
L 622 -397 
L 1369 -397 
L 1369 4416 
L 622 4416 
L 622 4863 
L 1947 4863 
z
" transform="scale(0.015625)"/>
      </defs>
      <use xlink:href="#DejaVuSans-45"/>
      <use xlink:href="#DejaVuSans-5b" x="63.183594"/>
      <use xlink:href="#DejaVuSans-20" x="102.197266"/>
      <use xlink:href="#DejaVuSans-47" x="133.984375"/>
      <use xlink:href="#DejaVuSans-46" x="211.474609"/>
      <use xlink:href="#DejaVuSans-6c" x="268.994141"/>
      <use xlink:href="#DejaVuSans-6f" x="296.777344"/>
      <use xlink:href="#DejaVuSans-70" x="357.958984"/>
      <use xlink:href="#DejaVuSans-2f" x="421.435547"/>
      <use xlink:href="#DejaVuSans-73" x="455.126953"/>
      <use xlink:href="#DejaVuSans-20" x="507.226562"/>
      <use xlink:href="#DejaVuSans-5d" x="539.013672"/>
     </g>
    </g>
   </g>
   <g id="patch_44">
    <path d="M 47.38125 241.533437 
L 47.38125 14.599219 
" style="fill: none; stroke: #000000; stroke-width: 0.8; stroke-linejoin: miter; stroke-linecap: square"/>
   </g>
   <g id="patch_45">
    <path d="M 427.789688 241.533437 
L 427.789688 14.599219 
" style="fill: none; stroke: #000000; stroke-width: 0.8; stroke-linejoin: miter; stroke-linecap: square"/>
   </g>
   <g id="patch_46">
    <path d="M 47.38125 241.533437 
L 427.789688 241.533437 
" style="fill: none; stroke: #000000; stroke-width: 0.8; stroke-linejoin: miter; stroke-linecap: square"/>
   </g>
   <g id="patch_47">
    <path d="M 47.38125 14.599219 
L 427.789688 14.599219 
" style="fill: none; stroke: #000000; stroke-width: 0.8; stroke-linejoin: miter; stroke-linecap: square"/>
   </g>
  </g>
 </g>
 <defs>
  <clipPath id="pdda6642a90">
   <rect x="47.38125" y="14.599219" width="380.408437" height="226.934219"/>
  </clipPath>
 </defs>
</svg>
