<?xml version="1.0" encoding="UTF-8" standalone="no"?>
<!DOCTYPE svg PUBLIC "-//W3C//DTD SVG 1.1//EN"
 "http://www.w3.org/Graphics/SVG/1.1/DTD/svg11.dtd">
<!-- Generated by graphviz version 2.48.0 (0)
 -->
<!-- Title: g Pages: 1 -->
<svg width="889pt" height="241pt"
 viewBox="0.00 0.00 889.00 241.00" xmlns="http://www.w3.org/2000/svg" xmlns:xlink="http://www.w3.org/1999/xlink">
<g id="graph0" class="graph" transform="scale(1 1) rotate(0) translate(4 237)">
<title>g</title>
<polygon fill="white" stroke="transparent" points="-4,4 -4,-237 885,-237 885,4 -4,4"/>
<!-- task_struct -->
<g id="node1" class="node">
<title>task_struct</title>
<polygon fill="none" stroke="black" points="0,-140.5 0,-232.5 192,-232.5 192,-140.5 0,-140.5"/>
<text text-anchor="middle" x="96" y="-217.3" font-family="Helvetica,Arial,sans-serif" font-size="14.00">task_struct</text>
<polyline fill="none" stroke="black" points="0,-209.5 192,-209.5 "/>
<text text-anchor="middle" x="96" y="-194.3" font-family="Helvetica,Arial,sans-serif" font-size="14.00">struct thread_info thread_info</text>
<polyline fill="none" stroke="black" points="0,-186.5 192,-186.5 "/>
<text text-anchor="middle" x="96" y="-171.3" font-family="Helvetica,Arial,sans-serif" font-size="14.00">mm_struct mm</text>
<polyline fill="none" stroke="black" points="0,-163.5 192,-163.5 "/>
<text text-anchor="middle" x="96" y="-148.3" font-family="Helvetica,Arial,sans-serif" font-size="14.00">...</text>
</g>
<!-- mm_struct -->
<g id="node2" class="node">
<title>mm_struct</title>
<polygon fill="none" stroke="black" points="228,-93.5 228,-185.5 386,-185.5 386,-93.5 228,-93.5"/>
<text text-anchor="middle" x="307" y="-170.3" font-family="Helvetica,Arial,sans-serif" font-size="14.00">mm_struct</text>
<polyline fill="none" stroke="black" points="228,-162.5 386,-162.5 "/>
<text text-anchor="middle" x="307" y="-147.3" font-family="Helvetica,Arial,sans-serif" font-size="14.00">vm_area_struct* mmap</text>
<polyline fill="none" stroke="black" points="228,-139.5 386,-139.5 "/>
<text text-anchor="middle" x="307" y="-124.3" font-family="Helvetica,Arial,sans-serif" font-size="14.00">rb_root mm_rb</text>
<polyline fill="none" stroke="black" points="228,-116.5 386,-116.5 "/>
<text text-anchor="middle" x="307" y="-101.3" font-family="Helvetica,Arial,sans-serif" font-size="14.00">...</text>
</g>
<!-- task_struct&#45;&gt;mm_struct -->
<g id="0" class="edge">
<title>task_struct:mm&#45;&gt;mm_struct:struct</title>
<path fill="none" stroke="black" d="M192,-174.5C204,-174.5 209.25,-174.5 217.88,-174.5"/>
<polygon fill="black" stroke="black" points="218,-178 228,-174.5 218,-171 218,-178"/>
</g>
<!-- vm_area_struct -->
<g id="node3" class="node">
<title>vm_area_struct</title>
<polygon fill="none" stroke="black" points="422,-91.5 422,-229.5 594,-229.5 594,-91.5 422,-91.5"/>
<text text-anchor="middle" x="508" y="-214.3" font-family="Helvetica,Arial,sans-serif" font-size="14.00">vm_area_struct</text>
<polyline fill="none" stroke="black" points="422,-206.5 594,-206.5 "/>
<text text-anchor="middle" x="508" y="-191.3" font-family="Helvetica,Arial,sans-serif" font-size="14.00">ulong vm_start,vm_end</text>
<polyline fill="none" stroke="black" points="422,-183.5 594,-183.5 "/>
<text text-anchor="middle" x="508" y="-168.3" font-family="Helvetica,Arial,sans-serif" font-size="14.00">vm_area_struct* vm_next</text>
<polyline fill="none" stroke="black" points="422,-160.5 594,-160.5 "/>
<text text-anchor="middle" x="508" y="-145.3" font-family="Helvetica,Arial,sans-serif" font-size="14.00">vm_area_struct* vm_prev</text>
<polyline fill="none" stroke="black" points="422,-137.5 594,-137.5 "/>
<text text-anchor="middle" x="508" y="-122.3" font-family="Helvetica,Arial,sans-serif" font-size="14.00">rb_node vm_rb</text>
<polyline fill="none" stroke="black" points="422,-114.5 594,-114.5 "/>
<text text-anchor="middle" x="508" y="-99.3" font-family="Helvetica,Arial,sans-serif" font-size="14.00">...</text>
</g>
<!-- mm_struct&#45;&gt;vm_area_struct -->
<g id="1" class="edge">
<title>mm_struct:mmap&#45;&gt;vm_area_struct:struct</title>
<path fill="none" stroke="black" d="M386,-151.5C415.58,-151.5 395.08,-202.8 412.13,-215.62"/>
<polygon fill="black" stroke="black" points="411.42,-219.06 422,-218.5 413.38,-212.34 411.42,-219.06"/>
</g>
<!-- rb_root -->
<g id="node4" class="node">
<title>rb_root</title>
<polygon fill="none" stroke="black" points="427.5,-26.5 427.5,-72.5 588.5,-72.5 588.5,-26.5 427.5,-26.5"/>
<text text-anchor="middle" x="508" y="-57.3" font-family="Helvetica,Arial,sans-serif" font-size="14.00">rb_root</text>
<polyline fill="none" stroke="black" points="427.5,-49.5 588.5,-49.5 "/>
<text text-anchor="middle" x="508" y="-34.3" font-family="Helvetica,Arial,sans-serif" font-size="14.00">struct rb_node* rb_node</text>
</g>
<!-- mm_struct&#45;&gt;rb_root -->
<g id="2" class="edge">
<title>mm_struct:mm_rb&#45;&gt;rb_root:struct</title>
<path fill="none" stroke="black" d="M386,-127.5C416.15,-127.5 397.7,-76.52 416.08,-64.17"/>
<polygon fill="black" stroke="black" points="417.25,-67.48 426,-61.5 415.43,-60.72 417.25,-67.48"/>
</g>
<!-- rb_node -->
<g id="node5" class="node">
<title>rb_node</title>
<polygon fill="none" stroke="black" points="630,-0.5 630,-92.5 881,-92.5 881,-0.5 630,-0.5"/>
<text text-anchor="middle" x="755.5" y="-77.3" font-family="Helvetica,Arial,sans-serif" font-size="14.00">rb_node</text>
<polyline fill="none" stroke="black" points="630,-69.5 881,-69.5 "/>
<text text-anchor="middle" x="755.5" y="-54.3" font-family="Helvetica,Arial,sans-serif" font-size="14.00">struct rb_node* rb_left</text>
<polyline fill="none" stroke="black" points="630,-46.5 881,-46.5 "/>
<text text-anchor="middle" x="755.5" y="-31.3" font-family="Helvetica,Arial,sans-serif" font-size="14.00">struct rb_node* rb_right</text>
<polyline fill="none" stroke="black" points="630,-23.5 881,-23.5 "/>
<text text-anchor="middle" x="755.5" y="-8.3" font-family="Helvetica,Arial,sans-serif" font-size="14.00">ulong unsigned long __rb_parent_color</text>
</g>
<!-- vm_area_struct&#45;&gt;rb_node -->
<g id="3" class="edge">
<title>vm_area_struct:vm_rb&#45;&gt;rb_node:struct</title>
<path fill="none" stroke="black" d="M594,-125.5C615.12,-125.5 608.43,-94.75 620.43,-84.66"/>
<polygon fill="black" stroke="black" points="621.6,-87.96 630,-81.5 619.41,-81.32 621.6,-87.96"/>
</g>
<!-- rb_root&#45;&gt;rb_node -->
<g id="4" class="edge">
<title>rb_root:rb_node&#45;&gt;rb_node:struct</title>
<path fill="none" stroke="black" d="M590,-37.5C612.3,-37.5 606.63,-68.82 620.19,-78.61"/>
<polygon fill="black" stroke="black" points="619.42,-82.03 630,-81.5 621.39,-75.32 619.42,-82.03"/>
</g>
</g>
</svg>
