<?xml version="1.0" encoding="UTF-8" standalone="no"?>
<!-- Generated by graphviz version 2.48.0 (0)
 -->

<!-- Title: g Pages: 1 -->

<svg
   width="889pt"
   height="241pt"
   viewBox="0.00 0.00 889.00 241.00"
   version="1.1"
   id="svg137"
   sodipodi:docname="RBtreeInMMDesriptor.dot.svg"
   inkscape:version="1.1.2 (0a00cf5339, 2022-02-04)"
   xmlns:inkscape="http://www.inkscape.org/namespaces/inkscape"
   xmlns:sodipodi="http://sodipodi.sourceforge.net/DTD/sodipodi-0.dtd"
   xmlns="http://www.w3.org/2000/svg"
   xmlns:svg="http://www.w3.org/2000/svg">
  <defs
     id="defs141" />
  <sodipodi:namedview
     id="namedview139"
     pagecolor="#ffffff"
     bordercolor="#666666"
     borderopacity="1.0"
     inkscape:pageshadow="2"
     inkscape:pageopacity="0.0"
     inkscape:pagecheckerboard="0"
     inkscape:document-units="pt"
     showgrid="false"
     inkscape:zoom="0.67449381"
     inkscape:cx="495.18616"
     inkscape:cy="195.70231"
     inkscape:window-width="1920"
     inkscape:window-height="1176"
     inkscape:window-x="0"
     inkscape:window-y="0"
     inkscape:window-maximized="1"
     inkscape:current-layer="svg137" />
  <g
     id="graph0"
     class="graph"
     transform="scale(1 1) rotate(0) translate(4 237)">
    <title
       id="title2">g</title>
    <polygon
       fill="white"
       stroke="transparent"
       points="-4,4 -4,-237 885,-237 885,4 -4,4"
       id="polygon4" />
    <!-- task_struct -->
    <g
       id="node1"
       class="node">
      <title
         id="title6">task_struct</title>
      <polygon
         fill="none"
         stroke="black"
         points="0,-140.5 0,-232.5 192,-232.5 192,-140.5 0,-140.5"
         id="polygon8" />
      <text
         text-anchor="middle"
         x="96"
         y="-217.3"
         font-family="Helvetica,Arial,sans-serif"
         font-size="14.00"
         id="text10"
         style="-inkscape-font-specification:'Helvetica, Arial, sans-serif Bold';font-family:Helvetica, Arial, sans-serif;font-weight:bold;font-style:normal;font-stretch:normal;font-variant:normal">task_struct</text>
      <polyline
         fill="none"
         stroke="black"
         points="0,-209.5 192,-209.5 "
         id="polyline12" />
      <text
         text-anchor="middle"
         x="96"
         y="-194.3"
         font-family="Helvetica,Arial,sans-serif"
         font-size="14.00"
         id="text14">struct thread_info thread_info</text>
      <polyline
         fill="none"
         stroke="black"
         points="0,-186.5 192,-186.5 "
         id="polyline16" />
      <text
         text-anchor="middle"
         x="96"
         y="-171.3"
         font-family="Helvetica,Arial,sans-serif"
         font-size="14.00"
         id="text18">mm_struct mm</text>
      <polyline
         fill="none"
         stroke="black"
         points="0,-163.5 192,-163.5 "
         id="polyline20" />
      <text
         text-anchor="middle"
         x="96"
         y="-148.3"
         font-family="Helvetica,Arial,sans-serif"
         font-size="14.00"
         id="text22">...</text>
    </g>
    <!-- mm_struct -->
    <g
       id="node2"
       class="node">
      <title
         id="title25">mm_struct</title>
      <polygon
         fill="none"
         stroke="black"
         points="228,-93.5 228,-185.5 386,-185.5 386,-93.5 228,-93.5"
         id="polygon27" />
      <text
         text-anchor="middle"
         x="307"
         y="-170.3"
         font-family="Helvetica,Arial,sans-serif"
         font-size="14.00"
         id="text29"
         style="-inkscape-font-specification:'Helvetica, Arial, sans-serif Bold';font-family:Helvetica, Arial, sans-serif;font-weight:bold;font-style:normal;font-stretch:normal;font-variant:normal">mm_struct</text>
      <polyline
         fill="none"
         stroke="black"
         points="228,-162.5 386,-162.5 "
         id="polyline31" />
      <text
         text-anchor="middle"
         x="307"
         y="-147.3"
         font-family="Helvetica,Arial,sans-serif"
         font-size="14.00"
         id="text33">vm_area_struct* mmap</text>
      <polyline
         fill="none"
         stroke="black"
         points="228,-139.5 386,-139.5 "
         id="polyline35" />
      <text
         text-anchor="middle"
         x="307"
         y="-124.3"
         font-family="Helvetica,Arial,sans-serif"
         font-size="14.00"
         id="text37"
         style="fill:#ff0000">rb_root mm_rb</text>
      <polyline
         fill="none"
         stroke="black"
         points="228,-116.5 386,-116.5 "
         id="polyline39" />
      <text
         text-anchor="middle"
         x="307"
         y="-101.3"
         font-family="Helvetica,Arial,sans-serif"
         font-size="14.00"
         id="text41">...</text>
    </g>
    <!-- task_struct&#45;&gt;mm_struct -->
    <g
       id="0"
       class="edge">
      <title
         id="title44">task_struct:mm-&gt;mm_struct:struct</title>
      <path
         fill="none"
         stroke="black"
         d="M192,-174.5C204,-174.5 209.25,-174.5 217.88,-174.5"
         id="path46" />
      <polygon
         fill="black"
         stroke="black"
         points="218,-178 228,-174.5 218,-171 218,-178"
         id="polygon48" />
    </g>
    <!-- vm_area_struct -->
    <g
       id="node3"
       class="node">
      <title
         id="title51">vm_area_struct</title>
      <polygon
         fill="none"
         stroke="black"
         points="422,-91.5 422,-229.5 594,-229.5 594,-91.5 422,-91.5"
         id="polygon53" />
      <text
         text-anchor="middle"
         x="508"
         y="-214.3"
         font-family="Helvetica,Arial,sans-serif"
         font-size="14.00"
         id="text55"
         style="-inkscape-font-specification:'Helvetica, Arial, sans-serif Bold';font-family:Helvetica, Arial, sans-serif;font-weight:bold;font-style:normal;font-stretch:normal;font-variant:normal">vm_area_struct</text>
      <polyline
         fill="none"
         stroke="black"
         points="422,-206.5 594,-206.5 "
         id="polyline57" />
      <text
         text-anchor="middle"
         x="508"
         y="-191.3"
         font-family="Helvetica,Arial,sans-serif"
         font-size="14.00"
         id="text59">ulong vm_start,vm_end</text>
      <polyline
         fill="none"
         stroke="black"
         points="422,-183.5 594,-183.5 "
         id="polyline61" />
      <text
         text-anchor="middle"
         x="508"
         y="-168.3"
         font-family="Helvetica,Arial,sans-serif"
         font-size="14.00"
         id="text63">vm_area_struct* vm_next</text>
      <polyline
         fill="none"
         stroke="black"
         points="422,-160.5 594,-160.5 "
         id="polyline65" />
      <text
         text-anchor="middle"
         x="508"
         y="-145.3"
         font-family="Helvetica,Arial,sans-serif"
         font-size="14.00"
         id="text67">vm_area_struct* vm_prev</text>
      <polyline
         fill="none"
         stroke="black"
         points="422,-137.5 594,-137.5 "
         id="polyline69" />
      <text
         text-anchor="middle"
         x="508"
         y="-122.3"
         font-family="Helvetica,Arial,sans-serif"
         font-size="14.00"
         id="text71"
         style="fill:#ff0000">rb_node vm_rb</text>
      <polyline
         fill="none"
         stroke="black"
         points="422,-114.5 594,-114.5 "
         id="polyline73" />
      <text
         text-anchor="middle"
         x="508"
         y="-99.3"
         font-family="Helvetica,Arial,sans-serif"
         font-size="14.00"
         id="text75">...</text>
    </g>
    <!-- mm_struct&#45;&gt;vm_area_struct -->
    <g
       id="1"
       class="edge">
      <title
         id="title78">mm_struct:mmap-&gt;vm_area_struct:struct</title>
      <path
         fill="none"
         stroke="black"
         d="M386,-151.5C415.58,-151.5 395.08,-202.8 412.13,-215.62"
         id="path80" />
      <polygon
         fill="black"
         stroke="black"
         points="411.42,-219.06 422,-218.5 413.38,-212.34 411.42,-219.06"
         id="polygon82" />
    </g>
    <!-- rb_root -->
    <g
       id="node4"
       class="node">
      <title
         id="title85">rb_root</title>
      <polygon
         fill="none"
         stroke="black"
         points="427.5,-26.5 427.5,-72.5 588.5,-72.5 588.5,-26.5 427.5,-26.5"
         id="polygon87" />
      <text
         text-anchor="middle"
         x="508"
         y="-57.3"
         font-family="Helvetica,Arial,sans-serif"
         font-size="14.00"
         id="text89"
         style="fill:#ff0000;-inkscape-font-specification:'Helvetica, Arial, sans-serif Bold';font-family:Helvetica, Arial, sans-serif;font-weight:bold;font-style:normal;font-stretch:normal;font-variant:normal">rb_root</text>
      <polyline
         fill="none"
         stroke="black"
         points="427.5,-49.5 588.5,-49.5 "
         id="polyline91" />
      <text
         text-anchor="middle"
         x="508"
         y="-34.3"
         font-family="Helvetica,Arial,sans-serif"
         font-size="14.00"
         id="text93">struct rb_node* rb_node</text>
    </g>
    <!-- mm_struct&#45;&gt;rb_root -->
    <g
       id="2"
       class="edge">
      <title
         id="title96">mm_struct:mm_rb-&gt;rb_root:struct</title>
      <path
         fill="none"
         stroke="black"
         d="M386,-127.5C416.15,-127.5 397.7,-76.52 416.08,-64.17"
         id="path98" />
      <polygon
         fill="black"
         stroke="black"
         points="417.25,-67.48 426,-61.5 415.43,-60.72 417.25,-67.48"
         id="polygon100" />
    </g>
    <!-- rb_node -->
    <g
       id="node5"
       class="node">
      <title
         id="title103">rb_node</title>
      <polygon
         fill="none"
         stroke="black"
         points="630,-0.5 630,-92.5 881,-92.5 881,-0.5 630,-0.5"
         id="polygon105" />
      <text
         text-anchor="middle"
         x="755.5"
         y="-77.3"
         font-family="Helvetica,Arial,sans-serif"
         font-size="14.00"
         id="text107"
         style="fill:#ff0000;-inkscape-font-specification:'Helvetica, Arial, sans-serif Bold';font-family:Helvetica, Arial, sans-serif;font-weight:bold;font-style:normal;font-stretch:normal;font-variant:normal">rb_node</text>
      <polyline
         fill="none"
         stroke="black"
         points="630,-69.5 881,-69.5 "
         id="polyline109" />
      <text
         text-anchor="middle"
         x="755.5"
         y="-54.3"
         font-family="Helvetica,Arial,sans-serif"
         font-size="14.00"
         id="text111">struct rb_node* rb_left</text>
      <polyline
         fill="none"
         stroke="black"
         points="630,-46.5 881,-46.5 "
         id="polyline113" />
      <text
         text-anchor="middle"
         x="755.5"
         y="-31.3"
         font-family="Helvetica,Arial,sans-serif"
         font-size="14.00"
         id="text115">struct rb_node* rb_right</text>
      <polyline
         fill="none"
         stroke="black"
         points="630,-23.5 881,-23.5 "
         id="polyline117" />
      <text
         text-anchor="middle"
         x="755.5"
         y="-8.3"
         font-family="Helvetica,Arial,sans-serif"
         font-size="14.00"
         id="text119">ulong unsigned long __rb_parent_color</text>
    </g>
    <!-- vm_area_struct&#45;&gt;rb_node -->
    <g
       id="3"
       class="edge">
      <title
         id="title122">vm_area_struct:vm_rb-&gt;rb_node:struct</title>
      <path
         fill="none"
         stroke="black"
         d="M594,-125.5C615.12,-125.5 608.43,-94.75 620.43,-84.66"
         id="path124" />
      <polygon
         fill="black"
         stroke="black"
         points="621.6,-87.96 630,-81.5 619.41,-81.32 621.6,-87.96"
         id="polygon126" />
    </g>
    <!-- rb_root&#45;&gt;rb_node -->
    <g
       id="4"
       class="edge">
      <title
         id="title129">rb_root:rb_node-&gt;rb_node:struct</title>
      <path
         fill="none"
         stroke="black"
         d="M590,-37.5C612.3,-37.5 606.63,-68.82 620.19,-78.61"
         id="path131" />
      <polygon
         fill="black"
         stroke="black"
         points="619.42,-82.03 630,-81.5 621.39,-75.32 619.42,-82.03"
         id="polygon133" />
    </g>
  </g>
  <path
     style="fill:#ffff00;stroke:#000000;stroke-width:0.237215;stroke-linecap:round;paint-order:stroke markers fill"
     d="M 7.4129664,20.756306 V 6.6716698 H 133.4334 259.45383 V 20.756306 34.840942 H 133.4334 7.4129664 Z M 131.9508,28.910569 c 0,-0.815426 -2.22799,-1.482593 -4.9511,-1.482593 -3.899,0 -5.32602,-0.822875 -6.71549,-3.87242 -1.33343,-2.926566 -1.34722,-4.375082 -0.0564,-5.930373 1.36573,-1.645605 1.07745,-2.057953 -1.43877,-2.057953 -1.7307,0 -3.14672,-0.667167 -3.14672,-1.482594 0,-0.815426 -1.00075,-1.482593 -2.22389,-1.482593 -1.4792,0 -2.2915,1.613511 -2.4258,4.818428 -0.146,3.484477 -0.37977,3.894924 -0.84441,1.482593 -0.49865,-2.588952 -1.65396,-3.335834 -5.16001,-3.335834 -4.01921,0 -4.43935,0.408828 -3.80896,3.706483 0.3897,2.038565 0.13389,3.706483 -0.56846,3.706483 -0.70235,0 -1.277,-1.667918 -1.277,-3.706483 0,-3.247586 -0.642456,-3.706483 -5.189076,-3.706483 -2.853992,0 -5.189077,-0.667167 -5.189077,-1.482594 0,-2.137312 -4.004292,-1.828546 -4.806827,0.370649 -0.371959,1.019282 -0.368851,4.367918 0.007,7.441411 l 0.683193,5.58817 11.324573,-0.195167 c 6.228454,-0.107343 12.158464,-0.869002 13.177744,-1.692575 1.26912,-1.025438 1.85325,-0.978123 1.85325,0.150116 0,0.906137 1.78303,1.499953 3.96228,1.319592 2.17926,-0.18036 4.23636,0.494279 4.57133,1.499202 0.72668,2.180045 12.22269,2.504097 12.22269,0.344535 z m 8.2341,-3.094368 c 0.71732,-1.160638 1.44727,-1.160638 2.60791,0 0.88648,0.886475 3.47984,1.611775 5.76304,1.611775 3.43961,0 4.15126,-0.635397 4.15126,-3.706483 0,-4.612404 2.58815,-4.909149 3.23272,-0.370649 0.36312,2.556734 1.59912,3.44434 5.29219,3.800418 2.72813,0.263041 4.81843,-0.224784 4.81843,-1.124507 0,-1.0804 0.88634,-1.035568 2.76879,0.140045 3.38366,2.113132 7.60936,0.725536 7.60936,-2.498685 0,-1.695638 -0.84401,-2.102451 -2.96519,-1.429216 -1.63085,0.517612 -2.96518,0.306765 -2.96518,-0.468551 0,-0.775316 1.66792,-1.728508 3.70648,-2.118205 3.25508,-0.622249 3.70648,-0.1919 3.70648,3.533647 0,3.100467 0.71997,4.242186 2.67514,4.242186 2.20661,0 2.62176,-1.103546 2.37041,-6.301022 -0.16758,-3.465561 -0.37065,-6.801396 -0.45124,-7.412966 -0.25908,-1.966107 -4.2494,-1.184047 -5.08629,0.996862 -0.49612,1.292859 -1.99467,1.798805 -3.87299,1.307611 -1.68509,-0.440657 -4.06099,0.02641 -5.27978,1.037916 -1.53456,1.273569 -2.21599,1.327378 -2.21599,0.174981 0,-3.783475 -4.4578,-1.480073 -4.66992,2.413003 l -0.22214,4.077132 -0.61763,-4.077132 c -0.56685,-3.741839 -1.1582,-4.077131 -7.19083,-4.077131 -3.61526,0 -6.57319,-0.667167 -6.57319,-1.482594 0,-0.815426 -1.00076,-1.482593 -2.22389,-1.482593 -1.22314,0 -2.22389,0.667167 -2.22389,1.482593 0,0.815427 -2.41287,1.482594 -5.36192,1.482594 -4.91992,0 -5.3035,0.305531 -4.65337,3.706483 0.3897,2.038565 0.0522,3.706483 -0.75,3.706483 -0.80219,0 -0.62798,1.00075 0.38713,2.22389 2.15179,2.592743 6.79661,2.938034 8.2341,0.612115 z"
     id="path24039"
     transform="scale(0.75)" />
  <path
     style="fill:#ffff00;stroke:#000000;stroke-width:0.237215;stroke-linecap:round;paint-order:stroke markers fill"
     d="M 311.34459,84.507817 V 70.423181 H 415.12612 518.90765 V 84.507817 98.592454 H 415.12612 311.34459 Z m 98.24219,7.11062 c -1.8235,-0.351911 -5.15933,-0.361019 -7.41297,-0.02024 -2.25363,0.34078 -0.76168,0.628707 3.31545,0.639838 4.07714,0.01112 5.92102,-0.26769 4.09752,-0.619601 z m -37.23373,-5.998675 0.22214,-4.077131 0.61764,4.077131 c 0.77173,5.09436 3.38586,5.380527 3.38586,0.370649 0,-2.038566 0.66717,-3.706484 1.4826,-3.706484 0.81542,0 1.48259,1.667918 1.48259,3.706484 0,2.038565 0.70744,3.706483 1.57209,3.706483 0.91005,0 1.37831,-2.341332 1.11195,-5.559725 -0.45571,-5.506128 -0.52804,-5.564081 -7.50247,-6.011606 l -7.04231,-0.451882 v 6.011607 c 0,4.355254 0.61273,6.011606 2.22389,6.011606 1.38381,0 2.3078,-1.540139 2.44602,-4.077132 z m 16.30853,0 0.22214,-4.077131 0.61763,4.077131 c 0.81388,5.372577 4.79788,5.372577 5.0906,0 l 0.22214,-4.077131 0.61764,4.077131 c 0.77015,5.083924 4.86846,5.498014 4.86846,0.491905 0,-7.03333 -1.35907,-8.275519 -9.05418,-8.275519 h -7.25435 v 5.930373 c 0,4.283047 0.61775,5.930373 2.22389,5.930373 1.38382,0 2.3078,-1.540139 2.44603,-4.077132 z m 42.77307,0.259721 c 0,-4.52987 2.59663,-4.738486 3.23272,-0.259721 0.36311,2.556734 1.59913,3.44434 5.29219,3.800418 4.72185,0.455271 4.81843,0.343834 4.81843,-5.559725 0,-3.313369 -0.66717,-6.024307 -1.4826,-6.024307 -0.81542,0 -1.48259,1.628543 -1.48259,3.618985 0,1.990441 -0.66717,4.031316 -1.48259,4.535278 -0.86498,0.534586 -1.4826,-0.973 -1.4826,-3.618985 0,-4.248772 -0.35122,-4.536557 -5.55972,-4.555523 -3.05785,-0.01113 -7.06085,-0.42253 -8.89556,-0.914213 -2.45766,-0.658627 -3.33584,-0.25969 -3.33584,1.515401 0,1.981271 -0.49196,2.102135 -2.76879,0.680229 -4.1557,-2.595278 -7.62757,-0.584233 -7.33251,4.247277 0.13867,2.270624 0.45973,4.553806 0.71346,5.07374 0.25374,0.519932 4.80488,0.970389 10.11367,1.001015 9.24332,0.05333 9.65233,-0.09667 9.65233,-3.539869 z m 23.83854,1.964169 c 0.0936,-1.482593 0.2666,-1.482593 0.86484,0 0.41129,1.019283 1.89602,1.853242 3.29938,1.853242 2.00914,0 2.52026,-1.248679 2.40422,-5.873593 -0.17268,-6.88285 -1.14124,-8.246002 -4.76831,-6.710894 -1.46216,0.618843 -4.3264,1.201639 -6.36496,1.295103 -3.8057,0.174483 -5.64789,4.540876 -3.87026,9.173317 0.99855,2.602185 8.27302,2.828847 8.43509,0.262825 z"
     id="path24078"
     transform="scale(0.75)" />
  <path
     style="fill:#ffff00;stroke:#000000;stroke-width:0.237215;stroke-linecap:round;paint-order:stroke markers fill"
     d="m 569.45024,25.204086 0.0385,-14.084636 H 682.82066 796.15259 V 25.204086 39.288722 H 682.78217 569.41176 Z m 82.89081,8.154263 c 0,-0.815426 -3.00226,-1.482593 -6.67167,-1.482593 -3.66942,0 -6.67167,0.667167 -6.67167,1.482593 0,0.815426 3.00225,1.482593 6.67167,1.482593 3.66941,0 6.67167,-0.667167 6.67167,-1.482593 z m 48.92557,0 c 0,-0.815426 -3.00225,-1.482593 -6.67167,-1.482593 -3.66941,0 -6.67166,0.667167 -6.67166,1.482593 0,0.815426 3.00225,1.482593 6.67166,1.482593 3.66942,0 6.67167,-0.667167 6.67167,-1.482593 z m -38.91807,-2.944942 c 2.30668,-0.014 3.33584,-0.908057 3.33584,-2.897933 0,-1.582729 0.66716,-3.29002 1.48259,-3.793981 0.81543,-0.503962 1.48259,0.375724 1.48259,1.954855 0,4.330218 4.06177,7.15374 7.3431,5.10452 1.74034,-1.086861 3.15679,-1.155524 4.11294,-0.199379 0.80212,0.802123 3.25902,1.006479 5.45978,0.454126 3.42274,-0.859055 3.93614,-1.674905 3.55028,-5.641796 l -0.45109,-4.637513 h -18.53241 c -18.26231,0 -18.53953,0.05019 -19.02031,3.443658 -0.79113,5.583907 0.84394,8.125117 4.58304,7.122944 1.8248,-0.489091 4.81894,-0.898367 6.65365,-0.909501 z m 45.46849,0.562431 c 1.28983,-0.494955 2.42408,-2.663248 2.52056,-4.818428 0.17442,-3.896308 0.18072,-3.894003 1.11194,0.406958 1.59482,7.365808 4.50383,6.394237 3.98734,-1.331714 -0.50673,-7.579971 -1.80851,-9.90976 -3.76671,-6.741316 -0.71279,1.153317 -3.51198,2.134746 -6.22041,2.180954 -4.30553,0.07346 -4.98594,0.622795 -5.4138,4.370922 -0.62875,5.507934 2.55735,7.937155 7.78108,5.932624 z m 24.7053,-0.582676 c 0.74873,0 1.36134,-2.335084 1.36134,-5.189076 0,-2.853992 -0.66717,-5.189077 -1.4826,-5.189077 -0.81542,0 -1.48259,1.667918 -1.48259,3.706484 0,2.038565 -0.66717,3.706483 -1.48259,3.706483 -0.81543,0 -1.4826,-1.667918 -1.4826,-3.706483 0,-3.247586 -0.64245,-3.706484 -5.18907,-3.706484 -4.94198,0 -5.18908,0.247099 -5.18908,5.189077 0,2.853992 0.66717,5.189076 1.48259,5.189076 0.81543,0 1.4826,-1.294959 1.4826,-2.877688 0,-1.582729 0.66716,-3.29002 1.48259,-3.793981 0.81543,-0.503962 1.48259,0.323981 1.48259,1.839873 0,3.558422 3.05647,6.5966 5.63926,5.605495 1.10893,-0.425534 2.62883,-0.773699 3.37756,-0.773699 z m 11.6283,-0.370648 c 1.57154,-1.482593 2.10034,-1.482593 2.64395,0 0.37375,1.019283 1.56141,1.853242 2.63928,1.853242 1.72959,0 2.03009,-4.596311 0.89657,-13.713988 -0.23901,-1.92254 -4.58602,-1.206293 -4.58602,0.755628 0,1.121549 -1.92477,1.861848 -4.81842,1.853241 -3.90768,-0.01162 -4.91,0.631615 -5.30289,3.403109 -0.87046,6.140319 4.39232,9.749899 8.52753,5.848768 z m -121.70206,-3.706483 1.4891,-4.077132 0.11705,4.077132 c 0.15893,5.536193 4.48533,5.536193 4.78697,0 l 0.22214,-4.077132 0.61763,4.077132 c 0.34305,2.26454 1.56254,4.077131 2.74305,4.077131 1.27638,0 2.21415,-1.628671 2.34755,-4.077131 l 0.22214,-4.077132 0.61763,4.077132 c 0.9242,6.100806 5.18513,5.412917 4.59175,-0.741297 L 639.739,20.756306 629.7315,20.317918 c -8.75146,-0.383366 -10.02909,-0.104245 -10.17949,2.22389 -0.16001,2.477017 -0.21916,2.481732 -0.85001,0.06774 -0.69574,-2.662333 -4.90838,-3.699501 -4.90838,-1.208462 0,3.457831 3.09504,8.992076 5.02883,8.992076 1.17537,0 2.80713,-1.834709 3.62613,-4.077131 z"
     id="path24117"
     transform="scale(0.75)" />
  <path
     style="fill:#ffff00;stroke:#000000;stroke-width:0.237215;stroke-linecap:round;paint-order:stroke markers fill"
     d="m 846.7628,207.56306 0.0289,-14.08464 h 165.935 165.935 v 14.08464 14.08464 H 1012.6978 846.73391 Z m 160.6449,7.63917 c 1.0988,-1.09873 2.2855,-3.93419 2.6372,-6.30102 0.6371,-4.28734 0.6403,-4.28543 0.8616,0.51509 0.258,5.59748 4.6098,6.95181 4.7639,1.4826 l 0.094,-3.33584 1.3408,3.33584 c 1.4427,3.5893 5.7068,4.40273 8.49,1.61955 1.2123,-1.21225 2.279,-1.25758 3.6324,-0.15433 2.7766,2.26343 17.07,1.93106 19.0401,-0.44274 0.8998,-1.08417 1.418,-3.50907 1.1515,-5.38866 -0.3829,-2.7011 -1.4168,-3.41744 -4.9322,-3.41744 -2.8422,0 -4.832,-0.9366 -5.512,-2.59454 -1.3018,-3.17405 -4.1249,-3.42772 -4.1249,-0.37065 0,1.2355 -1.3178,2.22389 -2.9652,2.22389 -1.6308,0 -2.9652,0.8006 -2.9652,1.77912 0,1.38375 -0.3953,1.38375 -1.7791,0 -2.6217,-2.62175 -8.2281,-2.16288 -9.9628,0.81542 -1.4393,2.47099 -1.5134,2.47099 -1.5563,0 -0.034,-1.9682 -1.2978,-2.59454 -5.2342,-2.59454 -5.0655,0 -5.1891,0.1412 -5.1891,5.93038 v 5.93037 h -5.93032 c -3.26171,0 -5.93038,0.66717 -5.93038,1.48259 0,2.21871 11.7672,1.78793 14.0702,-0.51509 z m -27.41354,-4.58649 c 0,-1.99044 0.66717,-4.03131 1.4826,-4.53527 0.86497,-0.53459 1.48259,0.973 1.48259,3.61898 0,4.00792 0.49608,4.53528 4.26624,4.53528 2.34644,0 5.0896,-0.99209 6.09593,-2.20464 2.6514,-3.19473 0.65903,-9.65611 -2.97745,-9.65611 -1.62222,0 -2.93694,-0.99552 -2.93694,-2.22389 0,-1.22314 -1.00075,-2.22389 -2.22389,-2.22389 -1.22314,0 -2.22389,1.00075 -2.22389,2.22389 0,1.2355 -1.31786,2.22389 -2.96519,2.22389 -2.47099,0 -2.96518,0.9884 -2.96518,5.93038 0,3.2617 0.66716,5.93037 1.48259,5.93037 0.81543,0 1.48259,-1.62854 1.48259,-3.61899 z"
     id="path24156"
     transform="scale(0.75)" />
  <path
     style="fill:#ffff00;stroke:#000000;stroke-width:0.237215;stroke-linecap:round;paint-order:stroke markers fill"
     d="M 576.72879,234.24974 V 220.1651 h 106.00542 106.00542 v 14.08464 14.08464 H 682.73421 576.72879 Z m 104.62873,7.51887 c 1.16489,-1.1649 2.11799,-3.46061 2.11799,-5.10158 0,-1.64098 0.66716,-3.39592 1.48259,-3.89988 0.81542,-0.50397 1.48259,0.32398 1.48259,1.83987 0,5.59958 8.00238,8.88449 9.85873,4.04693 0.76243,-1.98685 1.09508,-1.9598 2.68798,0.21862 2.83214,3.87318 9.33623,1.61291 10.11322,-3.5145 0.56129,-3.70403 0.63743,-3.6266 0.83942,0.85362 0.16794,3.72488 0.82081,4.81017 2.67562,4.44778 2.38671,-0.46631 3.78827,-8.22968 2.29474,-12.71075 -0.82765,-2.48323 -4.23623,-2.36072 -5.21404,0.18739 -0.51221,1.33481 -2.18565,1.77251 -4.83816,1.26545 -2.76076,-0.52775 -4.63499,0.0179 -5.87189,1.70943 -1.53193,2.09505 -1.94683,2.1457 -2.64625,0.32304 -0.58903,-1.53498 -3.21848,-2.16157 -9.0709,-2.16157 h -8.24143 v 5.82448 c 0,5.80682 -0.018,5.82447 -5.93038,5.82447 -3.2617,0 -5.93037,0.66717 -5.93037,1.48259 0,2.28344 11.80006,1.75508 14.19054,-0.63539 z m -26.32346,-5.77997 c 0.64121,-5.41639 3.23736,-5.02746 3.23736,0.48499 0,3.69482 0.59673,4.44778 3.52495,4.44778 7.15709,0 9.69777,-10.61018 2.77607,-11.59321 -1.83471,-0.26057 -3.33583,-1.42812 -3.33583,-2.59454 0,-1.16643 -0.66717,-2.12078 -1.4826,-2.12078 -0.81542,0 -1.48259,1.00075 -1.48259,2.22389 0,1.38376 -1.40023,2.22389 -3.70648,2.22389 -3.34845,0 -3.70649,0.5848 -3.70649,6.05392 0,6.87843 3.38102,7.58616 4.17561,0.87406 z"
     id="path24195"
     transform="scale(0.75)" />
</svg>
